<svg xmlns="http://www.w3.org/2000/svg" width="512" height="512"><rect id="backgroundrect" width="100%" height="100%" x="0" y="0" fill="none" stroke="none"/><title>ionicons-v5-a</title><g class="currentLayer" style=""><title>Layer 1</title><path d="M48,256c0,114.87,93.13,208,208,208s208-93.13,208-208S370.87,48,256,48,48,141.13,48,256Zm212.65-91.36a16,16,0,0,1,.09,22.63L208.42,240H342a16,16,0,0,1,0,32H208.42l52.32,52.73A16,16,0,1,1,238,347.27l-79.39-80a16,16,0,0,1,0-22.54l79.39-80A16,16,0,0,1,260.65,164.64Z" id="svg_1" class="" fill="#ddefdb" fill-opacity="1"/></g></svg>