<svg id="Group_293" data-name="Group 293" xmlns="http://www.w3.org/2000/svg" width="24.902" height="18.018" viewBox="0 0 24.902 18.018">
  <path id="Path_418" data-name="Path 418" d="M305.83,140.87c.338,1.352.657,2.709,1.034,4.05a.88.88,0,0,0,.594.471,37.813,37.813,0,0,1,12.89,5.408,6.668,6.668,0,0,1,2.705,3.572,1.915,1.915,0,0,1-1.566,2.707,1.437,1.437,0,0,1-.279.057c-3.137,0-6.274,0-9.506,0,1.093-2.731.722-5.085-1.815-6.707a4.556,4.556,0,0,0-5.358.128c-2.317,1.643-2.739,3.9-1.553,6.669a24.776,24.776,0,0,1-3.093-.268,2.133,2.133,0,0,1-1.577-2.208c.094-2.18.4-4.341,1.939-6.03a25.3,25.3,0,0,1,2.89-2.527.893.893,0,0,0,.331-1.12c-.367-1.386-.621-2.8-.92-4.205Z" transform="translate(-298.304 -140.87)" fill="#fff"/>
  <path id="Path_419" data-name="Path 419" d="M335.482,215.387a4.268,4.268,0,0,1-4.305-4.28,4.385,4.385,0,0,1,4.309-4.325,4.287,4.287,0,0,1,4.271,4.326A4.2,4.2,0,0,1,335.482,215.387Zm-.011-2.008a2.3,2.3,0,0,0,2.332-2.273,2.326,2.326,0,0,0-2.337-2.285,2.279,2.279,0,1,0,0,4.558Z" transform="translate(-326.482 -197.369)" fill="#fff"/>
</svg>
