<svg xmlns="http://www.w3.org/2000/svg" width="16.348" height="24.085" viewBox="0 0 16.348 24.085">
  <g id="Group_292" data-name="Group 292" transform="translate(0 4)">
    <g id="Group_289" data-name="Group 289" transform="translate(0 -4)">
      <path id="Path_413" data-name="Path 413" d="M2.155-4A2.163,2.163,0,0,0,0-1.845V12.531a7.87,7.87,0,0,0,1.259,3.906l.284.393a4.749,4.749,0,0,0,3.417,1.748h6.392a4.782,4.782,0,0,0,3.427-1.741l.3-.41a7.772,7.772,0,0,0,1.272-3.9V-1.845A2.161,2.161,0,0,0,14.193-4Zm6.115.944a.985.985,0,0,1,.985.985.985.985,0,0,1-.985.985.985.985,0,0,1-.985-.985A.985.985,0,0,1,8.27-3.056Zm6.963,15.392a2.161,2.161,0,0,1-2.155,2.155H3.27a2.161,2.161,0,0,1-2.155-2.155V1.5A2.161,2.161,0,0,1,3.27-.655h9.805A2.161,2.161,0,0,1,15.229,1.5V12.336Z" transform="translate(0 4)" fill="#fff"/>
    </g>
    <path id="Path_414" data-name="Path 414" d="M21.639,18.434a3,3,0,0,1-2.75,3.194,3,3,0,0,1-2.75-3.194,3,3,0,0,1,2.75-3.194A3,3,0,0,1,21.639,18.434Z" transform="translate(-10.62 -10.397)" fill="#fff"/>
    <path id="Path_415" data-name="Path 415" d="M5.1,38.378s.722-4.532,2.22-4.863,1.939,1.389,4.3,1.389,2.531-1.419,3.865-1.433,2.332,5.684,2.332,5.684" transform="translate(-3.356 -22.392)" fill="#fff"/>
    <g id="Group_290" data-name="Group 290" transform="translate(11.324 18.01)">
      <path id="Path_416" data-name="Path 416" d="M35.162,53.74v2.075H33.11v-1.77Z" transform="translate(-33.11 -53.74)" fill="#fff"/>
    </g>
    <g id="Group_291" data-name="Group 291" transform="translate(3.037 18.01)">
      <path id="Path_417" data-name="Path 417" d="M10.932,54.044v1.77H8.88V53.74Z" transform="translate(-8.88 -53.74)" fill="#fff"/>
    </g>
  </g>
</svg>
