<svg xmlns="http://www.w3.org/2000/svg" width="17.037" height="20.008" viewBox="0 0 17.037 20.008">
  <path id="Path_1228" data-name="Path 1228" d="M434.011,1307.608H438.2m.739,0H444a.639.639,0,0,0,.64-.64v-3.417a.645.645,0,0,0-.64-.641h-1.963v-14.67a.639.639,0,0,0-.64-.64H431.007a.639.639,0,0,0-.64.64v14.67H428.24a.639.639,0,0,0-.64.641v3.417a.639.639,0,0,0,.64.64h5.044m3.029-19.44a.645.645,0,0,1,.649.649.638.638,0,0,1-.627.649h-.022a.649.649,0,1,1,0-1.3Zm4.366,14.709h-9v-12.509h8.994v12.509Z" transform="translate(-427.6 -1287.6)" fill="#1e1f22"/>
</svg>
