<svg xmlns="http://www.w3.org/2000/svg" width="601.965" height="37.091" viewBox="0 0 601.965 37.091">
  <g id="Group_723" data-name="Group 723" transform="translate(-1109.003 -1017.182)">
    <path id="Path_360" data-name="Path 360" d="M-835.08,2509.809h249.045" transform="translate(1944.083 -1480.478)" fill="none" stroke="#8e8c89" stroke-width="2"/>
    <path id="Path_362" data-name="Path 362" d="M-835.08,2509.809h248.172" transform="translate(2297.876 -1480.478)" fill="none" stroke="#8e8c89" stroke-width="2"/>
    <g id="Group_261" data-name="Group 261" transform="translate(1371.409 1017.182)">
      <path id="Path_375" data-name="Path 375" d="M0,263.723c.686,0,1.373,0,2.059.006a2.636,2.636,0,0,1,.57.071,1.165,1.165,0,0,1,.909.895,2.646,2.646,0,0,1,.078.607c.01.558,0,1.115,0,1.673a.874.874,0,0,1-.69.938.324.324,0,0,0-.152.089l.19.072a1.412,1.412,0,0,1,.522.316.8.8,0,0,1,.249.567q.005,1.221,0,2.442a1.308,1.308,0,0,1-.058.34,1.087,1.087,0,0,1-1.1.8c-.237.009-.475.006-.712.006L0,272.54Zm1.22,4.8v2.948c.313,0,.614,0,.914,0s.42-.123.421-.441q0-.922,0-1.845a1.506,1.506,0,0,0-.006-.153.5.5,0,0,0-.406-.476A4.455,4.455,0,0,0,1.22,268.52Zm0-1.06c.274-.014.525-.01.77-.043a.49.49,0,0,0,.436-.466,1.406,1.406,0,0,0,.009-.173c0-.442,0-.884,0-1.325a1.33,1.33,0,0,0-.053-.358.371.371,0,0,0-.333-.282c-.272-.017-.546,0-.828,0Z" transform="translate(0 -242.572)" fill="#8e8c89"/>
      <path id="Path_376" data-name="Path 376" d="M911.9,271.4a.572.572,0,0,0-.036.1,1.078,1.078,0,0,1-.762.926,1.692,1.692,0,0,1-.471.083c-.327.012-.655.011-.981,0a1.21,1.21,0,0,1-1.247-1.057,2.3,2.3,0,0,1-.045-.362c-.007-.2,0-.409,0-.611a5.667,5.667,0,0,1,1.175-.011c0,.114.012.234.006.353-.024.446.14.646.631.62h.039c.41.021.526-.193.531-.52.007-.494,0-.987,0-1.481a1.421,1.421,0,0,0-.017-.152.314.314,0,0,0-.147-.237c-.1-.067-.2-.137-.307-.2-.379-.215-.761-.426-1.141-.64-.095-.053-.187-.112-.282-.165a.925.925,0,0,1-.484-.8c0-.058-.006-.115-.007-.173,0-.648-.007-1.3,0-1.943a2.281,2.281,0,0,1,.093-.6,1.086,1.086,0,0,1,.9-.791,2.585,2.585,0,0,1,.42-.039c.263-.006.527-.012.789,0a2.086,2.086,0,0,1,.529.085,1.085,1.085,0,0,1,.772.94.917.917,0,0,0,.037.124v1.232l-1.162-.016c0-.238,0-.456,0-.673a1.459,1.459,0,0,0-.02-.248.412.412,0,0,0-.422-.371,2.944,2.944,0,0,0-.308,0,.412.412,0,0,0-.443.432c-.011.545,0,1.09,0,1.635a.345.345,0,0,0,.166.307c.108.069.214.142.326.2.32.176.644.346.965.521.107.058.212.121.317.182a.986.986,0,0,1,.585.686Z" transform="translate(-835.414 -242.548)" fill="#8e8c89"/>
      <path id="Path_378" data-name="Path 378" d="M523.253,428.993c0-.134.011-.268.011-.4,0-.551-.012-1.1.005-1.653a.571.571,0,0,0-.582-.6c-.186,0-.372,0-.558,0a.944.944,0,0,0-.227.039.453.453,0,0,0-.381.5c0,.7,0,1.41,0,2.114h-.308q0-.883.007-1.766c0-.147-.005-.294,0-.442a.338.338,0,0,0-.2-.327,1.158,1.158,0,0,0-.38-.116,5.038,5.038,0,0,0-.576,0,.563.563,0,0,0-.6.62c.018.678.009,1.357.012,2.035h-.308c0-.711-.01-1.422,0-2.133a.747.747,0,0,1,.692-.746,7.069,7.069,0,0,1,.958,0,.785.785,0,0,1,.56.287.607.607,0,0,0,.073-.057.748.748,0,0,1,.513-.232,7.356,7.356,0,0,1,.787-.01.779.779,0,0,1,.822.86c0,.628,0,1.256,0,1.883,0,.051-.007.1-.011.153Z" transform="translate(-477.477 -391.902)" fill="#8e8c89"/>
      <path id="Path_379" data-name="Path 379" d="M588.42,428.882c-.064-.025-.129-.048-.192-.074a2.18,2.18,0,0,1-.316-.136.633.633,0,0,1-.32-.558c0-.147,0-.3,0-.443a.689.689,0,0,1,.418-.639,1.388,1.388,0,0,1,.636-.123h1.783a.5.5,0,0,0-.354-.64,1.441,1.441,0,0,0-.361-.043c-.623,0-1.245,0-1.868,0h-.225v-.239a.94.94,0,0,1,.127-.016c.667,0,1.335,0,2,.013a1.755,1.755,0,0,1,.418.053.726.726,0,0,1,.574.688c.017.48.011.962,0,1.442a.676.676,0,0,1-.532.631c-.083.03-.167.057-.251.085Zm2.026-1.728c-.665,0-1.306,0-1.948,0a.854.854,0,0,0-.315.078.43.43,0,0,0-.28.4c-.005.173,0,.346,0,.519a.341.341,0,0,0,.206.321,1.158,1.158,0,0,0,.536.135c.372,0,.745,0,1.117,0a1.409,1.409,0,0,0,.36-.051.4.4,0,0,0,.322-.388C590.454,427.841,590.445,427.508,590.445,427.154Z" transform="translate(-540.41 -391.792)" fill="#8e8c89"/>
      <path id="Path_380" data-name="Path 380" d="M308.74,428.89c-.058-.023-.118-.042-.174-.069a3.082,3.082,0,0,1-.358-.181.493.493,0,0,1-.241-.417c-.005-.525-.015-1.051,0-1.576a.774.774,0,0,1,.714-.645,3.687,3.687,0,0,1,.422-.024c.372,0,.744.005,1.116.012a.875.875,0,0,1,.247.03.739.739,0,0,1,.6.729c.006.455,0,.911,0,1.366a.725.725,0,0,1-.54.694c-.07.028-.141.054-.211.081Zm-.474-1.459h0c0,.237,0,.475,0,.712a.386.386,0,0,0,.2.351.789.789,0,0,0,.437.126c.411,0,.822,0,1.233,0a.9.9,0,0,0,.3-.054.441.441,0,0,0,.33-.443c-.006-.455,0-.911,0-1.367a.484.484,0,0,0-.35-.477.745.745,0,0,0-.264-.042c-.411,0-.822,0-1.233,0a.951.951,0,0,0-.247.032.477.477,0,0,0-.4.529C308.264,427.007,308.266,427.219,308.266,427.43Z" transform="translate(-283.232 -391.799)" fill="#8e8c89"/>
      <path id="Path_381" data-name="Path 381" d="M415.8,418.635c0-.634,0-1.267-.007-1.9a2.44,2.44,0,0,0-.026-.324.413.413,0,0,0-.306-.358,1.32,1.32,0,0,0-.357-.068c-.6-.007-1.192,0-1.787,0a.464.464,0,0,0-.08.019v.22q0,1.1,0,2.209c0,.069-.012.139-.019.208h-.27a1.817,1.817,0,0,1-.019-.189q0-1.71,0-3.42v-.2h.3v.883c.086,0,.154.009.222.01.513,0,1.025,0,1.538.014a2.451,2.451,0,0,1,.514.057.686.686,0,0,1,.576.675c.006.064.007.128.007.192q0,.884,0,1.768c0,.069-.012.139-.019.208Z" transform="translate(-379.771 -381.544)" fill="#8e8c89"/>
      <path id="Path_382" data-name="Path 382" d="M690.24,428.854l-.011-.257c.079,0,.141-.009.2-.009.546,0,1.091,0,1.637,0a1.879,1.879,0,0,0,.4-.042.377.377,0,0,0,.317-.4c0-.1,0-.192-.008-.288a.311.311,0,0,0-.246-.306,1.177,1.177,0,0,0-.284-.042c-.327-.005-.655.005-.982-.006a2.376,2.376,0,0,1-.531-.074.645.645,0,0,1-.52-.726.659.659,0,0,1,.525-.689,2.757,2.757,0,0,1,.609-.066c.552-.009,1.1,0,1.656,0,.031,0,.062.006.108.011v.244H692.9c-.6,0-1.194,0-1.791,0a.7.7,0,0,0-.4.1.39.39,0,0,0-.189.317c-.028.4.125.592.53.611.372.017.744,0,1.116.011a1.925,1.925,0,0,1,.419.045.629.629,0,0,1,.506.64c0,.071,0,.141,0,.212a.649.649,0,0,1-.483.643c-.072.024-.142.051-.213.077Z" transform="translate(-634.793 -391.764)" fill="#8e8c89"/>
      <path id="Path_383" data-name="Path 383" d="M643.217,429.073c-.007-.069-.019-.139-.019-.208,0-.615-.01-1.231,0-1.846a.511.511,0,0,0-.514-.589,1.714,1.714,0,0,0-.23-.013c-.34,0-.68,0-1.02,0a1.68,1.68,0,0,0-.287.023.475.475,0,0,0-.455.54c0,.417,0,.833,0,1.25,0,.218,0,.436,0,.654,0,.063-.012.126-.019.189h-.27a1.873,1.873,0,0,1-.019-.189q0-.933,0-1.866a.735.735,0,0,1,.761-.828c.531-.024,1.064-.007,1.6,0a1.01,1.01,0,0,1,.282.056.6.6,0,0,1,.479.619c.01.712,0,1.424,0,2.135a.315.315,0,0,1-.018.074Z" transform="translate(-588.965 -391.982)" fill="#8e8c89"/>
      <path id="Path_384" data-name="Path 384" d="M466.57,428.992l-.272-.08a.74.74,0,0,1-.591-.736c-.011-.667,0-1.334,0-2a.48.48,0,0,1,.017-.083h.288c0,.071.009.138.009.206,0,.6.015,1.194,0,1.79a.562.562,0,0,0,.593.627c.378.013.757.01,1.136.007a2.137,2.137,0,0,0,.4-.033.521.521,0,0,0,.454-.555c0-.609,0-1.219,0-1.828v-.214h.291c0,.065.01.126.01.188,0,.609-.008,1.219,0,1.828a.776.776,0,0,1-.637.819c-.066.019-.13.044-.2.067Z" transform="translate(-428.308 -391.901)" fill="#8e8c89"/>
      <path id="Path_385" data-name="Path 385" d="M286.008,418.539c0-.07.011-.14.011-.21q0-1.347,0-2.695a.8.8,0,0,1,.861-.907c.147-.007.294,0,.462,0l.011.235c-.081,0-.149,0-.217,0a2.487,2.487,0,0,0-.382.039.516.516,0,0,0-.412.619h1v.257c-.325.01-.655,0-1.007.006,0,.076-.008.144-.008.212q0,1.107,0,2.214c0,.077-.007.153-.011.23Z" transform="translate(-263.043 -381.449)" fill="#8e8c89"/>
      <path id="Path_386" data-name="Path 386" d="M362.277,428.895c0-.706,0-1.411,0-2.117a.668.668,0,0,1,.528-.711,2.53,2.53,0,0,1,.824-.081v.252c-.089,0-.177,0-.265,0a2.331,2.331,0,0,0-.362.038.482.482,0,0,0-.416.521c0,.7,0,1.4,0,2.1Z" transform="translate(-333.186 -391.804)" fill="#8e8c89"/>
      <path id="Path_387" data-name="Path 387" d="M220.241.307V2.825h-12.83a5.635,5.635,0,0,0-3.58,1.2,5.561,5.561,0,0,0-2.166,3.791,5.691,5.691,0,0,0,4.637,6.313,5.769,5.769,0,0,0,1,.087q6.338.009,12.677,0h.26v2.521c-.057,0-.113.011-.168.011H207.178a8.152,8.152,0,0,1-7-4.145,7.735,7.735,0,0,1-1.056-3.327A8.232,8.232,0,0,1,205.675.466,7.8,7.8,0,0,1,207.242.3q6.358,0,12.715,0Z" transform="translate(-183.101 -0.305)" fill="#8e8c89"/>
      <path id="Path_388" data-name="Path 388" d="M492.436,2.867V.371c.052-.006.1-.015.149-.017.071,0,.141,0,.212,0q6.319,0,12.638,0a7.675,7.675,0,0,1,3.441.788,7.978,7.978,0,0,1,4.516,5.707,7.933,7.933,0,0,1-2.075,7.379,7.907,7.907,0,0,1-4.568,2.446,8.127,8.127,0,0,1-1.36.118q-6.348.013-12.7.005h-.254V14.269c.074,0,.148-.006.222-.006H505.4A5.7,5.7,0,0,0,506.548,3a6.053,6.053,0,0,0-1.3-.129H492.436Z" transform="translate(-452.896 -0.348)" fill="#8e8c89"/>
      <path id="Path_389" data-name="Path 389" d="M291.517,66.949a2.873,2.873,0,1,1-2.87,2.862A2.873,2.873,0,0,1,291.517,66.949Z" transform="translate(-265.471 -61.598)" fill="#8e8c89"/>
      <path id="Path_390" data-name="Path 390" d="M597.552,66.979a2.871,2.871,0,1,1-2.871,2.861A2.86,2.86,0,0,1,597.552,66.979Z" transform="translate(-546.932 -61.625)" fill="#8e8c89"/>
      <path id="Path_391" data-name="Path 391" d="M459.953,263.686H461.1c.041.142.056,8.5.016,8.8h-1.162v-.215c0-.455,0-.911,0-1.366a.987.987,0,0,0-.04-.283q-.566-1.807-1.138-3.611c-.013-.042-.03-.083-.044-.123a.069.069,0,0,0-.024,0s-.007.009-.009.014a.255.255,0,0,0-.005.038c0,.019,0,.038,0,.058q0,2.694,0,5.388c0,.013,0,.026,0,.038s0,.013,0,.019a.073.073,0,0,1,0,.019.193.193,0,0,1-.021.027h-1.147v-8.773a5.7,5.7,0,0,1,1.177-.02l1.217,4.091.042-.005Z" transform="translate(-420.782 -242.526)" fill="#8e8c89"/>
      <path id="Path_392" data-name="Path 392" d="M660.141,263.746h.182c.61,0,1.22,0,1.83,0a2.549,2.549,0,0,1,.478.046,1.246,1.246,0,0,1,1.04,1.093,3.229,3.229,0,0,1,.039.479c0,.532,0,1.065,0,1.6a.883.883,0,0,1-.718.977c-.041.013-.081.031-.152.058l.136.066a4.124,4.124,0,0,1,.463.231.835.835,0,0,1,.391.732q0,1.145,0,2.291a1.47,1.47,0,0,1-.014.211,1.1,1.1,0,0,1-1.163,1.027c-.533.014-1.066.006-1.6.007h-.9C660.112,272.419,660.1,264.027,660.141,263.746Zm1.168,7.738c.35,0,.676.01,1,0a.317.317,0,0,0,.333-.347c0-.679.007-1.358,0-2.036a.507.507,0,0,0-.509-.542c-.235-.021-.474-.013-.71-.016a.587.587,0,0,0-.113.022Zm0-4.026a6.657,6.657,0,0,0,.679,0,.53.53,0,0,0,.532-.6q0-.712,0-1.424a1.064,1.064,0,0,0-.047-.3.4.4,0,0,0-.367-.3c-.261-.015-.523,0-.8,0Z" transform="translate(-607.112 -242.593)" fill="#8e8c89"/>
      <path id="Path_393" data-name="Path 393" d="M401.927,272.532h-1.165v-3.178a6.559,6.559,0,0,0-1.339-.023c-.031.351-.009.708-.013,1.064s0,.706,0,1.059v1.081h-1.166c-.005-.052-.015-.1-.015-.15q0-3.609,0-7.217a2.2,2.2,0,0,1,.09-.605,1.088,1.088,0,0,1,.9-.8,2.454,2.454,0,0,1,.421-.039c.308-.006.616-.007.924,0a2.129,2.129,0,0,1,.419.048,1.084,1.084,0,0,1,.858.794,2.1,2.1,0,0,1,.087.567q.009,3.618,0,7.237C401.935,272.423,401.93,272.473,401.927,272.532Zm-1.18-4.3c0-.066.009-.111.009-.155q0-1.337,0-2.675a1.762,1.762,0,0,0-.011-.192.416.416,0,0,0-.411-.4c-.108-.009-.218,0-.327,0-.46-.023-.6.19-.6.6.008.879,0,1.757,0,2.636,0,.062.006.125.01.2Z" transform="translate(-366.252 -242.572)" fill="#8e8c89"/>
      <path id="Path_394" data-name="Path 394" d="M238.236,268.137c0,.968,0,1.936,0,2.9a2.733,2.733,0,0,1-.033.421,1.168,1.168,0,0,1-1.181,1.076c-.506.021-1.014.021-1.52,0a1.181,1.181,0,0,1-1.2-1.127,3.641,3.641,0,0,1-.028-.441q0-2.847,0-5.694a2.316,2.316,0,0,1,.1-.72,1.105,1.105,0,0,1,.872-.78,2.115,2.115,0,0,1,.42-.044q.587-.009,1.174,0a2.18,2.18,0,0,1,.42.043,1.091,1.091,0,0,1,.886.812,2.456,2.456,0,0,1,.086.625C238.241,266.188,238.236,267.163,238.236,268.137Zm-1.187.021c0-.949,0-1.9,0-2.848a.442.442,0,0,0-.493-.5c-.2,0-.4,0-.6,0a.443.443,0,0,0-.5.484c0,.026,0,.051,0,.077q0,2.771,0,5.543a1.077,1.077,0,0,0,.013.21.394.394,0,0,0,.382.347c.275.014.552.013.828,0a.358.358,0,0,0,.346-.309,1.207,1.207,0,0,0,.017-.249Q237.05,269.534,237.049,268.158Z" transform="translate(-215.464 -242.578)" fill="#8e8c89"/>
      <path id="Path_395" data-name="Path 395" d="M597.877,268.145c0-.968-.005-1.936,0-2.9a2.566,2.566,0,0,1,.089-.663,1.087,1.087,0,0,1,.893-.8,2.156,2.156,0,0,1,.4-.04q.6-.008,1.193,0a2.113,2.113,0,0,1,.42.046,1.162,1.162,0,0,1,.929,1.069,3.5,3.5,0,0,1,.029.441q0,2.866,0,5.732a2.82,2.82,0,0,1-.035.459,1.172,1.172,0,0,1-1.181,1.057c-.506.022-1.014.021-1.52,0a1.211,1.211,0,0,1-1.214-1.24c-.008-.1-.008-.2-.008-.308Q597.876,269.569,597.877,268.145Zm1.186.012q0,1.347,0,2.694c0,.07,0,.141.005.212a.4.4,0,0,0,.389.4c.275.015.552.013.828,0a.34.34,0,0,0,.333-.273,1.25,1.25,0,0,0,.036-.3q0-2.752,0-5.5c0-.039,0-.077,0-.116a.442.442,0,0,0-.478-.465c-.147,0-.3,0-.443,0-.562,0-.668.1-.668.658Q599.062,266.81,599.062,268.157Z" transform="translate(-549.869 -242.579)" fill="#8e8c89"/>
      <path id="Path_396" data-name="Path 396" d="M717.846,268.138c0-.962-.005-1.924,0-2.885a2.691,2.691,0,0,1,.086-.664,1.081,1.081,0,0,1,.864-.81,2.042,2.042,0,0,1,.419-.047q.607-.009,1.213,0a2.091,2.091,0,0,1,.419.047,1.16,1.16,0,0,1,.923,1.054,3.244,3.244,0,0,1,.031.441q0,2.876,0,5.752a2.945,2.945,0,0,1-.033.44,1.178,1.178,0,0,1-1.188,1.071c-.506.02-1.014.022-1.52,0a1.207,1.207,0,0,1-1.208-1.225c-.009-.1-.009-.2-.009-.307Q717.846,269.571,717.846,268.138Zm1.186,0q0,1.357,0,2.714c0,.071,0,.141.005.211a.405.405,0,0,0,.409.4c.263.013.526.011.789,0a.35.35,0,0,0,.356-.294,1.387,1.387,0,0,0,.031-.323q0-2.714,0-5.427c0-.051,0-.1,0-.154a.441.441,0,0,0-.478-.464c-.167-.005-.334.005-.5,0-.48-.024-.618.193-.613.6C719.039,266.315,719.032,267.226,719.032,268.137Z" transform="translate(-660.206 -242.576)" fill="#8e8c89"/>
      <path id="Path_397" data-name="Path 397" d="M543.895,268.9l.819,3.656h-1.12l-.771-3.536h-.706v3.532h-1.178v-8.789a1.382,1.382,0,0,1,.142-.014c.739,0,1.477,0,2.215,0a1.721,1.721,0,0,1,.4.051,1.029,1.029,0,0,1,.782.722,2.1,2.1,0,0,1,.107.583c.011.834.007,1.668,0,2.5a2.121,2.121,0,0,1-.053.419A1.172,1.172,0,0,1,543.895,268.9Zm-1.77-4.077v3.159c.305,0,.6.01.892,0a.363.363,0,0,0,.335-.277,1.4,1.4,0,0,0,.054-.377c.005-.609,0-1.218,0-1.827a1.331,1.331,0,0,0-.034-.323.42.42,0,0,0-.407-.348C542.69,264.818,542.415,264.826,542.125,264.826Z" transform="translate(-497.505 -242.596)" fill="#8e8c89"/>
      <path id="Path_398" data-name="Path 398" d="M104.8,263.761h1.17c0,.076.01.15.01.223q0,2.348,0,4.7c0,.808,0,1.616-.011,2.425a2.161,2.161,0,0,1-.091.567,1.174,1.174,0,0,1-1.145.892c-.449.016-.9.017-1.348,0a1.209,1.209,0,0,1-1.186-1.086,3.028,3.028,0,0,1-.049-.535q0-3.5,0-7.005v-.182c.391,0,.773,0,1.182,0v.257q0,3.4,0,6.794a1.874,1.874,0,0,0,.02.326.409.409,0,0,0,.41.362c.2.009.411.009.616,0a.383.383,0,0,0,.391-.331,1.85,1.85,0,0,0,.031-.363q0-3.387,0-6.774Z" transform="translate(-93.941 -242.602)" fill="#8e8c89"/>
      <path id="Path_399" data-name="Path 399" d="M298.176,270.507h1.133c.012.014.026.024.027.034a4.015,4.015,0,0,1-.037,1.015,1.159,1.159,0,0,1-1.17,1,11.139,11.139,0,0,1-1.155,0,1.188,1.188,0,0,1-1.2-1.129,4.425,4.425,0,0,1-.028-.5q0-2.771,0-5.542a4.454,4.454,0,0,1,.028-.5,1.13,1.13,0,0,1,1.063-1.1,7,7,0,0,1,1.419,0,1.092,1.092,0,0,1,1.047,1.05c.051.456.038.92.053,1.372a5.47,5.47,0,0,1-1.184.025,1.4,1.4,0,0,1-.015-.143c0-.25,0-.5,0-.75a.453.453,0,0,0-.506-.515c-.1,0-.193,0-.289,0a.388.388,0,0,0-.412.352,1.059,1.059,0,0,0-.019.21q0,2.771,0,5.542c0,.038,0,.077,0,.115a.423.423,0,0,0,.482.45c.1,0,.193,0,.289,0a.413.413,0,0,0,.451-.44c.007-.134,0-.269,0-.4C298.163,270.6,298.171,270.561,298.176,270.507Z" transform="translate(-272.002 -242.594)" fill="#8e8c89"/>
      <path id="Path_400" data-name="Path 400" d="M857.275,266.216h-1.153c-.006-.057-.016-.112-.016-.166,0-.244,0-.488,0-.732-.006-.36-.163-.516-.519-.521-.1,0-.193,0-.289,0a.4.4,0,0,0-.4.366,1.458,1.458,0,0,0-.01.211q0,2.753,0,5.505a1.485,1.485,0,0,0,.012.23.383.383,0,0,0,.391.352c.134.007.27.007.4,0a.381.381,0,0,0,.4-.38c.014-.127.009-.256.011-.384,0-.069,0-.138,0-.217h1.165a.834.834,0,0,1,.016.132,7.218,7.218,0,0,1-.045.9,1.146,1.146,0,0,1-1.17,1.017c-.385.016-.771.017-1.155,0a1.169,1.169,0,0,1-1.181-1.077,2.979,2.979,0,0,1-.035-.44q0-2.888,0-5.775a2.616,2.616,0,0,1,.083-.646,1.089,1.089,0,0,1,.895-.827,2.185,2.185,0,0,1,.4-.042c.276-.006.552-.007.828,0a2.2,2.2,0,0,1,.42.046,1.093,1.093,0,0,1,.878.822,2.09,2.09,0,0,1,.075.473c.012.346,0,.693,0,1.039C857.287,266.136,857.28,266.167,857.275,266.216Z" transform="translate(-785.151 -242.57)" fill="#8e8c89"/>
      <path id="Path_401" data-name="Path 401" d="M353.309,271.6h1.73c.014.363.007.711,0,1.067h-2.914v-8.8h2.905v1.057h-1.721v2.673c.5.005,1.006,0,1.521,0v1.071h-1.524Z" transform="translate(-323.855 -242.703)" fill="#8e8c89"/>
      <path id="Path_402" data-name="Path 402" d="M166.642,272.5h-2.908v-8.776c.131-.038,2.593-.052,2.907-.014v1.049c-.187.015-.378,0-.567.007s-.372,0-.558,0h-.571c-.042.152-.058,2.272-.02,2.665.5.006,1,0,1.513,0a2.417,2.417,0,0,1,.021.524c0,.172,0,.345,0,.54h-1.515c-.042.165-.051,2.684-.013,2.938h1.71Z" transform="translate(-150.587 -242.538)" fill="#8e8c89"/>
      <path id="Path_403" data-name="Path 403" d="M777.211,272.694h-1.184v-7.728c-.382-.015-.75,0-1.128-.01V263.9h3.421v1.055h-1.109Z" transform="translate(-712.679 -242.733)" fill="#8e8c89"/>
      <path id="Path_404" data-name="Path 404" d="M58.763,263.885h1.156v7.721c.543.032,1.072,0,1.625.021.008.352,0,.694,0,1.051H58.771C58.735,272.542,58.725,264.128,58.763,263.885Z" transform="translate(-54.022 -242.721)" fill="#8e8c89"/>
      <path id="Path_405" data-name="Path 405" d="M827.333,272.686h-1.154v-8.8h1.137C827.357,264.022,827.375,272.3,827.333,272.686Z" transform="translate(-759.842 -242.723)" fill="#8e8c89"/>
      <path id="Path_406" data-name="Path 406" d="M225.908,441.488v-.227h1.823v.208A13.618,13.618,0,0,1,225.908,441.488Z" transform="translate(-207.769 -405.855)" fill="#8e8c89"/>
    </g>
  </g>
</svg>
