<?xml version="1.0" encoding="utf-8"?>
<!-- Generator: Adobe Illustrator 24.2.0, SVG Export Plug-In . SVG Version: 6.00 Build 0)  -->
<svg version="1.1" id="Layer_1" xmlns="http://www.w3.org/2000/svg" xmlns:xlink="http://www.w3.org/1999/xlink" x="0px" y="0px"
	 viewBox="0 0 512 512" style="enable-background:new 0 0 512 512;" xml:space="preserve">
<style type="text/css">
	.st0{fill:#FFFFFF;}
</style>
<path class="st0" d="M298.5,256l118.7-118.7c11.7-11.7,11.7-30.7,0-42.5s-30.7-11.7-42.5,0l0,0L256,213.5L137.3,94.8
	c-11.7-11.7-30.7-11.7-42.5,0s-11.7,30.7,0,42.5L213.5,256L94.8,374.7c-11.7,11.7-11.7,30.7,0,42.5s30.7,11.7,42.5,0L256,298.5
	l118.7,118.7c11.7,11.7,30.7,11.7,42.5,0s11.7-30.7,0-42.5L298.5,256z"/>
</svg>
