<svg xmlns="http://www.w3.org/2000/svg" width="192.818" height="156.555" viewBox="0 0 192.818 156.555"><defs><style>.a{fill:#fff;}</style></defs><path class="a" d="M198.82,204.845a6,6,0,0,1-4.259-1.766L49.947,58.465a6.026,6.026,0,0,1,8.519-8.519L203.079,194.56a6.026,6.026,0,0,1-4.259,10.285Z" transform="translate(-30.104 -48.29)"/><path class="a" d="M14.582,177.848C5.043,186.547,0,198.425,0,212.2A46.477,46.477,0,0,0,15.248,247.07c9.471,8.6,22.246,13.335,35.969,13.335h72.608a3.013,3.013,0,0,0,2.132-5.144L37.991,167.3a3.013,3.013,0,0,0-3.013-.753A53.3,53.3,0,0,0,14.582,177.848Z" transform="translate(0 -121.927)"/><path class="a" d="M284.15,187.233c8.726-6.948,13.335-17.263,13.335-29.838,0-21.681-15.817-34.112-32.975-37.942a6.026,6.026,0,0,1-4.564-4.666c-2.892-13.814-9.208-25.665-18.521-34.647A57.834,57.834,0,0,0,201.076,64a55.1,55.1,0,0,0-31.868,9.829,3.013,3.013,0,0,0-.429,4.617L278.535,188.2a3.013,3.013,0,0,0,3.841.35Q283.291,187.918,284.15,187.233Z" transform="translate(-104.667 -58.083)"/></svg>