<?xml version="1.0" encoding="utf-8"?>
<!-- Generator: Adobe Illustrator 24.2.0, SVG Export Plug-In . SVG Version: 6.00 Build 0)  -->
<svg version="1.1" id="Layer_1" xmlns="http://www.w3.org/2000/svg" xmlns:xlink="http://www.w3.org/1999/xlink" x="0px" y="0px"
	 viewBox="0 0 512 512" style="enable-background:new 0 0 512 512;" xml:space="preserve">
<style type="text/css">
	.st0{fill:#FFFFFF;}
</style>
<circle class="st0" cx="256" cy="256" r="29"/>
<path class="st0" d="M256,5C117.6,5,5,117.6,5,256s112.6,251,251,251s251-112.6,251-251S394.4,5,256,5z M382.8,141.8l-56.6,141.4
	c-7.8,19.6-23.4,35.2-43,43l-141.4,56.6c-4.9,2-10.6-0.4-12.6-5.4c-0.9-2.3-0.9-4.9,0-7.2l56.6-141.4c7.8-19.6,23.4-35.2,43-43
	l141.4-56.6c4.9-2,10.6,0.4,12.5,5.4C383.7,136.9,383.7,139.5,382.8,141.8z"/>
</svg>
