<svg xmlns="http://www.w3.org/2000/svg" width="42.998" height="62.168" viewBox="0 0 42.998 62.168">
  <path id="Subtraction_11" data-name="Subtraction 11" d="M-17378.6-18528.834a37.013,37.013,0,0,1-14.846-2.785c-3.969-1.789-6.154-4.176-6.154-6.719s2.186-4.924,6.154-6.713a32.923,32.923,0,0,1,9.848-2.514v1.008c-8.541.965-14.5,4.258-14.5,8.01,0,2.215,2.029,4.295,5.715,5.859a36.264,36.264,0,0,0,13.787,2.426,36.261,36.261,0,0,0,13.785-2.426c3.689-1.562,5.721-3.643,5.721-5.859a4.3,4.3,0,0,0-1.115-2.762,10.348,10.348,0,0,0-3.08-2.365,29.546,29.546,0,0,0-10.539-2.906v-1.014a33.286,33.286,0,0,1,10.078,2.543c3.965,1.789,6.148,4.174,6.148,6.713s-2.184,4.93-6.148,6.719A37.067,37.067,0,0,1-17378.6-18528.834Zm-.164-4.418c-.088,0-8.775-.012-10.232-.951l.262-6.424a2.127,2.127,0,0,1,2.186-2.1c.088,0,.18.006.273.012l.025,0a17.433,17.433,0,0,0,1.9.115,7.074,7.074,0,0,0,1.484-.127,1.737,1.737,0,0,0,1.246-1.838v-18.574h-7.525a.858.858,0,0,1-.854-.859v-4.586a.869.869,0,0,1,.863-.863h2.85v-19.7a.864.864,0,0,1,.863-.857h13.932a.862.862,0,0,1,.863.857v19.689h2.631a.864.864,0,0,1,.863.863v4.586a.86.86,0,0,1-.863.854h-7.922v18.588a1.909,1.909,0,0,0,1.25,1.836,4.936,4.936,0,0,0,1.494.191,11.258,11.258,0,0,0,1.893-.176l.023-.006c.094-.006.186-.012.273-.012a2.126,2.126,0,0,1,2.182,2.1l.266,6.424C-17370-18533.264-17378.678-18533.252-17378.766-18533.252Zm-1.232-11.785h2.6a.2.2,0,0,1,.205.2v.779a.769.769,0,0,0,.412.1c.043,0,.068,0,.068,0v-2.789a.187.187,0,0,0-.187-.191h-3.736a.188.188,0,0,0-.186.191v2.789s.029,0,.084,0c.139,0,.471-.029.545-.3v-.578A.2.2,0,0,1-17380-18545.037Zm-.5-18.1a.3.3,0,0,0-.3.3v5.4a.3.3,0,0,0,.3.3h3.5a.3.3,0,0,0,.3-.3v-5.4a.3.3,0,0,0-.3-.3Zm2-10.5a6.58,6.58,0,0,1,3.531,1.027,4.6,4.6,0,0,1,2.051,3.061.243.243,0,0,1,.008.031.015.015,0,0,1,0,.01s0,.006,0,.01h.457l0-16.791h-12.07v16.791h.43v-.016c0-.012,0-.023,0-.035a4.6,4.6,0,0,1,2.053-3.061A6.6,6.6,0,0,1-17378.5-18573.637Zm.2-15.605h0a.137.137,0,0,1-.057.01.872.872,0,0,0-.84.9.862.862,0,0,0,.865.834h.063a.852.852,0,0,0,.6-.262.851.851,0,0,0,.238-.605v-.014A.873.873,0,0,0-17378.3-18589.242Zm-.207,14.748c-.045,0-.092,0-.137-.006l-.045,0a2.76,2.76,0,0,1-1.922-.941,2.763,2.763,0,0,1-.691-2.025,2.871,2.871,0,0,1,.729-2.18l.066-.064a2.884,2.884,0,0,1,2.006-.809,2.854,2.854,0,0,1,2.066.873,2.8,2.8,0,0,1,.713,2.18,2.208,2.208,0,0,1,0,.359A2.789,2.789,0,0,1-17378.51-18574.494Z" transform="translate(17400.102 18590.502)" fill="#56ae4d" stroke="rgba(0,0,0,0)" stroke-miterlimit="10" stroke-width="1"/>
</svg>
