<svg id="Component_11_78" data-name="Component 11 – 78" xmlns="http://www.w3.org/2000/svg" width="50" height="50" viewBox="0 0 50 50">
  <path id="Path_1071" data-name="Path 1071" d="M25,0A25,25,0,1,1,0,25,25,25,0,0,1,25,0Z" fill="#fff"/>
  <g id="scan" transform="translate(15.814 16)">
    <path id="Path_453" data-name="Path 453" d="M347.154,342H344.83a2.83,2.83,0,0,0-2.83,2.83v2.325" transform="translate(-328.154 -328.154)" fill="none" stroke="#1e1f22" stroke-linecap="round" stroke-linejoin="round" stroke-width="2"/>
    <path id="Path_454" data-name="Path 454" d="M342,68v2.325a2.83,2.83,0,0,0,2.83,2.83h2.325" transform="translate(-328.154 -68)" fill="none" stroke="#1e1f22" stroke-linecap="round" stroke-linejoin="round" stroke-width="2"/>
    <path id="Path_455" data-name="Path 455" d="M68,342h2.325a2.83,2.83,0,0,1,2.83,2.83v2.325" transform="translate(-68 -328.154)" fill="none" stroke="#1e1f22" stroke-linecap="round" stroke-linejoin="round" stroke-width="2"/>
    <path id="Path_456" data-name="Path 456" d="M73.154,68v2.325a2.83,2.83,0,0,1-2.83,2.83H68" transform="translate(-68 -68)" fill="none" stroke="#1e1f22" stroke-linecap="round" stroke-linejoin="round" stroke-width="2"/>
  </g>
</svg>
