<svg id="Component_11_81" data-name="Component 11 – 81" xmlns="http://www.w3.org/2000/svg" width="50" height="50" viewBox="0 0 50 50">
  <path id="Path_1071" data-name="Path 1071" d="M25,0A25,25,0,1,1,0,25,25,25,0,0,1,25,0Z" fill="#fff"/>
  <g id="scan-outline" transform="translate(-49 -49)">
    <path id="Path_1072" data-name="Path 1072" d="M336,341.833h2.917a2.917,2.917,0,0,0,2.917-2.917V336" transform="translate(-257.833 -257.833)" fill="none" stroke="#2d2a26" stroke-linecap="round" stroke-linejoin="round" stroke-width="2"/>
    <path id="Path_1073" data-name="Path 1073" d="M341.833,69.833V66.917A2.917,2.917,0,0,0,338.917,64H336" transform="translate(-257.833)" fill="none" stroke="#2d2a26" stroke-linecap="round" stroke-linejoin="round" stroke-width="2"/>
    <path id="Path_1074" data-name="Path 1074" d="M69.833,341.833H66.917A2.917,2.917,0,0,1,64,338.917V336" transform="translate(0 -257.833)" fill="none" stroke="#2d2a26" stroke-linecap="round" stroke-linejoin="round" stroke-width="2"/>
    <path id="Path_1075" data-name="Path 1075" d="M64,69.833V66.917A2.917,2.917,0,0,1,66.917,64h2.917" fill="none" stroke="#2d2a26" stroke-linecap="round" stroke-linejoin="round" stroke-width="2"/>
  </g>
</svg>
