<svg xmlns="http://www.w3.org/2000/svg" width="25.07" height="23.562" viewBox="0 0 25.07 23.562"><defs><style>.a{fill:#56ae4d;}</style></defs><path class="a" d="M72.879,86.391l-10.554-19.6a1.982,1.982,0,0,0-3.489,0l-10.553,19.6a1.982,1.982,0,0,0,1.742,2.921H71.134a1.982,1.982,0,0,0,1.745-2.921Zm-12.3-.113a1.238,1.238,0,1,1,1.238-1.238A1.238,1.238,0,0,1,60.581,86.278Zm1.345-12.456-.355,7.555a.991.991,0,1,1-1.982,0l-.355-7.552h0a1.346,1.346,0,0,1,1.331-1.405h.013a1.346,1.346,0,0,1,1.346,1.406Z" transform="translate(-48.046 -65.75)"/></svg>