<?xml version="1.0" encoding="utf-8"?>
<!-- Generator: Adobe Illustrator 24.3.0, SVG Export Plug-In . SVG Version: 6.00 Build 0)  -->
<svg version="1.1" id="Layer_1" xmlns="http://www.w3.org/2000/svg" xmlns:xlink="http://www.w3.org/1999/xlink" x="0px" y="0px"
	 viewBox="0 0 25.1 25.1" style="enable-background:new 0 0 25.1 25.1;" xml:space="preserve">
<style type="text/css">
	.st0{filter:url(#close-circle);}
	.st1{fill:#78787A;}
</style>
<filter  filterUnits="userSpaceOnUse" height="25.1" id="close-circle" width="25.1" x="0" y="0">
	<feOffset  dy="2" input="SourceAlpha"></feOffset>
	<feGaussianBlur  result="blur" stdDeviation="5"></feGaussianBlur>
	<feFlood  flood-opacity="0.039"></feFlood>
	<feComposite  in2="blur" operator="in"></feComposite>
	<feComposite  in="SourceGraphic" operator="over"></feComposite>
</filter>
<g transform="matrix(1, 0, 0, 1, 0, 0)" class="st0">
	<path id="close-circle-2_1_" class="st1" d="M12.6,0C5.6,0,0,5.6,0,12.6s5.6,12.5,12.5,12.5s12.5-5.6,12.5-12.5l0,0
		C25,5.6,19.5,0.1,12.6,0z M17.1,15.7c0.4,0.4,0.4,1,0,1.4s-1,0.4-1.4,0c0,0,0,0,0,0l-3.2-3.2l-3.2,3.2c-0.4,0.4-1,0.3-1.4,0
		c-0.4-0.4-0.4-1,0-1.3l3.2-3.2L8,9.4C7.7,9,7.7,8.4,8.1,8c0.4-0.4,1-0.4,1.3,0l3.2,3.2L15.7,8c0.4-0.4,1-0.3,1.4,0
		c0.4,0.4,0.4,1,0,1.3l-3.2,3.2L17.1,15.7z"/>
</g>
</svg>
