<svg xmlns="http://www.w3.org/2000/svg" width="512" height="512"><rect id="backgroundrect" width="100%" height="100%" x="0" y="0" fill="none" stroke="none"/><title>ionicons-v5-f</title><g class="currentLayer" style=""><title>Layer 1</title><path d="M472.7,189.5c-13.26-8.43-29.83-14.56-48.08-17.93A16,16,0,0,1,412,159.28c-7.86-34.51-24.6-64.13-49.15-86.58C334.15,46.45,296.21,32,256,32c-35.35,0-68,11.08-94.37,32a150.13,150.13,0,0,0-41.95,52.83A16.05,16.05,0,0,1,108,125.8c-27.13,4.9-50.53,14.68-68.41,28.7C13.7,174.83,0,203.56,0,237.6,0,305,55.93,352,136,352H240V224.45c0-8.61,6.62-16,15.23-16.43A16,16,0,0,1,272,224V352H396c72.64,0,116-34.24,116-91.6C512,230.35,498.41,205.83,472.7,189.5Z" id="svg_1" class="" fill-opacity="1" fill="#a5a5a6"/><path d="M240,426.03728394031526 l-36.7,-36.64 a16,16 0 0 0 -22.6,22.65 l64,63.89 a16,16 0 0 0 22.6,0 l64,-63.89 a16,16 0 0 0 -22.6,-22.65 L272,426.03728394031526 V352.61728394031525 H240 z" id="svg_2" class="" stroke-opacity="1" stroke="#a5a5a6" fill-opacity="1" fill="#a5a5a6"/></g></svg>