<svg xmlns="http://www.w3.org/2000/svg" width="512" height="512"><rect id="backgroundrect" width="100%" height="100%" x="0" y="0" fill="none" stroke="none"/><title>ionicons-v5-e</title><g class="currentLayer" style=""><title>Layer 1</title><path d="M416.61728394031525,64 H400.61728394031525 V48.45 c0,-8.61 -6.62,-16 -15.23,-16.43 A16,16 0 0 0 368.61728394031525,48 V64 H144.61728394031525 V48.45 c0,-8.61 -6.62,-16 -15.23,-16.43 A16,16 0 0 0 112.61728394031525,48 V64 H96.61728394031525 a64,64 0 0 0 -64,64 V416 a64,64 0 0 0 64,64 H416.61728394031525 a64,64 0 0 0 64,-64 V128 A64,64 0 0 0 416.61728394031525,64 zM136.61728394031525,416 a24,24 0 1 1 24,-24 A24,24 0 0 1 136.61728394031525,416 zm0,-80 a24,24 0 1 1 24,-24 A24,24 0 0 1 136.61728394031525,336 zm80,80 a24,24 0 1 1 24,-24 A24,24 0 0 1 216.61728394031525,416 zm0,-80 a24,24 0 1 1 24,-24 A24,24 0 0 1 216.61728394031525,336 zm80,80 a24,24 0 1 1 24,-24 A24,24 0 0 1 296.61728394031525,416 zm0,-80 a24,24 0 1 1 24,-24 A24,24 0 0 1 296.61728394031525,336 zm0,-80 a24,24 0 1 1 24,-24 A24,24 0 0 1 296.61728394031525,256 zm80,80 a24,24 0 1 1 24,-24 A24,24 0 0 1 376.61728394031525,336 zm0,-80 a24,24 0 1 1 24,-24 A24,24 0 0 1 376.61728394031525,256 zm72,-120 v16 a8,8 0 0 1 -8,8 H72.61728394031525 a8,8 0 0 1 -8,-8 V128 A32.09,32.09 0 0 1 96.61728394031525,96 H416.61728394031525 a32.09,32.09 0 0 1 32,32 z" id="svg_1" class="selected" fill-opacity="1" fill="#a5a5a6"/></g></svg>