<svg xmlns="http://www.w3.org/2000/svg" width="29.493" height="34.854" viewBox="0 0 29.493 34.854">
  <g id="_75420" data-name="75420" transform="translate(-88.706 -60.002)">
    <path id="Union_15" data-name="Union 15" d="M3296.513,10416c-.666,0-1.2-.391-1.2-.869v-3.2c0-.48.536-.875,1.2-.875h1.566v-2.3a1.918,1.918,0,0,1,1.915-1.92h3.253a2.6,2.6,0,0,1,1.2-4.914h2.613v-5.166a8.1,8.1,0,1,1,5.99,0v5.166h2.612a2.6,2.6,0,0,1,1.2,4.914h3.253a1.918,1.918,0,0,1,1.915,1.92v2.3h1.562c.671,0,1.208.395,1.208.875v3.2c0,.479-.536.869-1.208.869Zm7.619-26.756a.872.872,0,0,0,1.744,0,4.187,4.187,0,0,1,4.179-4.184.869.869,0,0,0,0-1.738A5.929,5.929,0,0,0,3304.132,10389.246Z" transform="translate(-3206.605 -10321.146)" fill="#fff"/>
  </g>
</svg>
