<svg id="Page-1" xmlns="http://www.w3.org/2000/svg" width="50" height="38.333" viewBox="0 0 50 38.333">
  <g id="_039---Cursor-Keyboard" data-name="039---Cursor-Keyboard">
    <path id="Shape" d="M45,18.333H37.5a5,5,0,0,0-4.167,2.242,5.037,5.037,0,0,0-1.408-1.408A5,5,0,0,0,34.167,15V5a5,5,0,0,0-5-5H20.833a5,5,0,0,0-5,5V15a5,5,0,0,0,2.242,4.167,5.037,5.037,0,0,0-1.408,1.408A5,5,0,0,0,12.5,18.333H5a5.005,5.005,0,0,0-5,5v10a5,5,0,0,0,5,5h7.5a5,5,0,0,0,4.167-2.242,5,5,0,0,0,4.167,2.242h8.333a5,5,0,0,0,4.167-2.242A5,5,0,0,0,37.5,38.333H45a5.005,5.005,0,0,0,5-5v-10A5.005,5.005,0,0,0,45,18.333ZM17.5,15V5a3.333,3.333,0,0,1,3.333-3.333h8.333A3.333,3.333,0,0,1,32.5,5V15a3.333,3.333,0,0,1-3.333,3.333H20.833A3.333,3.333,0,0,1,17.5,15Zm-5,21.667H5a3.333,3.333,0,0,1-3.333-3.333v-10A3.333,3.333,0,0,1,5,20h7.5a3.333,3.333,0,0,1,3.333,3.333v10A3.333,3.333,0,0,1,12.5,36.667Zm16.667,0H20.833A3.333,3.333,0,0,1,17.5,33.333v-10A3.333,3.333,0,0,1,20.833,20h8.333A3.333,3.333,0,0,1,32.5,23.333v10A3.333,3.333,0,0,1,29.167,36.667Zm19.167-3.333A3.333,3.333,0,0,1,45,36.667H37.5a3.333,3.333,0,0,1-3.333-3.333v-10A3.333,3.333,0,0,1,37.5,20H45a3.333,3.333,0,0,1,3.333,3.333Z" fill="#fff"/>
    <path id="Shape-2" data-name="Shape" d="M32.343,9.328a3,3,0,0,0-4.686,0l-2.438,3.047a1,1,0,0,0,1.562,1.25l2.439-3.048a1.029,1.029,0,0,1,1.56,0l2.439,3.048a1,1,0,0,0,1.562-1.25Z" transform="translate(-5 -1.564)" fill="#fff"/>
    <path id="Shape-3" data-name="Shape" d="M33.219,32.577l-2.438,3.048a1.03,1.03,0,0,1-1.561,0l-2.439-3.048a1,1,0,0,0-1.562,1.249l2.439,3.049a3,3,0,0,0,4.685,0l2.438-3.048a1,1,0,0,0-1.562-1.249Z" transform="translate(-5 -6.141)" fill="#fff"/>
    <path id="Shape-4" data-name="Shape" d="M11.6,31.8a1,1,0,0,0-1.2-1.6L7.19,32.638a2.937,2.937,0,0,0,0,4.716L10.4,39.8a.986.986,0,0,0,.6.2,1,1,0,0,0,.6-1.8L8.4,35.765a.938.938,0,0,1,0-1.53Z" transform="translate(0 -7.667)" fill="#fff"/>
    <path id="Shape-5" data-name="Shape" d="M52.814,32.642,49.6,30.2a1,1,0,1,0-1.2,1.6l3.209,2.439a.938.938,0,0,1,0,1.53L48.4,38.2A1,1,0,0,0,49,40a.986.986,0,0,0,.6-.2l3.21-2.438a2.937,2.937,0,0,0,0-4.716Z" transform="translate(-10 -7.667)" fill="#fff"/>
  </g>
</svg>
