<svg xmlns="http://www.w3.org/2000/svg" width="512" height="512"><rect id="backgroundrect" width="100%" height="100%" x="0" y="0" fill="none" stroke="none"/><title>ionicons-v5-i</title><g class="currentLayer" style=""><title>Layer 1</title><path d="M203.41520470380783,240.58479529619217 H67.41520470380783 a36,36 0 0 1 -36,-36 V68.58479529619217 A36,36 0 0 1 67.41520470380783,32.58479529619217 H203.41520470380783 a36,36 0 0 1 36,36 V204.58479529619217 A36,36 0 0 1 203.41520470380783,240.58479529619217 z" id="svg_1" class="" fill-opacity="1" fill="#1e1f22"/><path d="M444,240H308a36,36,0,0,1-36-36V68a36,36,0,0,1,36-36H444a36,36,0,0,1,36,36V204A36,36,0,0,1,444,240Z" id="svg_2" class="" fill-opacity="1" fill="#a5a5a6"/><path d="M444,240.58479529619217 H308 a36,36 0 0 1 -36,-36 V68.58479529619217 a36,36 0 0 1 36,-36 H444 a36,36 0 0 1 36,36 V204.58479529619217 A36,36 0 0 1 444,240.58479529619217 z" class="" fill-opacity="1" fill="#1e1f22" id="svg_5"/><path d="M204,480H68a36,36,0,0,1-36-36V308a36,36,0,0,1,36-36H204a36,36,0,0,1,36,36V444A36,36,0,0,1,204,480Z" id="svg_3" class="" fill-opacity="1" fill="#1e1f22"/><path d="M444,480H308a36,36,0,0,1-36-36V308a36,36,0,0,1,36-36H444a36,36,0,0,1,36,36V444A36,36,0,0,1,444,480Z" id="svg_4" class="" fill-opacity="1" fill="#1e1f22"/></g></svg>