<?xml version="1.0" encoding="utf-8"?>
<!-- Generator: Adobe Illustrator 24.2.0, SVG Export Plug-In . SVG Version: 6.00 Build 0)  -->
<svg version="1.1" id="Layer_1" xmlns="http://www.w3.org/2000/svg" xmlns:xlink="http://www.w3.org/1999/xlink" x="0px" y="0px"
	 viewBox="0 0 512 512" style="enable-background:new 0 0 512 512;" xml:space="preserve">
<style type="text/css">
	.st0{fill:none;}
	.st1{fill:#1E1F22;}
	.st2{fill:#A5A5A6;}
</style>
<rect id="backgroundrect" class="st0" width="512" height="512"/>
<g>
	<path id="svg_1" class="st1" d="M200.8,236.6H70c-19.1,0-34.6-15.5-34.6-34.6V71.2c0-19.1,15.5-34.6,34.6-34.6h130.8
		c19.1,0,34.6,15.5,34.6,34.6V202C235.4,221.1,219.9,236.6,200.8,236.6z"/>
	<path id="svg_2" class="st2" d="M441.4,235.7H310.6c-19.1,0-34.6-15.5-34.6-34.5V70.8c0-19.1,15.5-34.5,34.6-34.5h130.8
		c19.1,0,34.6,15.5,34.6,34.5v130.4C476,220.3,460.5,235.7,441.4,235.7z"/>
	<path id="svg_5" class="st1" d="M441.4,236.3H310.6c-19.1,0-34.6-15.5-34.6-34.5V71.4c0-19.1,15.5-34.5,34.6-34.5h130.8
		c19.1,0,34.6,15.5,34.6,34.5v130.4C476,220.8,460.5,236.3,441.4,236.3z"/>
	<path id="svg_3" class="st1" d="M201.4,480H70.6C51.5,480,36,463.9,36,444V308c0-19.9,15.5-36,34.6-36h130.8
		c19.1,0,34.6,16.1,34.6,36v136C236,463.9,220.5,480,201.4,480z"/>
	<path id="svg_4" class="st1" d="M441.4,480H310.6c-19.1,0-34.6-16.1-34.6-36V308c0-19.9,15.5-36,34.6-36h130.8
		c19.1,0,34.6,16.1,34.6,36v136C476,463.9,460.5,480,441.4,480z"/>
</g>
</svg>
