<svg xmlns="http://www.w3.org/2000/svg" width="512" height="512"><rect id="backgroundrect" width="100%" height="100%" x="0" y="0" fill="none" stroke="none"/><title>ionicons-v5-o</title><g class="currentLayer" style=""><title>Layer 1</title><path d="M160,256a16,16,0,0,1,16-16H320V136c0-32-33.79-56-64-56H104a56.06,56.06,0,0,0-56,56V376a56.06,56.06,0,0,0,56,56H264a56.06,56.06,0,0,0,56-56V272H176A16,16,0,0,1,160,256Z" id="svg_1" class="" fill="#ddefdb" fill-opacity="1"/><path d="M459.31,244.69l-80-80a16,16,0,0,0-22.62,22.62L409.37,240H320v32h89.37l-52.68,52.69a16,16,0,1,0,22.62,22.62l80-80a16,16,0,0,0,0-22.62Z" id="svg_2" class="selected" fill="#ddefdb" fill-opacity="1"/></g></svg>