<svg xmlns="http://www.w3.org/2000/svg" width="512" height="512" style=""><rect id="backgroundrect" width="100%" height="100%" x="0" y="0" fill="none" stroke="none"/><title>ionicons-v5-g</title><g class="currentLayer" style=""><title>Layer 1</title><line x1="432.5813903808594" y1="400" x2="96.5813980102539" y2="64" style="fill: none; stroke-linecap: round; stroke-miterlimit: 10; stroke-width: 32px;" id="svg_1" class="" stroke="#56ae4d" stroke-opacity="1"/><path d="M400,240V208.45c0-8.61-6.62-16-15.23-16.43A16,16,0,0,0,368,208v32a111.68,111.68,0,0,1-2.68,24.38,2,2,0,0,0,.53,1.84l22.59,22.59a2,2,0,0,0,3.29-.72A143.27,143.27,0,0,0,400,240Z" id="svg_2" class="" fill-opacity="1" fill="#56ae4d"/><path d="M256.5813953280449,352 A112.36,112.36 0 0 1 144.5813953280449,240 V208.45 c0,-8.61 -6.62,-16 -15.23,-16.43 A16,16 0 0 0 112.58139532804489,208 v32 c0,74 56.1,135.12 128,143.11 V432 H193.03139532804488 c-8.61,0 -16,6.62 -16.43,15.23 A16,16 0 0 0 192.5813953280449,464 H320.1313953280449 c8.61,0 16,-6.62 16.43,-15.23 A16,16 0 0 0 320.5813953280449,432 H272.5813953280449 V383.11 a143.08,143.08 0 0 0 52,-16.22 a4,4 0 0 0 0.91,-6.35 l-18.4,-18.39 a3,3 0 0 0 -3.41,-0.5800000000000001 A111,111 0 0 1 256.5813953280449,352 z" id="svg_3" class="" stroke="#ffffff" stroke-opacity="1" fill="#56ae4d" fill-opacity="1"/><path d="M256.5586046719551,47.41860467195511 a79.66,79.66 0 0 0 -68.47,36.57 a4,4 0 0 0 0.54,5 L332.0086046719551,232.4186046719551 a2,2 0 0 0 3.41,-1.42 V128.3286046719551 C335.4186046719551,84.41860467195511 300.4186046719551,48.01860467195511 256.5586046719551,47.41860467195511 z" id="svg_4" class="" fill-opacity="1" fill="#56ae4d"/><path d="M179.9913953280449,215 a2,2 0 0 0 -3.41,1.42 V239 a80.89,80.89 0 0 0 23.45,56.9 a78.55,78.55 0 0 0 77.8,21.19 a2,2 0 0 0 0.8600000000000001,-3.35 z" id="svg_5" class="selected" fill-opacity="1" fill="#56ae4d"/></g></svg>