<svg xmlns="http://www.w3.org/2000/svg" width="512" height="512" style=""><rect id="backgroundrect" width="100%" height="100%" x="0" y="0" fill="none" stroke="none"/><title>ionicons-v5-h</title><g class="currentLayer" style=""><title>Layer 1</title><path d="M432,176H320V64a48,48,0,0,0-48-48H80A48,48,0,0,0,32,64V480a16,16,0,0,0,16,16H152a8,8,0,0,0,8-8V416.45c0-8.61,6.62-16,15.23-16.43A16,16,0,0,1,192,416v72a8,8,0,0,0,8,8H464a16,16,0,0,0,16-16V224A48,48,0,0,0,432,176ZM98.08,431.87a16,16,0,1,1,13.79-13.79A16,16,0,0,1,98.08,431.87Zm0-80a16,16,0,1,1,13.79-13.79A16,16,0,0,1,98.08,351.87Zm0-80a16,16,0,1,1,13.79-13.79A16,16,0,0,1,98.08,271.87Zm0-80a16,16,0,1,1,13.79-13.79A16,16,0,0,1,98.08,191.87Zm0-80a16,16,0,1,1,13.79-13.79A16,16,0,0,1,98.08,111.87Zm80,240a16,16,0,1,1,13.79-13.79A16,16,0,0,1,178.08,351.87Zm0-80a16,16,0,1,1,13.79-13.79A16,16,0,0,1,178.08,271.87Zm0-80a16,16,0,1,1,13.79-13.79A16,16,0,0,1,178.08,191.87Zm0-80a16,16,0,1,1,13.79-13.79A16,16,0,0,1,178.08,111.87Zm80,320a16,16,0,1,1,13.79-13.79A16,16,0,0,1,258.08,431.87Zm0-80a16,16,0,1,1,13.79-13.79A16,16,0,0,1,258.08,351.87Zm0-80a16,16,0,1,1,13.79-13.79A16,16,0,0,1,258.08,271.87Zm0-80a16,16,0,1,1,13.79-13.79A16,16,0,0,1,258.08,191.87Zm0-80a16,16,0,1,1,13.79-13.79A16,16,0,0,1,258.08,111.87ZM444,464H320V208H432a16,16,0,0,1,16,16V460A4,4,0,0,1,444,464Z" id="svg_1" class="" fill="#ddefdb" fill-opacity="1"/><path d="M400,400a16,16,0,1,0,16,16,16,16,0,0,0-16-16Z" id="svg_2" class="" fill="#ddefdb" fill-opacity="1"/><path d="M400,320a16,16,0,1,0,16,16,16,16,0,0,0-16-16Z" id="svg_3" class="" fill="#ddefdb" fill-opacity="1"/><path d="M400,240a16,16,0,1,0,16,16,16,16,0,0,0-16-16Z" id="svg_4" class=""/><path d="M400,240 a16,16 0 1 0 16,16 a16,16 0 0 0 -16,-16 z" class="" id="svg_8" fill="#ddefdb" fill-opacity="1" stroke="#ffffff" stroke-opacity="1"/><path d="M336,400a16,16,0,1,0,16,16,16,16,0,0,0-16-16Z" id="svg_5" class="" fill="#ddefdb" fill-opacity="1"/><path d="M336,320a16,16,0,1,0,16,16,16,16,0,0,0-16-16Z" id="svg_6" class="" fill="#ddefdb" fill-opacity="1"/><path d="M336,240a16,16,0,1,0,16,16,16,16,0,0,0-16-16Z" id="svg_7" class="" stroke="#ffffff" stroke-opacity="1" fill="#ddefdb" fill-opacity="1"/></g></svg>