<svg xmlns="http://www.w3.org/2000/svg" xmlns:xlink="http://www.w3.org/1999/xlink" version="1.1" style="enable-background:new 0 0 512 512;" xml:space="preserve" width="512" height="512"><rect id="backgroundrect" width="100%" height="100%" x="0" y="0" fill="none" stroke="none"/>

<g class="currentLayer" style=""><title>Layer 1</title><path d="M400,176V64c0-26.5-21.5-48-48-48H160c-26.5,0-48,21.5-48,48v416c0,8.8,7.2,16,16,16h104c4.4,0,8-3.6,8-8v-71.5  c0-8.6,6.6-16,15.2-16.4c8.8-0.4,16.3,6.4,16.8,15.2c0,0.3,0,0.5,0,0.8v72c0,4.4,3.6,8,8,8h119.9 M178.1,431.9  c-8.8,1.1-16.8-5-17.9-13.8c-1.1-8.8,5-16.8,13.8-17.9c8.8-1.1,16.8,5,17.9,13.8c0.2,1.4,0.2,2.8,0,4.1  C190.9,425.3,185.3,430.9,178.1,431.9z M178.1,351.9c-8.8,1.1-16.8-5-17.9-13.8c-1.1-8.8,5-16.8,13.8-17.9c8.8-1.1,16.8,5,17.9,13.8  c0.2,1.4,0.2,2.8,0,4.1C190.9,345.3,185.3,350.9,178.1,351.9z M178.1,271.9c-8.8,1.1-16.8-5-17.9-13.8c-1.1-8.8,5-16.8,13.8-17.9  c8.8-1.1,16.8,5,17.9,13.8c0.2,1.4,0.2,2.8,0,4.1C190.9,265.3,185.3,270.9,178.1,271.9z M178.1,191.9c-8.8,1.1-16.8-5-17.9-13.8  c-1.1-8.8,5-16.8,13.8-17.9c8.8-1.1,16.8,5,17.9,13.8c0.2,1.4,0.2,2.8,0,4.1C190.9,185.3,185.3,190.9,178.1,191.9z M178.1,111.9  c-8.8,1.1-16.8-5-17.9-13.8c-1.1-8.8,5-16.8,13.8-17.9c8.8-1.1,16.8,5,17.9,13.8c0.2,1.4,0.2,2.8,0,4.1  C190.9,105.3,185.3,110.9,178.1,111.9z M258.1,351.9c-8.8,1.1-16.8-5-17.9-13.8c-1.1-8.8,5-16.8,13.8-17.9c8.8-1.1,16.8,5,17.9,13.8  c0.2,1.4,0.2,2.8,0,4.1C270.9,345.3,265.3,350.9,258.1,351.9z M258.1,271.9c-8.8,1.1-16.8-5-17.9-13.8c-1.1-8.8,5-16.8,13.8-17.9  c8.8-1.1,16.8,5,17.9,13.8c0.2,1.4,0.2,2.8,0,4.1C270.9,265.3,265.3,270.9,258.1,271.9z M258.1,191.9c-8.8,1.1-16.8-5-17.9-13.8  s5-16.8,13.8-17.9s16.8,5,17.9,13.8c0.2,1.4,0.2,2.8,0,4.1C270.9,185.3,265.3,190.9,258.1,191.9z M258.1,111.9  c-8.8,1.1-16.8-5-17.9-13.8s5-16.8,13.8-17.9c8.8-1.1,16.8,5,17.9,13.8c0.2,1.4,0.2,2.8,0,4.1C270.9,105.3,265.3,110.9,258.1,111.9z   M338.1,431.9c-8.8,1.1-16.8-5-17.9-13.8c-1.1-8.8,5-16.8,13.8-17.9c8.8-1.1,16.8,5,17.9,13.8c0.2,1.4,0.2,2.8,0,4.1  C350.9,425.3,345.3,430.9,338.1,431.9L338.1,431.9z M338.1,351.9c-8.8,1.1-16.8-5-17.9-13.8c-1.1-8.8,5-16.8,13.8-17.9  c8.8-1.1,16.8,5,17.9,13.8c0.2,1.4,0.2,2.8,0,4.1C350.9,345.3,345.3,350.9,338.1,351.9L338.1,351.9z M338.1,271.9  c-8.8,1.1-16.8-5-17.9-13.8c-1.1-8.8,5-16.8,13.8-17.9c8.8-1.1,16.8,5,17.9,13.8c0.2,1.4,0.2,2.8,0,4.1  C350.9,265.3,345.3,270.9,338.1,271.9L338.1,271.9z M338.1,191.9c-8.8,1.1-16.8-5-17.9-13.8c-1.1-8.8,5-16.8,13.8-17.9  c8.8-1.1,16.8,5,17.9,13.8c0.2,1.4,0.2,2.8,0,4.1C350.9,185.3,345.3,190.9,338.1,191.9L338.1,191.9z M338.1,111.9  c-8.8,1.1-16.8-5-17.9-13.8c-1.1-8.8,5-16.8,13.8-17.9c8.8-1.1,16.8,5,17.9,13.8c0.2,1.4,0.2,2.8,0,4.1  C350.9,105.3,345.3,110.9,338.1,111.9L338.1,111.9z M400,464V208" id="svg_1" class="selected" fill-opacity="1" fill="#ddefdb"/></g></svg>