<svg xmlns="http://www.w3.org/2000/svg" width="26.623" height="25.062" viewBox="0 0 26.623 25.062">
  <g id="Group_1745" data-name="Group 1745" transform="translate(-453.631 -1169.25)">
    <path id="warning" d="M72.879,86.391l-10.554-19.6a1.981,1.981,0,0,0-3.489,0l-10.553,19.6a1.982,1.982,0,0,0,1.742,2.921H71.134a1.982,1.982,0,0,0,1.745-2.921Z" transform="translate(406.362 1104.25)" fill="none" stroke="rgba(63,164,74,0.9)" stroke-width="1.5"/>
    <path id="warning-2" data-name="warning" d="M51.015,88.573l-2.833,5.3a1.142,1.142,0,0,0,1,1.683h19.2A1.142,1.142,0,0,0,69.369,95C69.576,94.653,51.015,88.573,51.015,88.573Z" transform="translate(408.341 1096.57)" fill="rgba(86,174,77,0.9)"/>
    <path id="arrow-forward-outline_1_" data-name="arrow-forward-outline (1)" d="M2.727,0,5.065,2.337,2.727,4.675M4.74,2.337H0" transform="translate(463.507 1178.719) rotate(20)" fill="none" stroke="rgba(63,164,74,0.9)" stroke-linecap="round" stroke-linejoin="round" stroke-width="1.5"/>
  </g>
</svg>
