<svg xmlns="http://www.w3.org/2000/svg" width="512" height="512" style=""><rect id="backgroundrect" width="100%" height="100%" x="0" y="0" fill="none" stroke="none"/><title>ionicons-v5-q</title><g class="currentLayer" style=""><title>Layer 1</title><path d="M426.2813953280449,118.25 A240,240 0 0 0 76.90139532804488,447 l0.18000000000000002,0.2 c0.33000000000000007,0.35000000000000003 0.6400000000000001,0.7100000000000001 1,1.05 c0.7400000000000001,0.8400000000000001 1.58,1.79 2.5700000000000003,2.7800000000000002 a41.17,41.17 0 0 0 60.36,-0.42000000000000004 a157.13,157.13 0 0 1 231.26,0 a41.18,41.18 0 0 0 60.65,0.06000000000000001 l3.21,-3.5 l0.18000000000000002,-0.2 a239.93,239.93 0 0 0 -10,-328.76 zM240.5813953280449,128 a16,16 0 0 1 32,0 v32 a16,16 0 0 1 -32,0 zM128.5813953280449,304 H96.58139532804489 a16,16 0 0 1 0,-32 h32 a16,16 0 0 1 0,32 zm48.8,-95.2 a16,16 0 0 1 -22.62,0 l-22.63,-22.62 a16,16 0 0 1 22.63,-22.63 l22.62,22.63 A16,16 0 0 1 177.3813953280449,208.8 zm149.3,23.1 l-47.5,75.5 a31,31 0 0 1 -7,7 a30.11,30.11 0 0 1 -35,-49 l75.5,-47.5 a10.23,10.23 0 0 1 11.7,0 A10.06,10.06 0 0 1 326.6813953280449,231.9 zm31.72,-23.1 a16,16 0 0 1 -22.62,-22.62 l22.62,-22.63 a16,16 0 0 1 22.63,22.63 zM424.2813953280449,436.4 h0 zM416.5813953280449,304 H384.5813953280449 a16,16 0 0 1 0,-32 h32 a16,16 0 0 1 0,32 z" id="svg_1" class="selected" fill-opacity="1" fill="#56ae4d"/></g></svg>