<svg xmlns="http://www.w3.org/2000/svg" width="170.239" height="160.002" viewBox="0 0 170.239 160.002">
  <path id="Subtraction_13" data-name="Subtraction 13" d="M-10033.221-291h-46.672v-37.5h-20.39v-23.768h-20.382V-376.03h-32.624l36.557-67.893a13.424,13.424,0,0,1,5.133-5.307,13.54,13.54,0,0,1,6.716-1.77,13.529,13.529,0,0,1,6.716,1.77,13.381,13.381,0,0,1,5.13,5.307l71.668,133.088a13.486,13.486,0,0,1,1.605,6.68,13.512,13.512,0,0,1-1.9,6.6,13.48,13.48,0,0,1-4.91,4.8A13.48,13.48,0,0,1-10033.221-291Zm-52.5-61.272a4.573,4.573,0,0,0-4.567,4.567,4.574,4.574,0,0,0,4.567,4.57,4.574,4.574,0,0,0,4.567-4.57A4.573,4.573,0,0,0-10085.721-352.269Zm-.059-41.982a5,5,0,0,0-3.558,1.55,4.992,4.992,0,0,0-1.355,3.634l1.313,27.855a3.659,3.659,0,0,0,3.654,3.654,3.659,3.659,0,0,0,3.654-3.654l1.313-27.865-.011.013a4.979,4.979,0,0,0-1.373-3.655,5,5,0,0,0-3.591-1.532ZM-10089.892-291h-86.674a13.511,13.511,0,0,1-6.634-1.762,13.505,13.505,0,0,1-4.9-4.8,13.478,13.478,0,0,1-1.9-6.6,13.506,13.506,0,0,1,1.6-6.675l29.722-55.2h28.006v13.766l0,10h20.388V-328.5l0,10h20.393V-291Z" transform="translate(10190 450.999)" fill="#fff"/>
</svg>
