<svg xmlns="http://www.w3.org/2000/svg" width="60" height="56.129" viewBox="0 0 60 56.129">
  <path id="Subtraction_20" data-name="Subtraction 20" d="M-10134.744-394.87h-16.449v-13.155h-7.187v-8.338h-7.183V-424.7h-11.5l12.885-23.817a4.729,4.729,0,0,1,1.809-1.862A4.8,4.8,0,0,1-10160-451a4.784,4.784,0,0,1,2.367.621,4.7,4.7,0,0,1,1.809,1.862l25.259,46.687a4.688,4.688,0,0,1,.565,2.343,4.715,4.715,0,0,1-.67,2.315,4.738,4.738,0,0,1-1.73,1.685A4.768,4.768,0,0,1-10134.744-394.87Zm-18.5-21.494a1.608,1.608,0,0,0-1.609,1.6,1.609,1.609,0,0,0,1.609,1.6,1.607,1.607,0,0,0,1.609-1.6A1.607,1.607,0,0,0-10153.248-416.364Zm-.021-14.727a1.766,1.766,0,0,0-1.253.544,1.744,1.744,0,0,0-.479,1.275l.463,9.772a1.286,1.286,0,0,0,1.287,1.282,1.287,1.287,0,0,0,1.289-1.282l.462-9.775,0,0a1.736,1.736,0,0,0-.483-1.282,1.764,1.764,0,0,0-1.266-.537Zm-1.45,36.222h-30.547a4.781,4.781,0,0,1-2.338-.618,4.748,4.748,0,0,1-1.728-1.685,4.723,4.723,0,0,1-.669-2.315,4.722,4.722,0,0,1,.565-2.342l10.476-19.363h9.87v8.338h7.186v8.337h7.186v9.646h0Z" transform="translate(10190.001 450.999)" fill="#56ae4d"/>
</svg>
