<svg xmlns="http://www.w3.org/2000/svg" width="51.694" height="57.403" viewBox="0 0 51.694 57.403">
  <g id="Group_1309" data-name="Group 1309" transform="translate(-1534.163 -831.207)">
    <g id="Ellipse_64" data-name="Ellipse 64" transform="translate(1538.053 837.603)" fill="none" stroke="#a5a5a6" stroke-width="2">
      <ellipse cx="21.967" cy="22.273" rx="21.967" ry="22.273" stroke="none"/>
      <ellipse cx="21.967" cy="22.273" rx="20.967" ry="21.273" fill="none"/>
    </g>
    <g id="Union_16" data-name="Union 16" transform="translate(-4078.548 3739.7)" fill="none">
      <path d="M5625.532-2852.066l1.859-4.379a25.849,25.849,0,0,1-14.681-23.317,25.847,25.847,0,0,1,25.847-25.847,25.794,25.794,0,0,1,9.016,1.616l1.91-4.5,2.3.977-1.914,4.508a25.848,25.848,0,0,1,14.533,23.246,25.847,25.847,0,0,1-25.847,25.847,25.806,25.806,0,0,1-8.862-1.559l-1.862,4.385Z" stroke="none"/>
      <path d="M 5638.5576171875 -2855.91552734375 C 5641.77783203125 -2855.91552734375 5644.900390625 -2856.545654296875 5647.83935546875 -2857.78857421875 C 5650.6787109375 -2858.98974609375 5653.22900390625 -2860.70947265625 5655.419921875 -2862.900146484375 C 5657.61083984375 -2865.0908203125 5659.33056640625 -2867.641357421875 5660.53173828125 -2870.480712890625 C 5661.7744140625 -2873.41943359375 5662.40478515625 -2876.54248046875 5662.40478515625 -2879.7626953125 C 5662.40478515625 -2884.31884765625 5661.1162109375 -2888.746826171875 5658.6787109375 -2892.568359375 C 5656.30419921875 -2896.291259765625 5652.95556640625 -2899.27978515625 5648.9951171875 -2901.2109375 L 5647.955078125 -2901.718017578125 L 5646.8759765625 -2902.11962890625 C 5644.21875 -2903.1083984375 5641.42041015625 -2903.60986328125 5638.5576171875 -2903.60986328125 C 5635.33740234375 -2903.60986328125 5632.21435546875 -2902.979736328125 5629.27587890625 -2901.73681640625 C 5626.43603515625 -2900.535888671875 5623.8857421875 -2898.816162109375 5621.69482421875 -2896.62548828125 C 5619.50439453125 -2894.434814453125 5617.78466796875 -2891.88427734375 5616.58349609375 -2889.044677734375 C 5615.3408203125 -2886.10595703125 5614.71044921875 -2882.983154296875 5614.71044921875 -2879.7626953125 C 5614.71044921875 -2875.179931640625 5616.0126953125 -2870.72998046875 5618.47705078125 -2866.8935546875 C 5620.8779296875 -2863.1552734375 5624.259765625 -2860.165771484375 5628.25634765625 -2858.24853515625 L 5629.2978515625 -2857.748779296875 L 5630.380859375 -2857.353759765625 C 5632.99609375 -2856.3994140625 5635.74755859375 -2855.91552734375 5638.5576171875 -2855.91552734375 M 5627.83349609375 -2851.089599609375 L 5625.53173828125 -2852.066162109375 L 5627.39111328125 -2856.4453125 C 5618.70654296875 -2860.611572265625 5612.71044921875 -2869.486572265625 5612.71044921875 -2879.7626953125 C 5612.71044921875 -2894.038330078125 5624.2822265625 -2905.60986328125 5638.5576171875 -2905.60986328125 C 5641.72900390625 -2905.60986328125 5644.76611328125 -2905.038818359375 5647.57373046875 -2903.993896484375 L 5649.48388671875 -2908.492919921875 L 5651.78564453125 -2907.516357421875 L 5649.87158203125 -2903.008544921875 C 5658.47607421875 -2898.81298828125 5664.40478515625 -2889.98046875 5664.40478515625 -2879.7626953125 C 5664.40478515625 -2865.4873046875 5652.83203125 -2853.91552734375 5638.5576171875 -2853.91552734375 C 5635.4443359375 -2853.91552734375 5632.45947265625 -2854.46630859375 5629.6953125 -2855.474853515625 L 5627.83349609375 -2851.089599609375 Z" stroke="none" fill="#fff"/>
    </g>
  </g>
</svg>
