<svg xmlns="http://www.w3.org/2000/svg" width="25" height="23.497" viewBox="0 0 25 23.497">
  <path id="warning" d="M72.81,86.334,62.285,66.789a1.976,1.976,0,0,0-3.48,0L48.282,86.334a1.976,1.976,0,0,0,1.737,2.913h21.05a1.976,1.976,0,0,0,1.74-2.913Zm-12.264-.113a1.235,1.235,0,1,1,1.235-1.235A1.235,1.235,0,0,1,60.546,86.221ZM61.887,73.8l-.354,7.534a.988.988,0,0,1-1.976,0L59.2,73.8h0a1.342,1.342,0,0,1,1.328-1.4h.013a1.342,1.342,0,0,1,1.342,1.4Z" transform="translate(-48.046 -65.75)" fill="#fff"/>
</svg>
