<svg xmlns="http://www.w3.org/2000/svg" xmlns:xlink="http://www.w3.org/1999/xlink" version="1.1" width="439.963" height="439.963" style="" xml:space="preserve"><rect id="backgroundrect" width="100%" height="100%" x="0" y="0" fill="none" stroke="none"/>
















<g class="currentLayer" style=""><title>Layer 1</title>
	<path d="M422.45328394031526,134.94728394031526 c-11.611,-27.121 -27.172,-50.487 -46.686,-70.089 c-19.502,-19.604 -42.824,-35.215 -69.948,-46.825 C278.70528394031527,6.423283940315247 250.29128394031525,0.6172839403152466 220.60228394031526,0.6172839403152466 c-29.692,0 -58.101,5.809 -85.224,17.416 c-27.124,11.61 -50.441,27.218 -69.949,46.825 C45.920283940315244,84.46028394031525 30.357283940315245,107.82628394031525 18.747283940315246,134.94728394031526 C7.1382839403152465,162.07028394031525 1.3322839403152467,190.57528394031524 1.3322839403152467,220.45528394031524 c0,29.881 5.806,58.432 17.415,85.648 c11.613,27.223 27.172,50.627 46.682,70.236 c19.508,19.605 42.825,35.217 69.949,46.818 c27.123,11.615 55.531,17.422 85.224,17.422 c29.693,0 58.103,-5.807 85.217,-17.422 c27.124,-11.607 50.446,-27.213 69.948,-46.818 c19.514,-19.609 35.074,-43.014 46.686,-70.236 c11.611,-27.217 17.412,-55.768 17.412,-85.648 C439.8612839403153,190.57528394031524 434.06428394031525,162.07028394031525 422.45328394031526,134.94728394031526 zM90.69528394031525,305.8152839403152 c-16.94,-26.066 -25.41,-54.532 -25.406,-85.364 c0,-28.167 6.949,-54.243 20.843,-78.227 c13.891,-23.982 32.738,-42.919 56.527,-56.818 c23.791,-13.894 49.772,-20.839 77.943,-20.839 c31.411,0 59.952,8.661 85.652,25.981 L90.69528394031525,305.8152839403152 zM363.6302839403152,281.12828394031527 c-8.187,19.318 -19.219,35.927 -33.113,49.823 c-13.9,13.895 -30.409,24.982 -49.539,33.254 c-19.13,8.277 -39.259,12.422 -60.382,12.422 c-30.452,0 -58.717,-8.466 -84.794,-25.413 l215.273,-214.985 c16.566,25.505 24.838,53.581 24.838,84.223 C375.90828394031524,241.58228394031525 371.8152839403152,261.80428394031526 363.6302839403152,281.12828394031527 z" id="svg_2" class="" stroke="#ffffff" stroke-opacity="1" fill="#ffffff" fill-opacity="1"/>
<g id="svg_3">
</g><g id="svg_4">
</g><g id="svg_5">
</g><g id="svg_6">
</g><g id="svg_7">
</g><g id="svg_8">
</g><g id="svg_9">
</g><g id="svg_10">
</g><g id="svg_11">
</g><g id="svg_12">
</g><g id="svg_13">
</g><g id="svg_14">
</g><g id="svg_15">
</g><g id="svg_16">
</g><g id="svg_17">
</g></g></svg>