<svg xmlns="http://www.w3.org/2000/svg" width="177.932" height="122.827" viewBox="0 0 177.932 122.827">
  <g id="Group_1060" data-name="Group 1060" opacity="0.75">
    <g id="Lag_1" data-name="Lag 1" transform="translate(0 27.257)">
      <path id="Path_1105" data-name="Path 1105" d="M173.422,1826.283q0,2.193.047,4.2a33.663,33.663,0,0,1-.186,4.253,5.247,5.247,0,0,1-.633,2.058,4.478,4.478,0,0,1-1.518,1.5,4.163,4.163,0,0,1-2.055.77c-.686.046-1.4.072-2.151.072l6.358,11.449H165.8l-6.358-11.449h-5.095v11.449H147.81v-32.716h20.332a5.37,5.37,0,0,1,2.077.4,4.851,4.851,0,0,1,1.661,1.121A5.638,5.638,0,0,1,173,1821.07a5.09,5.09,0,0,1,.422,2.08Zm-6.684,6.308v-8.18H154.351v8.18Z" transform="translate(-147.81 -1782.337)" fill="#fff"/>
      <path id="Path_1106" data-name="Path 1106" d="M977.807,1847.541q0,.889.021,1.707a7.039,7.039,0,0,1-.115,1.543,4.747,4.747,0,0,1-.54,1.426,5.234,5.234,0,0,1-1.239,1.4,5.822,5.822,0,0,1-1.658.938,6.893,6.893,0,0,1-1.636.348,11.378,11.378,0,0,1-1.658.024c-.562-.031-1.124-.047-1.682-.047q-1.733,0-3.412.022t-3.412.024c-1.093,0-2.177.006-3.251.025a18.745,18.745,0,0,1-3.294-.258,5.715,5.715,0,0,1-1.682-.537,4.749,4.749,0,0,1-1.379-1.031,4.661,4.661,0,0,1-.913-1.425,4.5,4.5,0,0,1-.326-1.73v-22.107a6.1,6.1,0,0,1,.186-1.518,4.71,4.71,0,0,1,.63-1.4,6.648,6.648,0,0,1,1.285-1.379,6.759,6.759,0,0,1,1.615-.958,6.369,6.369,0,0,1,1.54-.4,10.657,10.657,0,0,1,1.589-.069c.547.016,1.1.022,1.661.022H970.21a21,21,0,0,1,3.344.283,5.5,5.5,0,0,1,1.658.537,5.07,5.07,0,0,1,1.357,1.006,4.352,4.352,0,0,1,.91,1.425,4.575,4.575,0,0,1,.329,1.7v20.425Zm-6.544-18.836H958.177v19.631h13.086Z" transform="translate(-921.908 -1786.445)" fill="#fff"/>
      <path id="Path_1107" data-name="Path 1107" d="M1819.543,1824.737a27.224,27.224,0,0,1,.115,4.346q-.117,2.151-.115,4.35a4.985,4.985,0,0,1-.491,2.334,1.729,1.729,0,0,0,0,3.459,5.124,5.124,0,0,1,.491,2.384v6.544a4.639,4.639,0,0,1-.4,1.916,5.5,5.5,0,0,1-1.052,1.568,4.62,4.62,0,0,1-1.543,1.049,4.85,4.85,0,0,1-1.916.376h-21.266v-32.72h19.816c.748,0,1.465.026,2.151.073a4.13,4.13,0,0,1,2.009.722,4.816,4.816,0,0,1,1.568,1.543,5.263,5.263,0,0,1,.63,2.056m-6.544,8.7v-6.545h-13.086v6.545H1813Zm0,13.085v-6.544h-13.086v6.544Z" transform="translate(-1732.517 -1784.72)" fill="#fff"/>
      <path id="Path_1108" data-name="Path 1108" d="M977.807,884.217c0,.593.006,1.161.021,1.708a7.034,7.034,0,0,1-.115,1.543,4.754,4.754,0,0,1-.54,1.425,5.241,5.241,0,0,1-1.239,1.4,5.816,5.816,0,0,1-1.658.938,6.867,6.867,0,0,1-1.636.348,11.258,11.258,0,0,1-1.658.025c-.562-.031-1.124-.046-1.682-.046q-1.733,0-3.412.021t-3.412.025c-1.093,0-2.177.006-3.251.025a18.757,18.757,0,0,1-3.294-.258,5.737,5.737,0,0,1-1.682-.537,4.744,4.744,0,0,1-1.379-1.031,4.662,4.662,0,0,1-.913-1.425,4.5,4.5,0,0,1-.326-1.729V864.54a6.105,6.105,0,0,1,.186-1.518,4.719,4.719,0,0,1,.63-1.4,6.646,6.646,0,0,1,1.285-1.378,6.767,6.767,0,0,1,1.615-.96,6.4,6.4,0,0,1,1.54-.4,10.691,10.691,0,0,1,1.589-.068c.547.015,1.1.022,1.661.022H970.21a21.023,21.023,0,0,1,3.344.282,5.49,5.49,0,0,1,1.658.537,5.072,5.072,0,0,1,1.357,1.006,4.354,4.354,0,0,1,.91,1.425,4.579,4.579,0,0,1,.329,1.7v20.425Zm-6.544-18.835H958.177v19.63h13.086Z" transform="translate(-921.908 -858.745)" fill="#fff"/>
      <path id="Path_1109" data-name="Path 1109" d="M173.984,871.585v12.632c0,.593.006,1.161.022,1.708a7.07,7.07,0,0,1-.115,1.543,4.75,4.75,0,0,1-.54,1.425,5.234,5.234,0,0,1-1.239,1.4,5.816,5.816,0,0,1-1.658.938,6.867,6.867,0,0,1-1.636.348,11.262,11.262,0,0,1-1.658.025c-.562-.031-1.124-.046-1.683-.046q-1.732,0-3.412.021t-3.412.025c-1.093,0-2.176.006-3.25.025a18.754,18.754,0,0,1-3.294-.258,5.735,5.735,0,0,1-1.683-.537,4.746,4.746,0,0,1-1.378-1.031,4.661,4.661,0,0,1-.913-1.425,4.5,4.5,0,0,1-.326-1.729V864.54a6.089,6.089,0,0,1,.186-1.518,4.718,4.718,0,0,1,.63-1.4,6.654,6.654,0,0,1,1.285-1.378,6.772,6.772,0,0,1,1.614-.96,6.4,6.4,0,0,1,1.54-.4,10.692,10.692,0,0,1,1.589-.068c.546.015,1.1.022,1.661.022h10.071a21.025,21.025,0,0,1,3.344.282,5.494,5.494,0,0,1,1.658.537,5.077,5.077,0,0,1,1.357,1.006,4.359,4.359,0,0,1,.91,1.425,4.575,4.575,0,0,1,.329,1.7v4.637H167.44v-3.048H154.354v19.63H167.44v-6.9h-8.422v-6.523Z" transform="translate(-147.81 -858.745)" fill="#fff"/>
      <path id="Path_1110" data-name="Path 1110" d="M1819.543,861.411a27.226,27.226,0,0,1,.115,4.346q-.117,2.151-.115,4.349a4.988,4.988,0,0,1-.491,2.335,4.843,4.843,0,0,1-1.707,1.729,4.895,4.895,0,0,1,1.707,1.729,5.123,5.123,0,0,1,.491,2.384v6.544a4.637,4.637,0,0,1-.4,1.916,5.5,5.5,0,0,1-1.052,1.568,4.613,4.613,0,0,1-1.543,1.049,4.85,4.85,0,0,1-1.916.375h-21.266V857.019h19.816q1.122,0,2.151.071a4.118,4.118,0,0,1,2.009.723,4.8,4.8,0,0,1,1.568,1.543,5.26,5.26,0,0,1,.63,2.055m-6.544,8.7v-6.544h-13.086v6.544H1813Zm0,13.086v-6.544h-13.086v6.544Z" transform="translate(-1732.517 -857.019)" fill="#fff"/>
      <path id="Path_1111" data-name="Path 1111" d="M2647.88,889.737H2622.9V857.019h24.981v6.544h-18.437v6.544h15v6.542h-15v6.544h18.438Z" transform="translate(-2531.371 -857.019)" fill="#fff"/>
      <path id="Path_1112" data-name="Path 1112" d="M2651.154,1847.541c0,.593.006,1.161.025,1.707a7.046,7.046,0,0,1-.118,1.543,4.73,4.73,0,0,1-.537,1.426,5.283,5.283,0,0,1-1.238,1.4,5.845,5.845,0,0,1-1.661.938,6.84,6.84,0,0,1-1.634.348,11.408,11.408,0,0,1-1.66.024c-.562-.031-1.12-.047-1.682-.047q-1.729,0-3.413.022t-3.412.024c-1.089,0-2.173.006-3.247.025a18.751,18.751,0,0,1-3.3-.258,5.774,5.774,0,0,1-1.684-.537,4.836,4.836,0,0,1-1.378-1.031,4.731,4.731,0,0,1-.91-1.425,4.455,4.455,0,0,1-.328-1.73v-22.107a5.949,5.949,0,0,1,.189-1.518,4.565,4.565,0,0,1,.63-1.4,6.482,6.482,0,0,1,1.285-1.379,6.811,6.811,0,0,1,1.611-.958,6.4,6.4,0,0,1,1.543-.4,10.642,10.642,0,0,1,1.59-.069c.543.016,1.1.022,1.658.022h10.074a20.955,20.955,0,0,1,3.341.283,5.489,5.489,0,0,1,1.66.537,5.039,5.039,0,0,1,1.353,1.006,4.392,4.392,0,0,1,.913,1.425,4.559,4.559,0,0,1,.325,1.7v20.425Zm-6.544-18.836h-13.085v19.631h13.085Z" transform="translate(-2533.376 -1786.445)" fill="#fff"/>
      <path id="Path_1113" data-name="Path 1113" d="M3463.846,1820.359v6.545h-9.817v26.171h-6.54V1826.9h-9.817v-6.545Z" transform="translate(-3316.015 -1784.736)" fill="#fff"/>
      <path id="Path_1114" data-name="Path 1114" d="M4277.785,1835.844v9.817a4.644,4.644,0,0,1-.4,1.915,5.382,5.382,0,0,1-1.051,1.564,4.543,4.543,0,0,1-1.544,1.052,4.872,4.872,0,0,1-1.915.373h-16.359a4.878,4.878,0,0,1-1.915-.373,4.915,4.915,0,0,1-2.616-2.617,4.842,4.842,0,0,1-.376-1.915v-4.909h6.544v3.272h13.087v-6.545h-14.724a4.816,4.816,0,0,1-3.478-1.425,4.864,4.864,0,0,1-1.429-3.483v-9.813a4.842,4.842,0,0,1,.376-1.918,4.532,4.532,0,0,1,1.053-1.54,5.285,5.285,0,0,1,1.563-1.052,4.643,4.643,0,0,1,1.915-.4h16.359a4.637,4.637,0,0,1,1.915.4,5.023,5.023,0,0,1,2.6,2.592,4.643,4.643,0,0,1,.4,1.918v4.908h-6.544v-3.272h-13.087v6.541h14.723a4.63,4.63,0,0,1,1.915.4,5.143,5.143,0,0,1,1.544,1.052,5.087,5.087,0,0,1,1.051,1.543,4.635,4.635,0,0,1,.4,1.916" transform="translate(-4099.853 -1782.319)" fill="#fff"/>
    </g>
    <g id="Layer_2" data-name="Layer 2" transform="translate(71.016)">
      <path id="Path_1115" data-name="Path 1115" d="M2356.194,448.7a45.493,45.493,0,0,1,43.2,4.2,45.7,45.7,0,0,1,16.508,20.045,45.172,45.172,0,0,1,3.553,16.209h4.07a49.376,49.376,0,0,0-8.454-26.224,49.748,49.748,0,0,0-21.832-17.977,49.562,49.562,0,0,0-47.063,4.576q-1.941,1.312-3.761,2.809h6.891A45.54,45.54,0,0,1,2356.194,448.7Z" transform="translate(-2332.279 -429.175)" fill="#fff"/>
      <path id="Path_1116" data-name="Path 1116" d="M2386.286,2818.946a45.487,45.487,0,0,1-42.612-3.809h-6.834q1.912,1.589,3.967,2.98a49.562,49.562,0,0,0,55.494,0q2.052-1.386,3.967-2.98h-6.833A45.59,45.59,0,0,1,2386.286,2818.946Z" transform="translate(-2326.906 -2715.469)" fill="#fff"/>
      <path id="Path_1117" data-name="Path 1117" d="M2169.309,170.045a56.195,56.195,0,0,0-8.5-20.2,56.647,56.647,0,0,0-22.144-19.232l4-9.032-3.718-1.649-4.005,9.032a56.23,56.23,0,0,0-9.6-2.878,57.023,57.023,0,0,0-22.766,0,56.186,56.186,0,0,0-20.2,8.5,56.866,56.866,0,0,0-8.359,6.9q-.789.787-1.544,1.607h5.735a52.443,52.443,0,0,1,15.349-9.967,52.354,52.354,0,0,1,49.715,4.833,52.583,52.583,0,0,1,19,23.067,51.984,51.984,0,0,1,4.1,18.882h4.07A56.79,56.79,0,0,0,2169.309,170.045Z" transform="translate(-2072.318 -119.929)" fill="#fff"/>
      <path id="Path_1118" data-name="Path 1118" d="M2145.807,2815.137a52.471,52.471,0,0,1-15.533,10.138,52.344,52.344,0,0,1-49.713-4.834,52.825,52.825,0,0,1-6.627-5.3h-5.711q.833.908,1.7,1.777a56.547,56.547,0,0,0,14.936,10.722l-4,9.012,3.719,1.649,3.986-8.989a56.47,56.47,0,0,0,61.248-12.394q.868-.868,1.7-1.777Z" transform="translate(-2068.223 -2715.469)" fill="#fff"/>
    </g>
  </g>
</svg>
