<svg xmlns="http://www.w3.org/2000/svg" xmlns:xlink="http://www.w3.org/1999/xlink" version="1.1" style="" xml:space="preserve" width="512" height="512"><rect id="backgroundrect" width="100%" height="100%" x="0" y="0" fill="none" stroke="none"/>

<g class="currentLayer" style=""><title>Layer 1</title><g id="Group_690" class="selected" fill="#ddefdb" fill-opacity="1">
	<g id="Group_262" fill="#ddefdb" fill-opacity="1">
		<path id="Path_407" d="M219.9,400.2 v-63.4 H24.5 v-239 h304.1 V154 H346 V26 H6.9 v329.5 l36.2,43.8 c3.9,4.8 8.4,9.1 13.4,12.7 v75.7 h25.3 v-63.1 c6.8,2 13.9,3 21,3 h147.4 c7.1,0 14.2,-1 21,-3 v63.1 h25.3 v-69.4 H238 C228,418.3 220,410.2 219.9,400.2 zM176.4,50.3 c10.2,0 18.5,8.3 18.5,18.5 c0,10.2 -8.3,18.5 -18.5,18.5 c-10.2,0 -18.5,-8.3 -18.5,-18.5 C157.9,58.6 166.1,50.3 176.4,50.3 C176.4,50.3 176.4,50.3 176.4,50.3 z" fill="#ddefdb" fill-opacity="1"/>
	</g>
	<path id="Path_408" d="M488.40000038146974,162.69999980926514 H248.30000038146972 c-9.2,0 -16.7,7.5 -16.7,16.7 c0,0 0,0 0,0 v210.6 c0,9.2 7.5,16.7 16.7,16.7 l0,0 h76.6 v63.9 h14.5 v-16.6 c0,-4.3 3.5,-7.8 7.8,-7.8 l0,0 h42.4 c4.3,0 7.8,3.5 7.8,7.8 v0 V470.69999980926514 h14.5 V406.69999980926514 h76.6 c9.2,0 16.7,-7.5 16.7,-16.7 c0,0 0,0 0,0 V179.49999980926515 C505.1000003814697,170.19999980926514 497.70000038146975,162.69999980926514 488.40000038146974,162.69999980926514 C488.5000003814697,162.69999980926514 488.40000038146974,162.69999980926514 488.40000038146974,162.69999980926514 zM368.3000003814697,175.69999980926514 c6.2,-0.1 11.2,4.9 11.3,11.1 c0.1,6.2 -4.9,11.2 -11.1,11.3 c-6.2,0.1 -11.2,-4.9 -11.3,-11.1 c0,0 0,-0.1 0,-0.1 c0,-6.1 4.9,-11.1 11,-11.2 H368.3000003814697 zM257.70000038146975,206.89999980926513 h221.2 v137.3 H257.70000038146975 V206.89999980926513 z" fill="#ddefdb" fill-opacity="1"/>
</g></g></svg>