<svg xmlns="http://www.w3.org/2000/svg" width="512" height="512" style=""><rect id="backgroundrect" width="100%" height="100%" x="0" y="0" fill="none" stroke="none"/><title>ionicons-v5-i</title><g class="currentLayer" style=""><title>Layer 1</title><path d="M64,144.58479529619217 H290.75 a48,48 0 0 0 90.5,0 H448 a16,16 0 0 0 0,-32 H381.25 a48,48 0 0 0 -90.5,0 H64 a16,16 0 0 0 0,32 z" id="svg_1" class="" fill="#ffffff" fill-opacity="1"/><path d="M448,368H381.25a48,48,0,0,0-90.5,0H64a16,16,0,0,0,0,32H290.75a48,48,0,0,0,90.5,0H448a16,16,0,0,0,0-32Z" id="svg_2" class="selected" fill="#ffffff" fill-opacity="1"/><path d="M448,240H221.25a48,48,0,0,0-90.5,0H64a16,16,0,0,0,0,32h66.75a48,48,0,0,0,90.5,0H448a16,16,0,0,0,0-32Z" id="svg_3" class="" fill="#ffffff" fill-opacity="1"/></g></svg>