<svg id="Group_261" data-name="Group 261" xmlns="http://www.w3.org/2000/svg" width="78.65" height="38.155" viewBox="0 0 78.65 38.155">
  <path id="Path_375" data-name="Path 375" d="M0,263.723c.705,0,1.412,0,2.117.006a2.709,2.709,0,0,1,.586.073,1.2,1.2,0,0,1,.935.92,2.721,2.721,0,0,1,.08.624c.01.574,0,1.147,0,1.72a.9.9,0,0,1-.71.965.333.333,0,0,0-.156.091l.2.074a1.451,1.451,0,0,1,.537.325.822.822,0,0,1,.256.583q.005,1.256,0,2.511a1.345,1.345,0,0,1-.06.35,1.118,1.118,0,0,1-1.131.823c-.244.009-.488.006-.732.006L0,272.789Zm1.255,4.936v3.031h.94c.308,0,.432-.126.433-.453v-1.9a1.55,1.55,0,0,0-.006-.157.514.514,0,0,0-.417-.489,4.582,4.582,0,0,0-.949-.037Zm0-1.09c.282-.014.54-.01.792-.044a.5.5,0,0,0,.448-.479,1.445,1.445,0,0,0,.009-.178q0-.682,0-1.362a1.368,1.368,0,0,0-.055-.368.381.381,0,0,0-.342-.29c-.28-.018-.561,0-.851,0Z" transform="translate(0 -241.968)" fill="#fff"/>
  <path id="Path_376" data-name="Path 376" d="M912,271.618a.584.584,0,0,0-.037.1,1.109,1.109,0,0,1-.784.952,1.741,1.741,0,0,1-.485.085c-.336.012-.673.011-1.009,0a1.244,1.244,0,0,1-1.282-1.087,2.38,2.38,0,0,1-.046-.372c-.007-.206,0-.421,0-.628a5.833,5.833,0,0,1,1.208-.011c0,.117.012.241.006.363-.025.459.144.664.649.638h.04c.422.022.541-.2.546-.535.007-.508,0-1.015,0-1.523a1.413,1.413,0,0,0-.018-.156.323.323,0,0,0-.151-.244c-.1-.069-.206-.141-.316-.206-.39-.221-.782-.438-1.173-.658-.1-.055-.192-.115-.29-.17a.952.952,0,0,1-.5-.823c0-.06-.006-.118-.007-.178,0-.666-.007-1.337,0-2a2.354,2.354,0,0,1,.1-.617,1.117,1.117,0,0,1,.926-.813,2.665,2.665,0,0,1,.432-.04c.27-.006.542-.012.811,0a2.146,2.146,0,0,1,.544.087,1.116,1.116,0,0,1,.794.967.929.929,0,0,0,.038.127v1.267l-1.2-.016v-.692a1.494,1.494,0,0,0-.02-.255.424.424,0,0,0-.434-.381,2.994,2.994,0,0,0-.317,0,.423.423,0,0,0-.455.444c-.012.56,0,1.121,0,1.681a.355.355,0,0,0,.171.316c.111.071.22.146.335.206.329.181.662.356.992.536.11.06.218.124.326.187a1.014,1.014,0,0,1,.6.705Z" transform="translate(-833.35 -241.944)" fill="#fff"/>
  <path id="Path_378" data-name="Path 378" d="M523.369,429.075c0-.138.011-.276.011-.411,0-.567-.012-1.131.005-1.7a.587.587,0,0,0-.6-.617h-.574a.973.973,0,0,0-.233.04.466.466,0,0,0-.392.514v2.174h-.317q0-.908.007-1.816c0-.151-.005-.3,0-.454a.348.348,0,0,0-.206-.336,1.191,1.191,0,0,0-.391-.119,5.182,5.182,0,0,0-.592,0,.579.579,0,0,0-.617.638c.018.7.009,1.4.012,2.093h-.317c0-.731-.01-1.462,0-2.193a.768.768,0,0,1,.712-.767,7.284,7.284,0,0,1,.985,0,.807.807,0,0,1,.576.3.625.625,0,0,0,.075-.059.769.769,0,0,1,.528-.239,7.557,7.557,0,0,1,.809-.01.8.8,0,0,1,.845.884v1.936c0,.052-.007.1-.011.157Z" transform="translate(-476.297 -390.929)" fill="#fff"/>
  <path id="Path_379" data-name="Path 379" d="M588.443,428.964c-.066-.026-.133-.049-.2-.076a2.237,2.237,0,0,1-.325-.14.651.651,0,0,1-.329-.574v-.456a.708.708,0,0,1,.43-.657,1.427,1.427,0,0,1,.654-.127h1.833a.514.514,0,0,0-.364-.658,1.479,1.479,0,0,0-.371-.044h-2.152v-.246a.968.968,0,0,1,.131-.016c.686,0,1.373,0,2.056.013a1.8,1.8,0,0,1,.43.055.747.747,0,0,1,.59.707c.017.494.011.989,0,1.483a.7.7,0,0,1-.547.649c-.085.031-.172.059-.258.087Zm2.083-1.777h-2a.879.879,0,0,0-.324.08.442.442,0,0,0-.288.411c-.005.178,0,.356,0,.534a.351.351,0,0,0,.212.33,1.191,1.191,0,0,0,.551.139h1.149a1.447,1.447,0,0,0,.37-.052.411.411,0,0,0,.331-.4c.01-.336,0-.679,0-1.043Z" transform="translate(-539.075 -390.82)" fill="#fff"/>
  <path id="Path_380" data-name="Path 380" d="M308.762,428.972c-.06-.024-.121-.043-.179-.071a3.181,3.181,0,0,1-.368-.186.507.507,0,0,1-.248-.429c-.005-.54-.015-1.081,0-1.621A.8.8,0,0,1,308.7,426a3.769,3.769,0,0,1,.434-.025c.383,0,.765.005,1.148.012a.9.9,0,0,1,.254.031.76.76,0,0,1,.617.75c.006.468,0,.937,0,1.4a.745.745,0,0,1-.555.714c-.072.029-.145.056-.217.083Zm-.487-1.5h0v.732a.4.4,0,0,0,.206.361.812.812,0,0,0,.449.13H310.2a.929.929,0,0,0,.309-.056.454.454,0,0,0,.339-.456c-.006-.468,0-.937,0-1.406a.5.5,0,0,0-.36-.491.768.768,0,0,0-.271-.043h-1.268a.982.982,0,0,0-.254.033.491.491,0,0,0-.411.544c-.008.215-.006.433-.006.65Z" transform="translate(-282.532 -390.827)" fill="#fff"/>
  <path id="Path_381" data-name="Path 381" d="M415.881,418.743c0-.652,0-1.3-.007-1.954a2.513,2.513,0,0,0-.027-.333.425.425,0,0,0-.315-.368,1.357,1.357,0,0,0-.367-.07c-.617-.007-1.226,0-1.838,0a.482.482,0,0,0-.082.02v2.5c0,.071-.012.143-.019.214h-.278a1.871,1.871,0,0,1-.02-.194v-3.722h.308v.908c.088,0,.158.009.228.01.528,0,1.054,0,1.582.014a2.519,2.519,0,0,1,.529.059.706.706,0,0,1,.592.694c.006.066.007.132.007.2v1.818a2.144,2.144,0,0,1-.02.214Z" transform="translate(-378.833 -380.597)" fill="#fff"/>
  <path id="Path_382" data-name="Path 382" d="M690.241,428.936l-.011-.264c.081,0,.145-.009.206-.009h1.683a1.93,1.93,0,0,0,.411-.043.388.388,0,0,0,.326-.411c0-.1,0-.2-.008-.3a.32.32,0,0,0-.253-.315,1.208,1.208,0,0,0-.292-.043c-.336-.005-.674.005-1.01-.006a2.452,2.452,0,0,1-.546-.076.663.663,0,0,1-.535-.747.678.678,0,0,1,.54-.708,2.832,2.832,0,0,1,.626-.068c.568-.009,1.131,0,1.7,0,.032,0,.064.006.111.011v.251h-2.058a.72.72,0,0,0-.411.1.4.4,0,0,0-.194.326c-.029.411.128.609.545.628.383.017.765,0,1.148.011a1.98,1.98,0,0,1,.431.046.647.647,0,0,1,.52.658c0,.073,0,.145,0,.218a.668.668,0,0,1-.5.661c-.074.025-.146.052-.219.079Z" transform="translate(-633.225 -390.792)" fill="#fff"/>
  <path id="Path_383" data-name="Path 383" d="M643.3,429.155a2.129,2.129,0,0,1-.02-.214c0-.632-.01-1.266,0-1.9a.525.525,0,0,0-.528-.606,1.763,1.763,0,0,0-.237-.013h-1.049a1.72,1.72,0,0,0-.3.024.488.488,0,0,0-.468.555v1.958a1.776,1.776,0,0,1-.02.194H640.4a1.871,1.871,0,0,1-.02-.194v-1.919a.756.756,0,0,1,.783-.851c.546-.025,1.094-.007,1.645,0a1.037,1.037,0,0,1,.29.058.617.617,0,0,1,.493.637c.01.732,0,1.464,0,2.2a.323.323,0,0,1-.018.076Z" transform="translate(-587.51 -391.009)" fill="#fff"/>
  <path id="Path_384" data-name="Path 384" d="M466.595,429.074l-.28-.082a.761.761,0,0,1-.608-.757c-.011-.686,0-1.372,0-2.057a.493.493,0,0,1,.018-.085h.3c0,.073.009.142.009.212,0,.617.015,1.228,0,1.841a.578.578,0,0,0,.61.645c.389.013.778.01,1.168.007a2.2,2.2,0,0,0,.411-.034.536.536,0,0,0,.467-.571v-2.1h.3c0,.067.01.13.01.193,0,.626-.008,1.253,0,1.88a.8.8,0,0,1-.655.842c-.068.02-.134.045-.206.069Z" transform="translate(-427.25 -390.928)" fill="#fff"/>
  <path id="Path_385" data-name="Path 385" d="M286.008,418.647c0-.072.011-.144.011-.216V415.66a.823.823,0,0,1,.885-.933c.151-.007.3,0,.475,0l.011.242h-.223a2.553,2.553,0,0,0-.393.04.53.53,0,0,0-.424.636h1.028v.264c-.334.01-.674,0-1.035.006,0,.078-.008.148-.008.218v2.277c0,.079-.007.157-.011.237Z" transform="translate(-262.393 -380.502)" fill="#fff"/>
  <path id="Path_386" data-name="Path 386" d="M362.277,428.977V426.8a.687.687,0,0,1,.543-.731,2.6,2.6,0,0,1,.847-.083v.259h-.272a2.4,2.4,0,0,0-.372.039.5.5,0,0,0-.428.536v2.159Z" transform="translate(-332.363 -390.832)" fill="#fff"/>
  <path id="Path_387" data-name="Path 387" d="M220.84.307V2.9H207.646a5.794,5.794,0,0,0-3.681,1.234,5.718,5.718,0,0,0-2.227,3.9,5.852,5.852,0,0,0,4.768,6.492,5.933,5.933,0,0,0,1.028.089q6.517.009,13.036,0h.267V17.2c-.059,0-.116.011-.173.011H207.407a8.383,8.383,0,0,1-7.2-4.262,7.954,7.954,0,0,1-1.086-3.421A8.465,8.465,0,0,1,205.861.471,8.021,8.021,0,0,1,207.473.3h13.075Z" transform="translate(-182.649 -0.3)" fill="#fff"/>
  <path id="Path_388" data-name="Path 388" d="M492.436,2.938V.371c.054-.006.1-.015.153-.017H505.8a7.893,7.893,0,0,1,3.538.81,8.2,8.2,0,0,1,4.644,5.868,8.157,8.157,0,0,1-2.134,7.588,8.131,8.131,0,0,1-4.7,2.515,8.36,8.36,0,0,1-1.4.121q-6.528.013-13.059.005h-.261v-2.6c.076,0,.152-.006.228-.006h13.1a5.861,5.861,0,0,0,1.18-11.582,6.224,6.224,0,0,0-1.337-.133H492.436Z" transform="translate(-451.777 -0.343)" fill="#fff"/>
  <path id="Path_389" data-name="Path 389" d="M291.6,66.949a2.954,2.954,0,1,1-2.951,2.943A2.954,2.954,0,0,1,291.6,66.949Z" transform="translate(-264.815 -61.441)" fill="#fff"/>
  <path id="Path_390" data-name="Path 390" d="M597.633,66.979a2.941,2.941,0,1,1-2.087.858A2.952,2.952,0,0,1,597.633,66.979Z" transform="translate(-545.581 -61.468)" fill="#fff"/>
  <path id="Path_391" data-name="Path 391" d="M460.022,263.686H461.2c.042.146.058,8.741.016,9.049h-1.195V271.11a1.019,1.019,0,0,0-.041-.291q-.582-1.858-1.17-3.713c-.013-.043-.031-.085-.045-.126a.071.071,0,0,0-.025,0,.091.091,0,0,0-.009.014.272.272,0,0,0-.005.039v5.659a.08.08,0,0,1,0,.02.2.2,0,0,1-.022.028h-1.179v-9.021a5.86,5.86,0,0,1,1.21-.021l1.251,4.207.043-.005Z" transform="translate(-419.742 -241.922)" fill="#fff"/>
  <path id="Path_392" data-name="Path 392" d="M660.142,263.746h2.069a2.619,2.619,0,0,1,.492.047,1.281,1.281,0,0,1,1.069,1.124,3.319,3.319,0,0,1,.04.493q0,.821,0,1.645a.908.908,0,0,1-.738,1c-.042.013-.083.032-.156.06l.14.068a4.236,4.236,0,0,1,.476.238.858.858,0,0,1,.4.753v2.356a1.5,1.5,0,0,1-.014.217,1.131,1.131,0,0,1-1.2,1.056c-.548.014-1.1.006-1.645.007h-.925C660.112,272.664,660.1,264.035,660.142,263.746Zm1.2,7.957c.36,0,.7.01,1.028,0a.326.326,0,0,0,.342-.357c0-.7.007-1.4,0-2.094a.521.521,0,0,0-.523-.557c-.242-.022-.487-.013-.73-.016a.6.6,0,0,0-.116.023Zm0-4.14a6.866,6.866,0,0,0,.7,0,.545.545,0,0,0,.547-.617q0-.732,0-1.464a1.092,1.092,0,0,0-.048-.308.411.411,0,0,0-.377-.308c-.268-.015-.538,0-.823,0Z" transform="translate(-605.612 -241.989)" fill="#fff"/>
  <path id="Path_393" data-name="Path 393" d="M402.032,272.781h-1.2v-3.268a6.744,6.744,0,0,0-1.377-.024c-.032.361-.009.728-.013,1.094s0,.726,0,1.089v1.112h-1.2c-.005-.053-.016-.1-.016-.154v-7.421a2.263,2.263,0,0,1,.093-.622,1.119,1.119,0,0,1,.925-.823,2.524,2.524,0,0,1,.433-.04c.317-.006.633-.007.95,0a2.193,2.193,0,0,1,.431.049,1.115,1.115,0,0,1,.882.817,2.16,2.16,0,0,1,.089.583q.009,3.72,0,7.442A.9.9,0,0,1,402.032,272.781Zm-1.213-4.422c0-.068.009-.114.009-.159V265.45a1.816,1.816,0,0,0-.011-.2.428.428,0,0,0-.423-.411c-.111-.009-.224,0-.336,0-.473-.024-.617.2-.617.617.008.9,0,1.807,0,2.711,0,.064.006.129.01.206Z" transform="translate(-365.347 -241.968)" fill="#fff"/>
  <path id="Path_394" data-name="Path 394" d="M238.348,268.262v2.982a2.806,2.806,0,0,1-.034.433,1.2,1.2,0,0,1-1.214,1.106c-.52.022-1.043.022-1.563,0a1.214,1.214,0,0,1-1.234-1.159,3.748,3.748,0,0,1-.029-.454v-5.855a2.381,2.381,0,0,1,.1-.74,1.136,1.136,0,0,1,.9-.8,2.178,2.178,0,0,1,.432-.045q.6-.009,1.207,0a2.239,2.239,0,0,1,.432.044,1.122,1.122,0,0,1,.911.835,2.525,2.525,0,0,1,.088.643C238.353,266.258,238.348,267.26,238.348,268.262Zm-1.221.022v-2.929a.455.455,0,0,0-.507-.514H236a.456.456,0,0,0-.514.5c0,.027,0,.052,0,.079v5.7a1.1,1.1,0,0,0,.013.216.405.405,0,0,0,.393.357c.283.014.568.013.851,0a.368.368,0,0,0,.356-.318,1.244,1.244,0,0,0,.017-.256Q237.129,269.7,237.128,268.283Z" transform="translate(-214.932 -241.975)" fill="#fff"/>
  <path id="Path_395" data-name="Path 395" d="M597.877,268.27c0-1-.005-1.991,0-2.982a2.635,2.635,0,0,1,.091-.682,1.118,1.118,0,0,1,.918-.823,2.222,2.222,0,0,1,.411-.041q.617-.008,1.227,0a2.173,2.173,0,0,1,.432.047,1.2,1.2,0,0,1,.955,1.1,3.623,3.623,0,0,1,.03.453q0,2.947,0,5.894a2.875,2.875,0,0,1-.036.472,1.205,1.205,0,0,1-1.214,1.087c-.52.023-1.043.022-1.563,0a1.245,1.245,0,0,1-1.248-1.275c-.008-.1-.008-.206-.008-.317Q597.876,269.734,597.877,268.27Zm1.22.012v2.77c0,.072,0,.145.005.218a.411.411,0,0,0,.4.411,8.4,8.4,0,0,0,.851,0,.349.349,0,0,0,.342-.281,1.278,1.278,0,0,0,.037-.308v-5.775a.454.454,0,0,0-.491-.478h-.456c-.578,0-.687.1-.687.677q0,1.381,0,2.766Z" transform="translate(-548.511 -241.975)" fill="#fff"/>
  <path id="Path_396" data-name="Path 396" d="M717.846,268.263c0-.989-.005-1.978,0-2.967a2.768,2.768,0,0,1,.088-.683,1.112,1.112,0,0,1,.889-.833,2.1,2.1,0,0,1,.431-.048q.624-.009,1.247,0a2.153,2.153,0,0,1,.431.048,1.193,1.193,0,0,1,.949,1.084,3.345,3.345,0,0,1,.032.454q0,2.957,0,5.915a3.028,3.028,0,0,1-.034.453,1.211,1.211,0,0,1-1.222,1.1c-.52.021-1.043.023-1.563,0a1.241,1.241,0,0,1-1.242-1.26c-.009-.1-.009-.206-.009-.316Q717.846,269.736,717.846,268.263Zm1.22,0v2.791c0,.073,0,.145.005.217a.416.416,0,0,0,.421.411c.271.013.541.011.811,0a.36.36,0,0,0,.366-.3,1.426,1.426,0,0,0,.032-.332v-5.739a.454.454,0,0,0-.492-.477c-.172-.005-.343.005-.514,0-.494-.025-.636.2-.63.617.008.94,0,1.877,0,2.813Z" transform="translate(-658.575 -241.972)" fill="#fff"/>
  <path id="Path_397" data-name="Path 397" d="M543.978,269.046l.842,3.759h-1.152l-.793-3.636h-.726V272.8h-1.211v-9.038a1.428,1.428,0,0,1,.146-.014h2.278a1.77,1.77,0,0,1,.411.052,1.058,1.058,0,0,1,.8.742,2.162,2.162,0,0,1,.11.6c.011.858.007,1.715,0,2.571a2.175,2.175,0,0,1-.054.431A1.205,1.205,0,0,1,543.978,269.046Zm-1.82-4.192V268.1c.313,0,.617.01.917,0a.373.373,0,0,0,.344-.285,1.441,1.441,0,0,0,.056-.388c.005-.626,0-1.252,0-1.879a1.366,1.366,0,0,0-.035-.332.432.432,0,0,0-.419-.358c-.283-.012-.566,0-.864,0Z" transform="translate(-496.276 -241.992)" fill="#fff"/>
  <path id="Path_398" data-name="Path 398" d="M104.875,263.761h1.2c0,.078.01.154.01.229v4.833c0,.831,0,1.662-.011,2.494a2.222,2.222,0,0,1-.094.583,1.207,1.207,0,0,1-1.177.917c-.462.016-.925.017-1.386,0a1.243,1.243,0,0,1-1.22-1.117,3.114,3.114,0,0,1-.05-.55v-7.39h1.215v7.251a1.927,1.927,0,0,0,.021.335.421.421,0,0,0,.422.372c.206.009.423.009.633,0a.394.394,0,0,0,.4-.34,1.9,1.9,0,0,0,.032-.373v-7.243Z" transform="translate(-93.709 -241.998)" fill="#fff"/>
  <path id="Path_399" data-name="Path 399" d="M298.245,270.7h1.165c.012.014.027.025.028.035a4.127,4.127,0,0,1-.038,1.044,1.192,1.192,0,0,1-1.2,1.028,11.437,11.437,0,0,1-1.188,0,1.222,1.222,0,0,1-1.234-1.161,4.53,4.53,0,0,1-.029-.514v-5.7a4.559,4.559,0,0,1,.029-.514,1.162,1.162,0,0,1,1.093-1.131,7.2,7.2,0,0,1,1.459,0,1.123,1.123,0,0,1,1.077,1.08c.052.469.039.946.054,1.411a5.628,5.628,0,0,1-1.217.026,1.447,1.447,0,0,1-.015-.147v-.771a.466.466,0,0,0-.52-.53h-.3a.4.4,0,0,0-.424.362,1.089,1.089,0,0,0-.02.216v5.817a.435.435,0,0,0,.5.463h.3a.425.425,0,0,0,.464-.452c.007-.138,0-.277,0-.411A1.455,1.455,0,0,0,298.245,270.7Z" transform="translate(-271.33 -241.99)" fill="#fff"/>
  <path id="Path_400" data-name="Path 400" d="M857.376,266.287h-1.186a1.68,1.68,0,0,1-.016-.171v-.753c-.006-.37-.168-.531-.534-.536h-.3a.411.411,0,0,0-.411.376,1.49,1.49,0,0,0-.01.217v5.661a1.494,1.494,0,0,0,.012.236.394.394,0,0,0,.4.362,3.925,3.925,0,0,0,.411,0,.392.392,0,0,0,.411-.391c.014-.131.009-.263.011-.395v-.223h1.2a.875.875,0,0,1,.016.136,7.419,7.419,0,0,1-.046.926,1.179,1.179,0,0,1-1.2,1.046c-.4.016-.793.017-1.188,0a1.2,1.2,0,0,1-1.214-1.107,3.06,3.06,0,0,1-.036-.452V265.28a2.7,2.7,0,0,1,.086-.664,1.119,1.119,0,0,1,.92-.85,2.255,2.255,0,0,1,.411-.043c.284-.006.568-.007.851,0a2.259,2.259,0,0,1,.432.047,1.124,1.124,0,0,1,.9.845,2.154,2.154,0,0,1,.077.486c.012.356,0,.713,0,1.068A.286.286,0,0,1,857.376,266.287Z" transform="translate(-783.211 -241.966)" fill="#fff"/>
  <path id="Path_401" data-name="Path 401" d="M353.342,271.819h1.779c.014.373.007.731,0,1.1h-3v-9.049h2.987v1.087h-1.77V267.7c.514.005,1.034,0,1.564,0v1.1h-1.567Z" transform="translate(-323.055 -242.099)" fill="#fff"/>
  <path id="Path_402" data-name="Path 402" d="M166.724,272.749h-2.99v-9.024c.135-.039,2.666-.053,2.989-.014v1.079c-.192.015-.389,0-.583.007s-.383,0-.574,0h-.587c-.043.156-.06,2.336-.021,2.74.514.006,1.028,0,1.556,0a2.487,2.487,0,0,1,.022.539c0,.177,0,.355,0,.555h-1.558c-.043.17-.052,2.76-.013,3.021h1.758Z" transform="translate(-150.215 -241.934)" fill="#fff"/>
  <path id="Path_403" data-name="Path 403" d="M777.276,272.943h-1.218V265c-.393-.015-.771,0-1.16-.01V263.9h3.518v1.085h-1.14Z" transform="translate(-710.918 -242.129)" fill="#fff"/>
  <path id="Path_404" data-name="Path 404" d="M58.764,263.885h1.189v7.939c.558.033,1.1,0,1.671.022.008.362,0,.714,0,1.081H58.772C58.735,272.787,58.725,264.135,58.764,263.885Z" transform="translate(-53.889 -242.117)" fill="#fff"/>
  <path id="Path_405" data-name="Path 405" d="M827.365,272.935h-1.186v-9.049h1.169C827.39,264.026,827.409,272.538,827.365,272.935Z" transform="translate(-757.965 -242.119)" fill="#fff"/>
  <path id="Path_406" data-name="Path 406" d="M225.908,441.494v-.233h1.875v.214A14.015,14.015,0,0,1,225.908,441.494Z" transform="translate(-207.256 -404.848)" fill="#fff"/>
</svg>
