<svg xmlns="http://www.w3.org/2000/svg" width="512" height="512"><rect id="backgroundrect" width="100%" height="100%" x="0" y="0" fill="none" stroke="none"/><title>ionicons-v5-r</title><g class="currentLayer" style=""><title>Layer 1</title><path d="M347.23139532804487,303.7186046719551 a136,136 0 0 0 -180.71,0 a21,21 0 1 0 27.91,31.38 a94,94 0 0 1 124.89,0 a21,21 0 0 0 27.91,-31.4 z" id="svg_1" class="" fill="#ffffff" fill-opacity="1"/><path d="M256.28,183.7a221.47,221.47,0,0,0-151.8,59.92,21,21,0,1,0,28.68,30.67,180.28,180.28,0,0,1,246.24,0,21,21,0,1,0,28.68-30.67A221.47,221.47,0,0,0,256.28,183.7Z" id="svg_2" class="" fill="#ffffff" fill-opacity="1"/><path d="M462,175.86a309,309,0,0,0-411.44,0,21,21,0,1,0,28,31.29,267,267,0,0,1,355.43,0,21,21,0,0,0,28-31.31Z" id="svg_3" class="selected" fill="#ffffff" fill-opacity="1"/><circle cx="256.2799987792969" cy="393.4100036621094" r="32" id="svg_4" class="" fill="#ffffff" fill-opacity="1"/></g></svg>