<?xml version="1.0" encoding="utf-8"?>
<!-- Generator: Adobe Illustrator 24.2.0, SVG Export Plug-In . SVG Version: 6.00 Build 0)  -->
<svg version="1.1" id="Layer_1" xmlns="http://www.w3.org/2000/svg" xmlns:xlink="http://www.w3.org/1999/xlink" x="0px" y="0px"
	 viewBox="0 0 415.1 415.1" style="enable-background:new 0 0 415.1 415.1;" xml:space="preserve">
<style type="text/css">
	.st0{fill:none;}
	.st1{fill:#FFFFFF;}
	.st2{fill:none;stroke:#FFFFFF;stroke-width:32;stroke-linecap:round;stroke-linejoin:round;}
</style>
<rect id="backgroundrect" class="st0" width="415.1" height="415.1"/>
<g>
	<g id="Group_711">
		<g id="Group_712">
			<path id="search" class="st1" d="M403.4,369l-91.6-91.6c22.1-29.4,34-65.1,33.9-101.8c0-93.8-76.3-170.1-170.1-170.1
				S5.5,81.8,5.5,175.6s76.3,170.1,170.1,170.1c36.7,0,72.5-11.9,101.8-33.9l91.6,91.6c10,9,25.4,8.1,34.4-1.9
				C411.6,392.2,411.6,378.2,403.4,369L403.4,369z M54.1,175.6c0-67.1,54.4-121.5,121.5-121.5s121.5,54.4,121.5,121.5
				s-54.4,121.5-121.5,121.5c-2.8,0-5.5-0.1-8.4-0.3C104.2,292.5,54.2,239.9,54.1,175.6z"/>
			<g id="add">
				<line id="Line_36" class="st2" x1="174.9" y1="111.6" x2="174.9" y2="246"/>
				<line id="Line_37" class="st2" x1="242.1" y1="178.8" x2="107.7" y2="178.8"/>
			</g>
		</g>
	</g>
</g>
</svg>
