<svg id="Group_1714" xmlns="http://www.w3.org/2000/svg" width="20.742" height="20.771" viewBox="0 0 20.742 20.771">
  <path id="search" d="M20.442,18.614l-4.7-4.7a8.72,8.72,0,1,0-14-10.4,8.72,8.72,0,0,0,12.2,12.2l4.7,4.7a1.272,1.272,0,0,0,1.8-.1A1.354,1.354,0,0,0,20.442,18.614Zm-17.9-9.9a6.231,6.231,0,0,1,6.2-6.2,6.318,6.318,0,0,1,6.3,6.2,6.338,6.338,0,0,1-6.3,6.3h0A6.253,6.253,0,0,1,2.543,8.714Z" transform="translate(0 0.029)" fill="#fff"/>
  <g id="add" transform="translate(5.784 5.784)">
    <line id="Line_18" y2="6" transform="translate(3)" fill="none" stroke="#fff" stroke-linecap="round" stroke-linejoin="round" stroke-width="1"/>
    <line id="Line_19" x1="6" transform="translate(0 3)" fill="none" stroke="#fff" stroke-linecap="round" stroke-linejoin="round" stroke-width="1"/>
  </g>
</svg>
