<?xml version="1.0" encoding="utf-8"?>
<!-- Generator: Adobe Illustrator 24.2.0, SVG Export Plug-In . SVG Version: 6.00 Build 0)  -->
<svg version="1.1" id="Layer_1" xmlns="http://www.w3.org/2000/svg" xmlns:xlink="http://www.w3.org/1999/xlink" x="0px" y="0px"
	 viewBox="0 0 415.1 415.1" style="enable-background:new 0 0 415.1 415.1;" xml:space="preserve">
<style type="text/css">
	.st0{fill:none;}
	.st1{display:none;}
	.st2{display:inline;}
	.st3{fill:#56AE4D;stroke:#56AE4D;}
	.st4{fill:none;stroke:#56AE4D;stroke-width:32;stroke-linecap:round;stroke-linejoin:round;}
	.st5{fill:#56AE4D;}
</style>
<rect id="backgroundrect" class="st0" width="415.1" height="415.1"/>
<g class="st1">
	<g id="Group_711" class="st2">
		<g id="Group_712">
			<path id="search" class="st3" d="M408.7,374l-94.1-94.1c22.7-30.2,34.9-66.9,34.8-104.6C349.4,79,271.1,0.6,174.7,0.6
				S0,79,0,175.3S78.4,350,174.7,350c37.7,0,74.4-12.2,104.6-34.8l94.1,94.1c10.3,9.2,26.1,8.3,35.3-2
				C417.2,397.8,417.2,383.5,408.7,374L408.7,374z M49.9,175.3c0-68.9,55.9-124.8,124.8-124.8s124.8,55.9,124.8,124.8
				s-55.9,124.8-124.8,124.8l0,0c-2.8,0-5.6-0.1-8.6-0.3C101.3,295.4,50,241.4,49.9,175.3z"/>
			<g id="add">
				<line id="Line_36" class="st4" x1="174" y1="109.6" x2="174" y2="247.6"/>
				<line id="Line_37" class="st4" x1="243" y1="178.6" x2="105" y2="178.6"/>
			</g>
		</g>
	</g>
</g>
<rect id="backgroundrect_1_" x="-0.1" y="-0.6" class="st0" width="415.1" height="415.1"/>
<g>
	<g id="Group_711_1_">
		<g id="Group_712_1_">
			<path id="search_1_" class="st5" d="M403.3,368.5l-91.6-91.6c22.1-29.4,34-65.1,33.9-101.8c0-93.8-76.3-170.1-170.1-170.1
				S5.4,81.2,5.4,175.1s76.3,170.1,170.1,170.1c36.7,0,72.5-11.9,101.8-33.9l91.6,91.6c10,9,25.4,8.1,34.4-1.9
				C411.5,391.7,411.5,377.7,403.3,368.5L403.3,368.5z M54,175.1C54,108,108.4,53.6,175.6,53.6S297,108,297,175.1
				s-54.4,121.5-121.5,121.5c-2.8,0-5.5-0.1-8.4-0.3C104.1,292,54.1,239.3,54,175.1z"/>
			<g id="add_1_">
				<line id="Line_36_1_" class="st4" x1="174.8" y1="111" x2="174.8" y2="245.4"/>
				<line id="Line_37_1_" class="st4" x1="242.1" y1="178.2" x2="107.6" y2="178.2"/>
			</g>
		</g>
	</g>
</g>
</svg>
