<svg xmlns="http://www.w3.org/2000/svg" width="35.006" height="35.006" viewBox="0 0 35.006 35.006">
  <g id="bar-chart" transform="translate(-16 -16)">
    <path id="Path_4230" data-name="Path 4230" d="M49.839,51.006H18.334A2.334,2.334,0,0,1,16,48.672V17.167a1.167,1.167,0,0,1,2.334,0V48.672H49.839a1.167,1.167,0,1,1,0,2.334Z" fill="#d2d2d2"/>
    <path id="Path_4231" data-name="Path 4231" d="M85.543,224.336H82.625A2.625,2.625,0,0,1,80,221.711V210.625A2.625,2.625,0,0,1,82.625,208h2.917a2.625,2.625,0,0,1,2.625,2.625v11.085A2.625,2.625,0,0,1,85.543,224.336Z" transform="translate(244.989 -62.884) rotate(90)" fill="#d2d2d2"/>
    <path id="Path_4232" data-name="Path 4232" d="M229.543,179.837h-2.917A2.625,2.625,0,0,1,224,177.211V162.625A2.625,2.625,0,0,1,226.625,160h2.917a2.625,2.625,0,0,1,2.625,2.625v14.586A2.625,2.625,0,0,1,229.543,179.837Z" transform="translate(200.489 -196.383) rotate(90)" fill="#d2d2d2"/>
    <path id="Path_4233" data-name="Path 4233" d="M373.183,120.5h-2.917a2.625,2.625,0,0,1-2.625-2.625V98.625A2.625,2.625,0,0,1,370.265,96h2.917a2.625,2.625,0,0,1,2.625,2.625v19.253A2.625,2.625,0,0,1,373.183,120.5Z" transform="translate(141.157 -329.547) rotate(90)" fill="#d2d2d2"/>
  </g>
</svg>
