<?xml version="1.0" encoding="utf-8"?>
<!-- Generator: Adobe Illustrator 24.0.2, SVG Export Plug-In . SVG Version: 6.00 Build 0)  -->
<svg version="1.1" id="Layer_1" xmlns="http://www.w3.org/2000/svg" xmlns:xlink="http://www.w3.org/1999/xlink" x="0px" y="0px"
	 viewBox="0 0 353 141" style="enable-background:new 0 0 353 141;" xml:space="preserve">
<style type="text/css">
	.st0{clip-path:url(#SVGID_2_);fill:#FFFFFF;}
	.st1{clip-path:url(#SVGID_4_);fill:#FFFFFF;}
	.st2{clip-path:url(#SVGID_6_);fill:#FFFFFF;}
</style>
<g>
	<defs>
		<rect id="SVGID_1_" x="10.1" y="17.4" width="331.3" height="99.4"/>
	</defs>
	<clipPath id="SVGID_2_">
		<use xlink:href="#SVGID_1_"  style="overflow:visible;"/>
	</clipPath>
	<path class="st0" d="M332.2,55.3h0.9c1,0,1.8-0.3,1.8-1.1c0-0.7-0.5-1.2-1.7-1.2c-0.5,0-0.8,0-1,0.1V55.3z M332.2,59.7h-1.8v-7.8
		c0.7-0.1,1.7-0.2,3-0.2c1.5,0,2.1,0.2,2.7,0.6c0.4,0.3,0.8,0.9,0.8,1.7c0,0.9-0.7,1.5-1.6,1.8v0.1c0.8,0.3,1.2,0.9,1.4,1.9
		c0.2,1.2,0.4,1.7,0.6,1.9h-1.9c-0.2-0.3-0.4-1-0.6-1.9c-0.1-0.9-0.6-1.2-1.6-1.2h-0.9V59.7z M327.4,55.6c0,3.5,2.6,6.2,6.1,6.2
		c3.4,0,5.9-2.7,5.9-6.2c0-3.5-2.5-6.3-6-6.3C330,49.4,327.4,52.2,327.4,55.6 M341.4,55.6c0,4.4-3.5,7.9-8,7.9c-4.4,0-8-3.5-8-7.9
		c0-4.3,3.6-7.8,8-7.8C337.9,47.8,341.4,51.3,341.4,55.6"/>
</g>
<g>
	<defs>
		<rect id="SVGID_3_" x="10.1" y="17.4" width="331.3" height="99.4"/>
	</defs>
	<clipPath id="SVGID_4_">
		<use xlink:href="#SVGID_3_"  style="overflow:visible;"/>
	</clipPath>
	<path class="st1" d="M295.1,47c-8.1,0-15.6,3.7-20.7,10.1c-5-6.4-12.5-10.1-20.7-10.1c-14.5,0-26.3,11.8-26.3,26.3v43.2h11.3V73.3
		c0-8.3,6.7-15,15-15c8.3,0,15,6.7,15,15v43.4h11.3V73.3c0-8.3,6.7-15,15-15c8.3,0,15,6.7,15,15v43.2h11.3V73.3
		C321.5,58.8,309.6,47,295.1,47"/>
	<path class="st1" d="M45,46.7c-5.2,0-10.3,1.2-15,3.4v13.2l1.8-1.2c3.9-2.6,8.4-4,13.1-4c13,0,23.6,10.6,23.6,23.5
		c0,13-10.6,23.6-23.6,23.6c-13,0-23.6-10.6-23.6-23.6V17.4H10.1l0,64.2c0,19.2,15.7,34.9,34.9,34.9s34.9-15.7,34.9-34.9
		C79.9,62.3,64.3,46.7,45,46.7"/>
</g>
<g>
	<defs>
		<rect id="SVGID_5_" x="10.1" y="17.4" width="331.3" height="99.4"/>
	</defs>
	<clipPath id="SVGID_6_">
		<use xlink:href="#SVGID_5_"  style="overflow:visible;"/>
	</clipPath>
	<path class="st2" d="M94.4,76.2c0.2-0.8,0.5-1.7,0.8-2.5c3.4-9.2,12.3-15.4,22.1-15.4c10.8,0,20.3,7.5,22.9,17.9H94.4z M117.3,47
		c-16,0-29.9,10.9-33.8,26.5c-0.7,2.8-1.1,5.7-1.1,8.4c0,2,0.2,4.1,0.6,6.3c3,16.6,17.5,28.6,34.3,28.6c13.2,0,25.2-7.3,31.2-19.2
		l1-2h-13c-4.4,6.1-11.5,9.9-19.1,9.9c-10.6,0-20-7.2-22.7-17.5c0-0.1-0.1-0.3-0.1-0.4h57.7v-5.7C152.2,62.6,136.5,47,117.3,47"/>
	<path class="st2" d="M189.4,47c-19.2,0-34.9,15.7-34.9,34.9c0,19.2,15.7,34.9,34.9,34.9c5.6,0,11.1-1.4,16.1-3.9V99.4l-2.7,1.9
		c-3.9,2.7-8.6,4.2-13.4,4.2c-13,0-23.6-10.6-23.6-23.6c0-13,10.6-23.5,23.6-23.5c13,0,23.6,10.6,23.6,23.5v34.6h11.3V81.9
		C224.3,62.6,208.6,47,189.4,47"/>
</g>
</svg>
