<svg width="331.3" height="99.38" xmlns="http://www.w3.org/2000/svg">
 <defs>
  <style>.cls-1{fill:none;}.cls-2{clip-path:url(#clip-path);}.cls-3{fill:#58595b;}.cls-4{clip-path:url(#clip-path-2);}</style>
  <clipPath id="clip-path">
   <rect id="svg_1" height="99.38" width="331.3" y="331.7" x="134.08" class="cls-1"/>
  </clipPath>
  <clipPath id="clip-path-2">
   <rect id="svg_2" height="99.38" width="331.27" y="331.7" x="134.11" class="cls-1"/>
  </clipPath>
 </defs>
 <title>Logo</title>
 <g>
  <title>background</title>
  <rect fill="none" id="canvas_background" height="402" width="582" y="-1" x="-1"/>
 </g>
 <g>
  <title>Layer 1</title>
  <g id="svg_3" class="cls-2">
   <path id="svg_4" d="m322.159998,37.909988l0.85,0c1,0 1.8,-0.33 1.8,-1.14s-0.52,-1.18 -1.65,-1.18a4.89,4.89 0 0 0 -1,0.09l0,2.23zm-0.05,2.17l-1.8,0l0,-7.76a15.92,15.92 0 0 1 3,-0.24a4.85,4.85 0 0 1 2.7,0.57a2.17,2.17 0 0 1 0.75,1.7a2,2 0 0 1 -1.6,1.8l0,0.1a2.3,2.3 0 0 1 1.42,1.89a5.72,5.72 0 0 0 0.56,1.94l-1.94,0a6.6,6.6 0 0 1 -0.61,-1.89c-0.15,-0.85 -0.62,-1.23 -1.61,-1.23l-0.86,0l-0.01,3.12zm-4.78,-4.07a6,6 0 0 0 6.06,6.21a6.21,6.21 0 0 0 -0.05,-12.41a6,6 0 0 0 -6,6.2m14,0a8,8 0 1 1 -8,-7.76a7.8,7.8 0 0 1 8,7.76" class="cls-3"/>
  </g>
  <g id="svg_5" class="cls-4">
   <path id="svg_6" d="m285.029998,29.599988a26.09,26.09 0 0 0 -20.67,10.08a26.09,26.09 0 0 0 -20.67,-10.08a26.37,26.37 0 0 0 -26.34,26.34l0,43.15l11.34,0l0,-43.15a15,15 0 1 1 30,0l0,43.44l11.34,0l0,-43.44a15,15 0 1 1 30,0l0,43.15l11.34,0l0,-43.15a26.37,26.37 0 0 0 -26.34,-26.34" class="cls-3"/>
   <path id="svg_7" d="m34.919998,29.299988a34.77,34.77 0 0 0 -14.95,3.38l0,13.17l1.81,-1.21a23.55,23.55 0 1 1 -10.44,19.55l0,-64.19l-11.34,0l0,64.2a34.93,34.93 0 1 0 34.92,-34.9" class="cls-3"/>
  </g>
  <g id="svg_8" class="cls-2">
   <path id="svg_9" d="m84.369998,58.819988a22.61,22.61 0 0 1 0.76,-2.46a23.54,23.54 0 0 1 44.94,2.46l-45.7,0zm68.54,-29.22a34.89,34.89 0 1 0 31.16,50.59l1,-2l-13,0a23.52,23.52 0 0 1 -41.87,-7.6c0,-0.15 -0.07,-0.29 -0.11,-0.43l57.73,0l0,-5.66a34.93,34.93 0 0 0 -34.89,-34.89" class="cls-3"/>
   <path id="svg_10" d="m179.329998,29.599988a34.89,34.89 0 1 0 16,65.86l0,-13.43l-2.69,1.85a23.55,23.55 0 1 1 10.28,-19.4l0,34.61l11.3,0l0,-34.61a34.93,34.93 0 0 0 -34.89,-34.88" class="cls-3"/>
  </g>
  <text style="cursor: move;" xml:space="preserve" text-anchor="start" font-family="Oswald, sans-serif" font-size="69" id="svg_14" y="74.127502" x="65.150024" stroke-opacity="null" stroke-width="0" stroke="#000" fill="#222223">LOGO</text>
 </g>
</svg>