<?xml version="1.0" encoding="utf-8"?>
<!-- Generator: Adobe Illustrator 24.1.1, SVG Export Plug-In . SVG Version: 6.00 Build 0)  -->
<svg version="1.1" xmlns="http://www.w3.org/2000/svg" xmlns:xlink="http://www.w3.org/1999/xlink" x="0px" y="0px"
	 viewBox="0 0 5102.4 3561.1" style="enable-background:new 0 0 5102.4 3561.1;" xml:space="preserve">
<style type="text/css">
	.st0{fill:#FFFFFF;}
	.st1{fill:#55BA63;}
</style>
<g id="Lag_1">
	<path class="st0" d="M840.4,2045.4c0,39.5,0.4,77.5,1.3,113.7c0.8,36.3-0.8,74.6-5,115c-2.6,22-8.2,40.5-17.1,55.7
		c-8.8,15.2-22.5,28.6-41.1,40.5c-18.6,12.6-37.1,19.6-55.6,20.8c-18.6,1.3-37.9,1.9-58.2,1.9l171.9,309.6H634.4l-171.9-309.6H324.7
		v309.6H147.8v-884.7h132.6h44.2h372.9c20.2,0,39,3.6,56.2,10.7c17.3,7.1,32.2,17.2,44.9,30.3c12.7,13.1,22.8,28.2,30.3,45.5
		c7.6,17.3,11.4,36,11.4,56.2V2045.4z M659.7,2216v-44.2V2039v-44.2h-335v44.2v132.7v44.2H659.7z"/>
	<path class="st0" d="M1659.4,2509.2c0,16,0.2,31.4,0.6,46.2c0.4,14.8-0.6,28.6-3.1,41.7c-2.6,13-7.4,25.9-14.6,38.5
		c-7.1,12.6-18.3,25.3-33.5,37.9c-15.1,11.8-30.1,20.2-44.8,25.4c-14.8,5-29.6,8.1-44.2,9.4c-14.8,1.3-29.7,1.5-44.8,0.7
		c-15.2-0.8-30.4-1.3-45.5-1.3c-31.2,0-62,0.2-92.3,0.6c-30.4,0.4-61.1,0.7-92.3,0.7c-29.6,0-58.9,0.2-87.9,0.7
		c-29,0.3-58.8-1.9-89.1-7c-16-2.5-31.2-7.4-45.5-14.5c-14.4-7.2-26.8-16.5-37.3-27.9c-10.6-11.3-18.8-24.2-24.7-38.5
		c-5.9-14.3-8.8-29.9-8.8-46.8v-369.1v-183.3v-45.5c0-14.3,1.7-28,5-41.1c3.4-13.1,9.1-25.7,17-37.9c8.1-12.2,19.6-24.6,34.8-37.3
		c15.2-11.8,29.7-20.4,43.7-25.9c13.9-5.5,27.8-9,41.6-10.7c13.9-1.7,28.3-2.3,43-1.8c14.8,0.4,29.7,0.6,44.9,0.6h183.3h89.1
		c29,0,59.2,2.6,90.4,7.6c16,2.5,30.9,7.4,44.8,14.5c13.9,7.1,26.1,16.2,36.7,27.2c10.5,10.9,18.7,23.8,24.6,38.5
		c5.9,14.8,8.9,30.1,8.9,46.1v369.1V2509.2z M1482.5,1999.8h-353.9v530.8h353.9V1999.8z"/>
	<path class="st0" d="M2501.2,1939.1c4.2,39.6,5.2,78.8,3.1,117.5c-2.1,38.8-3.1,78-3.1,117.6c0,25.3-4.4,46.3-13.3,63.1
		c-8.9,16.9-24.3,32.5-46.2,46.8c21.9,14.4,37.3,30,46.2,46.8c8.8,16.9,13.3,38.4,13.3,64.5v177c0,18.6-3.6,35.8-10.7,51.8
		c-7.2,16-16.7,30.1-28.5,42.4c-11.8,12.2-25.7,21.7-41.7,28.4c-16,6.8-33.2,10.2-51.8,10.2h-398.1h-44.2h-132.7v-132.7v-88.5
		v-132.7v-88.5v-442.3h177h353.9h5c20.2,0,39.6,0.7,58.2,1.9c18.5,1.3,36.6,7.8,54.3,19.6c19.4,12.7,33.5,26.5,42.4,41.7
		C2492.9,1898.8,2498.7,1917.2,2501.2,1939.1 M2324.2,2174.3v-177h-353.9v177h156.7H2324.2z M2324.2,2528.1v-44.2v-88.5v-44.2
		h-353.9v44.2v88.5v44.2H2324.2z"/>
	<path class="st0" d="M1659.4,1545.8c0,16,0.2,31.4,0.6,46.2c0.4,14.8-0.6,28.6-3.1,41.7c-2.6,13-7.4,25.9-14.6,38.5
		c-7.1,12.6-18.3,25.3-33.5,37.9c-15.1,11.8-30.1,20.2-44.8,25.4c-14.8,5-29.6,8.1-44.2,9.4c-14.8,1.3-29.7,1.5-44.8,0.7
		c-15.2-0.8-30.4-1.3-45.5-1.3c-31.2,0-62,0.2-92.3,0.6c-30.4,0.4-61.1,0.7-92.3,0.7c-29.6,0-58.9,0.2-87.9,0.7
		c-29,0.3-58.8-1.9-89.1-7c-16-2.5-31.2-7.4-45.5-14.5c-14.4-7.2-26.8-16.5-37.3-27.9c-10.6-11.3-18.8-24.2-24.7-38.5
		c-5.9-14.3-8.8-29.9-8.8-46.8v-369.1v-183.3v-45.5c0-14.3,1.7-28,5-41.1c3.4-13.1,9.1-25.7,17-37.9c8.1-12.2,19.6-24.6,34.8-37.3
		c15.2-11.8,29.7-20.4,43.7-25.9c13.9-5.5,27.8-9,41.6-10.7c13.9-1.7,28.3-2.3,43-1.8c14.8,0.4,29.7,0.6,44.9,0.6h183.3h89.1
		c29,0,59.2,2.6,90.4,7.6c16,2.5,30.9,7.4,44.8,14.5c13.9,7.1,26.1,16.2,36.7,27.2c10.5,10.9,18.7,23.8,24.6,38.5
		c5.9,14.8,8.9,30.1,8.9,46.1v369.1V1545.8z M1482.5,1036.5h-353.9v530.8h353.9V1036.5z"/>
	<path class="st0" d="M855.6,1204.2v341.6c0,16,0.2,31.4,0.6,46.2c0.4,14.8-0.6,28.6-3.1,41.7c-2.6,13-7.4,25.9-14.6,38.5
		c-7.1,12.6-18.3,25.3-33.5,37.9c-15.1,11.8-30.1,20.2-44.8,25.4c-14.8,5-29.6,8.1-44.2,9.4c-14.8,1.3-29.7,1.5-44.8,0.7
		c-15.2-0.8-30.4-1.3-45.5-1.3c-31.2,0-62,0.2-92.3,0.6c-30.4,0.4-61.1,0.7-92.3,0.7c-29.6,0-58.9,0.2-87.9,0.7
		c-29,0.3-58.8-1.9-89.1-7c-16-2.5-31.2-7.4-45.5-14.5c-14.4-7.2-26.8-16.5-37.3-27.9c-10.6-11.3-18.8-24.2-24.7-38.5
		c-5.9-14.3-8.8-29.9-8.8-46.8v-369.1v-183.3v-45.5c0-14.3,1.7-28,5-41.1c3.4-13.1,9.1-25.7,17-37.9c8.1-12.2,19.6-24.6,34.8-37.3
		c15.2-11.8,29.7-20.4,43.7-25.9c13.9-5.5,27.8-9,41.6-10.7c13.9-1.7,28.3-2.3,43-1.8c14.8,0.4,29.7,0.6,44.9,0.6h183.3h89.1
		c29,0,59.2,2.6,90.4,7.6c16,2.5,30.9,7.4,44.8,14.5c13.9,7.1,26.1,16.2,36.7,27.2c10.5,10.9,18.7,23.8,24.6,38.5s8.9,30.1,8.9,46.1
		v125.4l-177,0v-82.4H324.8v530.8h353.9v-186.7H450.9v-176.4H855.6z"/>
	<path class="st1" d="M2501.2,975.8c4.2,39.6,5.2,78.8,3.1,117.5c-2.1,38.8-3.1,78-3.1,117.6c0,25.3-4.4,46.3-13.3,63.1
		c-8.9,16.9-24.3,32.5-46.2,46.8c21.9,14.4,37.3,30,46.2,46.8c8.8,16.9,13.3,38.4,13.3,64.5v177c0,18.6-3.6,35.8-10.7,51.8
		c-7.2,16-16.7,30.1-28.5,42.4c-11.8,12.2-25.7,21.7-41.7,28.4c-16,6.8-33.2,10.2-51.8,10.2h-398.1h-44.2h-132.7v-132.7v-88.5
		v-132.7v-88.5V857h177h353.9h5c20.2,0,39.6,0.7,58.2,1.9c18.5,1.3,36.6,7.8,54.3,19.6c19.4,12.7,33.5,26.5,42.4,41.7
		C2492.9,935.4,2498.7,953.9,2501.2,975.8 M2324.2,1211v-177h-353.9v177h156.7H2324.2z M2324.2,1564.8v-44.2v-88.5v-44.2h-353.9
		v44.2v88.5v44.2H2324.2z"/>
	<path class="st1" d="M3298.4,1741.8h-498.6h-44.2h-132.7v-132.7v-88.5v-132.7v-88.5V857h177h498.6v177h-498.6v177h156.7h248.8
		v176.9h-405.6v44.2v88.5v44.2h498.6V1741.8z"/>
	<path class="st0" d="M3332.8,2509.2c0,16,0.2,31.4,0.7,46.2c0.4,14.8-0.7,28.6-3.2,41.7c-2.5,13-7.4,25.9-14.5,38.5
		c-7.2,12.6-18.3,25.3-33.5,37.9c-15.2,11.8-30.1,20.2-44.9,25.4c-14.7,5-29.5,8.1-44.2,9.4c-14.8,1.3-29.7,1.5-44.9,0.7
		c-15.2-0.8-30.3-1.3-45.5-1.3c-31.1,0-62,0.2-92.3,0.6c-30.3,0.4-61.1,0.7-92.3,0.7c-29.5,0-58.8,0.2-87.8,0.7
		c-29.1,0.3-58.8-1.9-89.2-7c-16-2.5-31.1-7.4-45.5-14.5c-14.3-7.2-26.7-16.5-37.3-27.9c-10.5-11.3-18.7-24.2-24.6-38.5
		c-6-14.3-8.9-29.9-8.9-46.8v-369.1v-183.3v-45.5c0-14.3,1.7-28,5.1-41.1c3.3-13.1,9-25.7,17-37.9c8-12.2,19.6-24.6,34.8-37.3
		c15.2-11.8,29.7-20.4,43.6-25.9c13.9-5.5,27.8-9,41.7-10.7c13.9-1.7,28.2-2.3,43-1.8c14.7,0.4,29.7,0.6,44.8,0.6h183.3h89.2
		c29,0,59.2,2.6,90.3,7.6c16,2.5,31,7.4,44.9,14.5c13.9,7.1,26.1,16.2,36.6,27.2c10.6,10.9,18.7,23.8,24.7,38.5
		c5.9,14.8,8.8,30.1,8.8,46.1v369.1V2509.2z M3155.8,1999.8H2802v530.8h353.9V1999.8z"/>
	<polygon class="st0" points="4145.5,1820.4 4145.5,1997.3 3880,1997.3 3880,2705.1 3703.1,2705.1 3703.1,1997.3 3437.7,1997.3 
		3437.7,1820.4 	"/>
	<path class="st0" d="M4959.4,2304.4v265.5c0,18.5-3.6,35.8-10.7,51.8c-7.1,16-16.6,30.1-28.5,42.3c-11.8,12.3-25.7,21.7-41.7,28.5
		c-16,6.7-33.2,10.1-51.8,10.1h-442.3c-18.6,0-35.8-3.4-51.8-10.1c-16-6.7-30.1-16.2-42.3-28.5c-12.3-12.2-21.7-26.4-28.5-42.3
		c-6.8-16-10.2-33.3-10.2-51.8v-132.7h177v88.5h353.9v-177h-398.1c-18.6,0-35.8-3.4-51.8-10.1c-16-6.8-30.1-16.3-42.3-28.5
		c-12.3-12.3-21.7-26.4-28.5-42.4c-6.8-16-10.2-33.2-10.2-51.8v-265.4c0-18.6,3.4-35.8,10.2-51.9c6.7-15.9,16.2-29.9,28.5-41.6
		c12.2-11.8,26.3-21.3,42.3-28.5c16-7.1,33.2-10.7,51.8-10.7h442.3c18.6,0,35.8,3.6,51.8,10.7c16,7.1,30,16.6,41.7,28.5
		c11.8,11.8,21.3,25.7,28.5,41.6c7.1,16,10.7,33.3,10.7,51.9v132.7h-177v-88.5h-353.9v176.9h398.1c18.6,0,35.8,3.6,51.8,10.7
		c16,7.2,30,16.7,41.7,28.5c11.8,11.8,21.3,25.7,28.5,41.7C4955.8,2268.7,4959.4,2285.9,4959.4,2304.4"/>
</g>
<g id="Layer_2">
	<path class="st1" d="M2714.9,647.8c151.8-64.2,313.2-96.8,479.5-96.8s327.7,32.6,479.5,96.8c73,30.9,143.4,69.1,209.2,113.6
		c65.2,44.1,126.6,94.7,182.4,150.5c55.8,55.8,106.4,117.1,150.5,182.4c44.5,65.9,82.7,136.3,113.6,209.2
		c58.9,139.3,91.2,286.5,96.1,438.3h110.1c-5-166.6-40.2-328.3-104.8-481.2c-33.6-79.5-75.3-156.2-123.7-228
		c-48-71-103.1-137.9-163.8-198.6c-60.7-60.7-127.5-115.8-198.6-163.8c-71.7-48.5-148.4-90.1-228-123.7
		c-165.5-70-341.2-105.5-522.4-105.5s-356.9,35.5-522.4,105.5c-79.5,33.6-156.2,75.3-228,123.7c-35,23.6-69,49-101.7,76h186.3
		C2587.9,708.2,2650.4,675.1,2714.9,647.8z"/>
	<path class="st1" d="M3674,2918.1c-151.8,64.2-313.2,96.8-479.5,96.8s-327.7-32.6-479.5-96.8c-67.1-28.4-132.1-63-193.3-103h-184.8
		c34.4,28.6,70.3,55.6,107.3,80.6c71.7,48.5,148.4,90.1,228,123.7c165.5,70,341.2,105.5,522.4,105.5s356.9-35.5,522.4-105.5
		c79.5-33.6,156.2-75.3,228-123.7c37-25,72.8-51.9,107.3-80.6h-184.8C3806,2855.1,3741.1,2889.7,3674,2918.1z"/>
	<path class="st0" d="M4691.1,1475.2c-20.1-98.1-50-194.6-89-286.8c-38.3-90.5-85.7-177.8-140.9-259.5
		c-54.6-80.9-117.4-156.9-186.5-226.1c-69.1-69.1-145.2-131.9-226.1-186.5c-59.4-40.1-121.8-76.1-186.2-107.5l108.3-244.2
		l-100.6-44.6l-108.3,244.2c-83.9-33.6-171.1-59.7-259.6-77.8c-100.6-20.6-204.2-31-307.8-31s-207.2,10.4-307.8,31
		c-98.1,20.1-194.6,50-286.8,89c-90.5,38.3-177.8,85.7-259.5,140.9c-80.9,54.6-156.9,117.4-226.1,186.5
		c-14.2,14.2-28.1,28.7-41.7,43.5h155.1c54.4-50.7,112.8-97.3,174.3-138.8c75.8-51.2,156.8-95.2,240.8-130.7
		c174.7-73.9,360.4-111.4,551.8-111.4s377.1,37.5,551.8,111.4c84,35.5,165,79.5,240.8,130.7c75.1,50.7,145.7,109,209.8,173.1
		s122.4,134.8,173.1,209.8c51.2,75.8,95.2,156.8,130.7,240.8c68.6,162.2,105.8,333.8,110.8,510.6h110
		C4719.2,1652,4708.9,1562.5,4691.1,1475.2z"/>
	<path class="st0" d="M4166.2,2815.1c-55.8,52.5-115.9,100.7-179.2,143.4c-75.8,51.2-156.8,95.2-240.8,130.7
		c-174.7,73.9-360.4,111.4-551.8,111.4s-377.1-37.5-551.8-111.4c-84-35.5-165-79.5-240.8-130.7c-63.3-42.8-123.4-90.9-179.2-143.4
		h-154.4c15,16.4,30.3,32.4,46,48.1c69.1,69.1,145.2,131.9,226.1,186.5c56.8,38.4,116.4,73,177.9,103.4l-108,243.7l100.6,44.6
		l107.8-243.1c86.6,35.2,176.7,62.6,268.2,81.3c100.6,20.6,204.2,31,307.8,31s207.2-10.4,307.8-31c98.1-20.1,194.6-50,286.8-89
		c90.5-38.3,177.8-85.7,259.5-140.9c80.9-54.6,156.9-117.4,226.1-186.5c15.7-15.7,31-31.7,46-48.1H4166.2z"/>
</g>
</svg>
