<?xml version="1.0" encoding="utf-8"?>
<!-- Generator: Adobe Illustrator 24.1.1, SVG Export Plug-In . SVG Version: 6.00 Build 0)  -->
<svg version="1.1" id="Layer_1" xmlns="http://www.w3.org/2000/svg" xmlns:xlink="http://www.w3.org/1999/xlink" x="0px" y="0px"
	 viewBox="0 0 512 512" style="enable-background:new 0 0 512 512;" xml:space="preserve">
<style type="text/css">
	.st0{display:none;fill:#F90303;}
	.st1{display:none;}
	.st2{display:inline;}
</style>
<rect x="0" y="0.4" class="st0" width="512" height="512"/>
<g id="tiles_beamProIcon_1_" transform="translate(-348.904 -1275.311)" class="st1">
	<path class="st2" d="M555.9,1775.1h97.5 M670.6,1775.1h95.8c8.2,0,14.9-6.6,14.9-14.9v-101.4c-0.1-8.2-6.7-14.9-14.9-14.9h-23.8
		v-341.4c0-8.2-6.6-14.9-14.9-14.9H486c-8.2,0-14.9,6.6-14.9,14.9v341.4h-27.6c-8.2,0-14.9,6.6-14.9,14.9v101.4
		c0,8.2,6.6,14.9,14.9,14.9h95.5 M609.5,1300.8c8.4,0,15.1,6.7,15.1,15.1c0.1,8.2-6.4,15-14.6,15.1c-0.1,0-0.2,0-0.2,0h-0.3
		c-8.4,0-15.1-6.9-15.1-15.1C594.4,1307.5,601.3,1300.8,609.5,1300.8z M711.1,1643.1H501.7V1352h209.3V1643.1z"/>
	<path id="Path_1202" class="st2" d="M609.7,1304.1c-6.5,0-11.9,5.3-11.9,11.9c0,6.5,5.3,11.9,11.9,11.9c6.5,0,11.9-5.3,11.9-11.9
		l0,0C621.5,1309.4,616.2,1304.1,609.7,1304.1L609.7,1304.1z M609.7,1309.5c-3.3,0-6.1,2.7-6.2,6v0.2c-0.1,0.8-0.9,1.2-1.7,1.1
		c-0.6-0.1-1-0.6-1.1-1.1c0-5.1,4.1-9.2,9.2-9.2l0,0c0.7,0,1.3,0.4,1.3,1.1c0,0.1,0,0.1,0,0.2c0,0.9-0.7,1.5-1.4,1.7L609.7,1309.5z"
		/>
</g>
<g>
	<g>
		<path d="M218.8,93.5v239.3h10.1V104.2C228.9,98.5,224.4,93.8,218.8,93.5z"/>
		<path d="M150.3,442.5v-93.1H55.8V139.8h134.3V93.5H44.3c-5.9,0-10.7,4.8-10.7,10.7c0,0,0,0,0,0v245.7H13.8
			c-5.9,0-10.7,4.8-10.7,10.7v73c0,5.9,4.8,10.7,10.7,10.7h0h68.7h12h56C150.4,443.7,150.3,443.1,150.3,442.5z M133.3,103L133.3,103
			c6,0,10.9,4.8,10.9,10.7c0,0,0,0.1,0,0.1c0.1,5.9-4.6,10.8-10.5,10.9c0,0,0,0,0,0h-0.4c-6,0-10.9-4.9-10.9-10.9
			C122.5,107.9,127.3,103,133.3,103z"/>
	</g>
	<g id="tiles_beamProIcon_1_3" transform="translate(-422.379 -1286.6)">
		<path id="Path_1228-3" d="M720.2,1771.3h91.3 M827.7,1771.3h89.7c7.7,0,13.9-6.2,14-13.9c0,0,0,0,0-0.1v-95
			c-0.1-7.7-6.3-13.9-14-14h-22.3v-319.7c0-7.7-6.2-13.9-13.9-14c0,0,0,0-0.1,0H654.7c-7.7,0-13.9,6.2-14,13.9c0,0,0,0,0,0.1v319.7
			h-25.9c-7.7,0-13.9,6.2-14,13.9c0,0,0,0,0,0.1v95c0,7.7,6.2,13.9,13.9,14c0,0,0,0,0.1,0h89.4 M770.4,1327.1
			c7.8,0,14.1,6.3,14.1,14.1c0.1,7.7-6,14-13.7,14.1c0,0,0,0,0,0h-0.5c-7.8,0-14.1-6.3-14.1-14.1S762.5,1327.1,770.4,1327.1
			L770.4,1327.1z M865.5,1647.7H669.4V1375h196L865.5,1647.7L865.5,1647.7z"/>
		<path id="Path_1202-3" d="M770.6,1330.2c-6.1,0-11.1,5-11.1,11.1c0,6.1,5,11.1,11.1,11.1c6.1,0,11.1-5,11.1-11.1l0,0
			C781.7,1335.2,776.8,1330.3,770.6,1330.2z M770.6,1335.2c-3.1,0-5.7,2.5-5.8,5.7v0.2c-0.2,0.7-0.9,1.2-1.6,1c0,0,0,0,0,0
			c-0.5-0.1-0.9-0.5-1-1c0-4.7,3.8-8.5,8.5-8.5c0,0,0,0,0,0l0,0c0.6-0.1,1.1,0.4,1.2,1c0,0,0,0,0,0v0.2c0,0.8-0.6,1.4-1.3,1.6
			L770.6,1335.2z"/>
	</g>
	<path id="Path_1202-3_1_" d="M133.4,105.7c-4.5,0-8.1,3.6-8.1,8.1c0,4.5,3.6,8.1,8.1,8.1c4.5,0,8.1-3.6,8.1-8.1l0,0
		C141.4,109.4,137.8,105.8,133.4,105.7z M133.4,109.4c-2.3,0-4.2,1.8-4.3,4.1v0.1c-0.1,0.5-0.6,0.9-1.2,0.7c0,0,0,0,0,0
		c-0.4-0.1-0.7-0.4-0.7-0.7c0-3.4,2.8-6.2,6.2-6.2c0,0,0,0,0,0l0,0c0.4,0,0.8,0.3,0.9,0.7c0,0,0,0,0,0v0.1c0,0.6-0.4,1-1,1.2
		L133.4,109.4z"/>
</g>
</svg>
