<?xml version="1.0" encoding="utf-8"?>
<!-- Generator: Adobe Illustrator 24.1.1, SVG Export Plug-In . SVG Version: 6.00 Build 0)  -->
<svg version="1.1" id="Layer_1" xmlns="http://www.w3.org/2000/svg" xmlns:xlink="http://www.w3.org/1999/xlink" x="0px" y="0px"
	 viewBox="0 0 512 512" style="enable-background:new 0 0 512 512;" xml:space="preserve">
<style type="text/css">
	.st0{display:none;}
	.st1{display:inline;}
</style>
<g id="tiles_beamProIcon" transform="translate(0.492 0.506)" class="st0">
	<g id="tiles_beamProIcon-2" transform="translate(0 0)" class="st1">
		<path id="Subtraction_8" d="M428.8,499H82.2c-8.5,0.3-15.6-6.3-16-14.9V382.9c0.3-8.5,7.5-15.1,16-14.9h29.7V26.9
			c0.3-8.5,7.5-15.1,16-14.9h259.4c8.5-0.3,15.6,6.3,16,14.9V368h25.5c8.5-0.3,15.6,6.3,16,14.9v101.3
			C444.5,492.6,437.3,499.3,428.8,499z M260.6,27.4c-13.2,0.2-23.8,11-23.6,24.2c0.2,13,10.6,23.4,23.6,23.6h0.9
			c13-0.3,23.3-10.9,23-23.9C284.5,38.1,273.9,27.4,260.6,27.4C260.7,27.4,260.6,27.4,260.6,27.4z"/>
	</g>
</g>
<g id="Group_1151" transform="translate(0.492 -0.001)">
	<path id="Subtraction_10" d="M170.8,411.1H16.5c-5.3,0.2-9.7-4-9.9-9.3v-63.1c0.2-5.3,4.6-9.4,9.9-9.3H35V116.9
		c0.2-5.3,4.6-9.4,9.9-9.3h161.7c0.5,0,1,0,1.5,0.1v214.9h-24.2c-6.9-0.2-12.8,5.2-13,12.1L170.8,411.1L170.8,411.1z M127.6,117.3
		c-8.2,0-14.9,6.7-14.9,14.9c0,8.2,6.7,14.9,14.9,14.9h0.3c0.1,0,0.2,0,0.3,0c8.1-0.1,14.5-6.8,14.4-14.9c0,0,0,0,0,0
		C142.5,123.9,135.9,117.3,127.6,117.3L127.6,117.3z"/>
	<path id="Subtraction_9" d="M491.5,454.5H208.9c-6.9,0.2-12.8-5.2-13-12.1v-82.6c0.3-6.9,6.1-12.3,13-12.1h24.2V69.6
		c0.3-6.9,6.1-12.3,13-12.1h211.5c6.9-0.2,12.8,5.2,13,12.1v278.1h20.8c6.9-0.2,12.8,5.2,13,12.1v82.5
		C504.2,449.3,498.4,454.7,491.5,454.5z M354.4,70c-10.8,0-19.5,8.7-19.5,19.5s8.7,19.5,19.5,19.5h0.4c0.1,0,0.2,0,0.4,0
		c10.6-0.2,19-8.9,18.8-19.5C373.9,78.8,365.2,70.1,354.4,70L354.4,70z"/>
</g>
</svg>
