<svg xmlns="http://www.w3.org/2000/svg" width="638.61" height="352" viewBox="0 0 638.61 352">
  <g id="Group_682" data-name="Group 682" transform="translate(54.112 -80)">
    <path id="Path_1077" data-name="Path 1077" d="M331.975,168c-2.93,40.67-33.1,72-66,72s-63.12-31.32-66-72c-3-42.31,26.37-72,66-72S334.975,126.46,331.975,168Z" fill="none" stroke="#000" stroke-linecap="round" stroke-linejoin="round" stroke-width="32"/>
    <path id="Path_1078" data-name="Path 1078" d="M265.975,304c-65.17,0-127.84,32.37-143.54,95.41-2.08,8.34,3.15,16.59,11.72,16.59H397.8c8.57,0,13.77-8.25,11.72-16.59C393.825,335.36,331.155,304,265.975,304Z" fill="none" stroke="#000" stroke-miterlimit="10" stroke-width="32"/>
    <path id="Path_1079" data-name="Path 1079" d="M129.975,185.94c-2.34,32.48-26.72,58.06-53,58.06s-50.7-25.57-53-58.06c-2.39-33.79,21.34-57.94,53-57.94S132.365,152.77,129.975,185.94Z" fill="none" stroke="#000" stroke-linecap="round" stroke-linejoin="round" stroke-width="32"/>
    <path id="Path_1080" data-name="Path 1080" d="M135.975,306c-18.05-8.27-37.93-11.45-59-11.45-52,0-102.1,25.85-114.65,76.2-1.65,6.66,2.53,13.25,9.37,13.25H83.975" fill="none" stroke="#000" stroke-linecap="round" stroke-miterlimit="10" stroke-width="32"/>
    <path id="Path_1081" data-name="Path 1081" d="M453.409,128c31.66,0,55.39,24.15,53,57.94-2.3,32.49-26.72,58.06-53,58.06s-50.66-25.58-53-58.06C398.019,152.77,421.749,128,453.409,128Z" fill="none" stroke="#000" stroke-linecap="round" stroke-linejoin="round" stroke-width="32"/>
    <path id="Path_1082" data-name="Path 1082" d="M446.409,384h112.28c6.84,0,11.02-6.59,9.37-13.25-12.55-50.35-62.65-76.2-114.65-76.2-21.07,0-40.95,3.18-59,11.45" fill="none" stroke="#000" stroke-linecap="round" stroke-miterlimit="10" stroke-width="32"/>
  </g>
</svg>
