<?xml version="1.0" encoding="utf-8"?>
<!-- Generator: Adobe Illustrator 24.0.2, SVG Export Plug-In . SVG Version: 6.00 Build 0)  -->
<svg version="1.1" id="Layer_1" xmlns="http://www.w3.org/2000/svg" xmlns:xlink="http://www.w3.org/1999/xlink" x="0px" y="0px"
	 viewBox="0 0 388 154" style="enable-background:new 0 0 388 154;" xml:space="preserve">
<style type="text/css">
	.st0{fill:#0C80BD;}
	.st1{fill:#29292D;}
</style>
<path class="st0" d="M346,32.8H200.3v11H346c3,0,5.5-2.5,5.5-5.5C351.5,35.3,349.1,32.8,346,32.8"/>
<path class="st0" d="M379.3,55.8h-179v11h179c3,0,5.5-2.5,5.5-5.5C384.8,58.2,382.3,55.8,379.3,55.8"/>
<path class="st1" d="M3.7,56.2v-52h14v56h28v-56h14v52c0,0.3,0,0.9,0,1.8c0,1-0.1,2-0.1,3.1c0,1.1-0.1,2.2-0.1,3.1
	c0,1-0.1,1.6-0.2,1.8C58.8,68.3,58,69.9,57,71c-1,1.1-2.5,2-4.5,2.7c-0.5,0.2-1.8,0.3-3.8,0.4c-2,0.1-4.2,0.1-6.5,0.1
	c-2.3,0-4.5,0-6.5,0c-2,0-3.3,0-3.8,0c-0.5,0-1.8,0-3.8,0s-4.1,0-6.4,0c-2.3,0-4.4,0-6.3-0.1c-2-0.1-3.2-0.2-3.7-0.4
	c-2.1-0.7-3.6-1.5-4.7-2.4c-1.1-1-1.9-2.5-2.4-4.5c-0.5-1.7-0.7-3.5-0.6-5.3C3.7,59.6,3.7,57.9,3.7,56.2"/>
<polyline class="st1" points="130.4,4.1 104.9,74.1 90,74.1 64.6,4.1 79.5,4.1 97.5,53.6 115.5,4.1 130.4,4.1 "/>
<path class="st1" d="M182.7,4.4c2.2,0.7,3.8,1.5,4.9,2.5c1.1,1,1.9,2.2,2.3,3.5c0.4,1.3,0.6,2.8,0.6,4.3c0,1.6,0,3.2,0.1,4.8
	c0.1,3.2,0.2,6.4,0.1,9.6c0,3.2-0.1,6.4-0.1,9.6v19c0,1.7,0,3.4-0.1,4.9c-0.1,1.6-0.4,3-0.9,4.4c-0.5,1.4-1.3,2.6-2.5,3.6
	c-1.2,1-2.8,1.9-4.9,2.5c-0.5,0.1-1.7,0.2-3.4,0.3c-1.7,0.1-3.6,0.1-5.6,0.1c-2,0-3.9,0.1-5.7,0.1c-1.8,0-2.9,0-3.3,0h-29.5V4h10.5
	c3.2,0,6.4,0,9.5-0.1c3.1,0,6.3-0.1,9.5-0.1c0.5,0,1.6,0,3.4,0s3.7,0,5.8,0.1c2.1,0,4,0.1,5.7,0.1C181.1,4.2,182.2,4.3,182.7,4.4
	 M148.9,60h28V18h-28V60z"/>
<path class="st1" d="M58.9,98c0,3.1,0,6.1,0.1,9c0.1,2.9-0.1,5.9-0.4,9.1c-0.2,1.7-0.7,3.2-1.4,4.4c-0.7,1.2-1.8,2.3-3.2,3.2
	c-1.5,1-2.9,1.6-4.4,1.6c-1.5,0.1-3,0.2-4.6,0.2l13.6,24.5h-16L29,125.5H18.2v24.5h-14V80h43.5c1.6,0,3.1,0.3,4.4,0.9
	c1.4,0.6,2.5,1.4,3.5,2.4c1,1,1.8,2.2,2.4,3.6c0.6,1.4,0.9,2.8,0.9,4.4V98 M18.2,111.5h26.5V94H18.2V111.5z"/>
<path class="st1" d="M123.7,134.6c0,1.3,0,2.5,0.1,3.6c0,1.2-0.1,2.3-0.3,3.3c-0.2,1-0.6,2-1.2,3c-0.6,1-1.4,2-2.6,3
	c-1.2,0.9-2.4,1.6-3.5,2c-1.2,0.4-2.3,0.6-3.5,0.7c-1.2,0.1-2.3,0.1-3.5,0c-1.2-0.1-2.4-0.1-3.6-0.1c-2.5,0-4.9,0-7.3,0.1
	c-2.4,0-4.8,0-7.3,0c-2.3,0-4.6,0-6.9,0.1c-2.3,0-4.6-0.2-7-0.6c-1.3-0.2-2.5-0.6-3.6-1.2c-1.1-0.6-2.1-1.3-2.9-2.2
	c-0.8-0.9-1.5-1.9-1.9-3c-0.5-1.1-0.7-2.4-0.7-3.7V96.2c0-1.3,0-2.5,0-3.6c0-1.1,0.1-2.2,0.4-3.2c0.3-1,0.7-2,1.3-3
	c0.6-1,1.6-1.9,2.7-2.9c1.2-0.9,2.3-1.6,3.4-2c1.1-0.4,2.2-0.7,3.3-0.9c1.1-0.1,2.2-0.2,3.4-0.1c1.2,0,2.3,0,3.5,0h14.5
	c2.4,0,4.7,0,7,0c2.3,0,4.7,0.2,7.1,0.6c1.3,0.2,2.4,0.6,3.5,1.1c1.1,0.6,2.1,1.3,2.9,2.2c0.8,0.9,1.5,1.9,2,3
	c0.5,1.2,0.7,2.4,0.7,3.6V134.6 M81.7,136.3h28v-42h-28V136.3z"/>
<path class="st1" d="M190.3,89.6c0.3,3.1,0.4,6.2,0.3,9.3c-0.2,3.1-0.3,6.2-0.3,9.3c0,2-0.3,3.7-1,5c-0.7,1.3-1.9,2.6-3.6,3.7
	c1.7,1.1,2.9,2.4,3.6,3.7c0.7,1.3,1,3,1,5.1v14c0,1.5-0.3,2.8-0.8,4.1c-0.6,1.3-1.3,2.4-2.2,3.3c-0.9,1-2,1.7-3.3,2.2
	c-1.3,0.5-2.6,0.8-4.1,0.8h-45.5v-70h42.4c1.6,0,3.1,0,4.6,0.2c1.5,0.1,2.9,0.6,4.3,1.5c1.5,1,2.6,2.1,3.3,3.3
	C189.6,86.4,190.1,87.8,190.3,89.6 M148.3,108.2h28v-14h-28V108.2z M148.3,136.1h28v-14h-28V136.1z"/>
<path class="st1" d="M256,134.6c0,1.3,0,2.5,0,3.6c0,1.2,0,2.3-0.3,3.3c-0.2,1-0.6,2-1.1,3c-0.6,1-1.4,2-2.6,3
	c-1.2,0.9-2.4,1.6-3.5,2c-1.2,0.4-2.3,0.6-3.5,0.7c-1.2,0.1-2.3,0.1-3.5,0c-1.2-0.1-2.4-0.1-3.6-0.1c-2.5,0-4.9,0-7.3,0.1
	c-2.4,0-4.8,0-7.3,0c-2.3,0-4.6,0-6.9,0.1c-2.3,0-4.6-0.2-7-0.6c-1.3-0.2-2.5-0.6-3.6-1.2c-1.1-0.6-2.1-1.3-2.9-2.2
	c-0.8-0.9-1.5-1.9-1.9-3c-0.5-1.1-0.7-2.4-0.7-3.7V96.2c0-1.3,0-2.5,0-3.6c0-1.1,0.1-2.2,0.4-3.2c0.3-1,0.7-2,1.3-3
	c0.6-1,1.6-1.9,2.7-2.9c1.2-0.9,2.3-1.6,3.4-2c1.1-0.4,2.2-0.7,3.3-0.9c1.1-0.1,2.2-0.2,3.4-0.1c1.2,0,2.3,0,3.5,0h14.5
	c2.4,0,4.7,0,7,0c2.3,0,4.7,0.2,7.1,0.6c1.3,0.2,2.4,0.6,3.5,1.1c1.1,0.6,2.1,1.3,2.9,2.2c0.8,0.9,1.5,1.9,1.9,3
	c0.5,1.2,0.7,2.4,0.7,3.6V134.6 M214,136.3h28v-42h-28V136.3z"/>
<polyline class="st1" points="320.3,80.2 320.3,94.2 299.3,94.2 299.3,150.1 285.3,150.1 285.3,94.2 264.3,94.2 264.3,80.2 
	320.3,80.2 "/>
<path class="st1" d="M384.7,118.5v21c0,1.5-0.3,2.8-0.8,4.1c-0.6,1.3-1.3,2.4-2.2,3.3c-0.9,1-2,1.7-3.3,2.2
	c-1.3,0.5-2.6,0.8-4.1,0.8h-35c-1.5,0-2.8-0.3-4.1-0.8c-1.3-0.5-2.4-1.3-3.3-2.2c-1-1-1.7-2.1-2.2-3.3c-0.5-1.3-0.8-2.6-0.8-4.1V129
	h14v7h28v-14h-31.5c-1.5,0-2.8-0.3-4.1-0.8c-1.3-0.5-2.4-1.3-3.3-2.2c-1-1-1.7-2.1-2.2-3.3c-0.5-1.3-0.8-2.6-0.8-4.1v-21
	c0-1.5,0.3-2.8,0.8-4.1c0.5-1.3,1.3-2.4,2.2-3.3c1-0.9,2.1-1.7,3.3-2.2c1.3-0.6,2.6-0.9,4.1-0.9h35c1.5,0,2.8,0.3,4.1,0.9
	c1.3,0.6,2.4,1.3,3.3,2.2c0.9,0.9,1.7,2,2.2,3.3c0.6,1.3,0.8,2.6,0.8,4.1V101h-14v-7h-28v14h31.5c1.5,0,2.8,0.3,4.1,0.9
	c1.3,0.6,2.4,1.3,3.3,2.2c0.9,0.9,1.7,2,2.2,3.3C384.4,115.6,384.7,117,384.7,118.5"/>
<path class="st0" d="M379.3,10.1h-179v11h179c3,0,5.5-2.5,5.5-5.5C384.8,12.6,382.3,10.1,379.3,10.1"/>
</svg>
