<?xml version="1.0" encoding="utf-8"?>
<!-- Generator: Adobe Illustrator 24.1.3, SVG Export Plug-In . SVG Version: 6.00 Build 0)  -->
<svg version="1.1" id="Layer_1" xmlns="http://www.w3.org/2000/svg" xmlns:xlink="http://www.w3.org/1999/xlink" x="0px" y="0px"
	 viewBox="0 0 512 512" style="enable-background:new 0 0 512 512;" xml:space="preserve">
<style type="text/css">
	.st0{display:none;fill:none;stroke:#000000;stroke-width:44;stroke-linecap:round;stroke-linejoin:round;}
</style>
<polygon class="st0" points="358.6,129.3 86.5,402.1 70,442 109.9,425.5 382.7,153.4 "/>
<path class="st0" d="M413.1,74.8l-11.8,11.8l24.1,24.1l11.8-11.8c6.4-6.4,6.4-16.9,0-23.3l-0.8-0.8C430,68.4,419.5,68.4,413.1,74.8
	C413.1,74.8,413.1,74.8,413.1,74.8z"/>
<path id="edit" d="M263.2,126.2L116.8,276.5l-63.3,182l182-59.3l146.4-146.4L263.2,126.2z M449.1,114.3l-51.4-51.4
	c-11.9-11.9-23.7-15.8-35.6-15.8c-11.9,0-23.7,4-35.6,15.8l-43.5,43.5L401.6,229l47.5-47.5c7.9-7.9,15.8-19.8,15.8-35.6
	C464.9,134.1,457,122.2,449.1,114.3L449.1,114.3z"/>
</svg>
