<?xml version="1.0" encoding="utf-8"?>
<!-- Generator: Adobe Illustrator 24.1.3, SVG Export Plug-In . SVG Version: 6.00 Build 0)  -->
<svg version="1.1" id="Layer_1" xmlns="http://www.w3.org/2000/svg" xmlns:xlink="http://www.w3.org/1999/xlink" x="0px" y="0px"
	 viewBox="0 0 512 512" style="enable-background:new 0 0 512 512;" xml:space="preserve">
<g id="Group_1353" transform="translate(-6 -24.33)">
	<g id="person-add" transform="translate(-10 -8.8)">
		<path id="Path_1303" d="M105.1,345.5V312h33.5c7.4-0.3,13.1-6.6,12.8-14c-0.3-7-5.9-12.5-12.8-12.8h-33.5v-33.5
			c-0.3-7.4-6.6-13.1-14-12.8c-7,0.3-12.5,5.9-12.8,12.8v33.5H44.9c-7.4,0.3-13.1,6.6-12.8,14c0.3,7,5.9,12.5,12.8,12.8h33.5v33.5
			c0.3,7.4,6.6,13.1,14,12.8C99.3,358,104.8,352.4,105.1,345.5z"/>
	</g>
	<g id="_10_page" transform="translate(9.5 24.33)">
		<g id="people">
			<path id="Path_1152" d="M226.8,270.6c17.8-0.3,34.7-8.1,46.5-21.5c12.8-13.9,20.4-31.8,21.6-50.6c1.8-19.3-4.6-38.5-17.6-52.9
				c-27.5-27.8-72.3-28.1-100.1-0.7c-0.2,0.2-0.5,0.5-0.7,0.7c-13,14.4-19.4,33.5-17.7,52.8l0,0c1.2,18.8,8.9,36.7,21.6,50.6
				C192.2,262.3,209,270.2,226.8,270.6z"/>
			<path id="Path_1153" d="M117.4,416.7h218.9c7.1,0,13.9-3.2,18.3-8.9c4.6-6.1,6.3-14,4.4-21.4c-7.1-28.2-25.1-52.4-50.1-67.3
				c-50.7-29.2-113.1-29.3-163.9-0.3c-25.1,14.9-43.2,39.3-50.1,67.7c-1.9,7.4-0.2,15.3,4.4,21.4
				C103.5,413.5,110.3,416.7,117.4,416.7z"/>
			<path id="Path_1154" d="M383.8,273.9c31.7-2.6,56.4-28.7,57.3-60.5c1.5-16.3-4-32.4-14.9-44.5c-22.8-23.4-60.1-23.9-83.5-1.1
				c-0.4,0.4-0.7,0.7-1.1,1.1c-11,12.1-16.5,28.3-14.9,44.5C327.4,245.2,352,271.2,383.8,273.9z"/>
			<path id="Path_1155" d="M329.2,300c17.1-7.6,35.8-11.2,54.5-10.7c23.5-0.3,46.7,6,66.9,18c20.5,12.3,35.3,32.2,41.2,55.4
				c1.7,6.7,0.2,13.9-4,19.4c-4,5.1-10.2,8.1-16.7,8.1H379c-3.2,0-6-2.3-6.5-5.5c0-0.5-0.2-1.1-0.4-1.6c-7-28.2-24.1-52.9-47.9-69.6
				c-3-2.1-3.7-6.3-1.5-9.3c0.5-0.8,1.2-1.4,2-1.9C326.1,301.6,327.5,300.8,329.2,300z"/>
		</g>
	</g>
</g>
</svg>
