<?xml version="1.0" encoding="utf-8"?>
<!-- Generator: Adobe Illustrator 24.3.0, SVG Export Plug-In . SVG Version: 6.00 Build 0)  -->
<svg version="1.1" id="Layer_1" xmlns="http://www.w3.org/2000/svg" xmlns:xlink="http://www.w3.org/1999/xlink" x="0px" y="0px"
	 viewBox="0 0 512 512" style="enable-background:new 0 0 512 512;" xml:space="preserve">
<path id="Subtraction_15" d="M256,464c-14.1,0-28.1-1.4-41.9-4.2c-13.4-2.7-26.5-6.8-39-12.1c-12.4-5.2-24.2-11.7-35.3-19.2
	c-11-7.5-21.4-16-30.8-25.4c-9.4-9.4-17.9-19.7-25.4-30.8c-7.5-11.1-13.9-23-19.2-35.3c-5.3-12.6-9.4-25.7-12.1-39
	C49.4,284.1,48,270.1,48,256c0-14.1,1.4-28.1,4.2-41.9c2.7-13.4,6.8-26.5,12.1-39c5.2-12.4,11.7-24.2,19.2-35.3
	c7.5-11,16-21.4,25.4-30.8c9.4-9.4,19.7-17.9,30.8-25.4c11.1-7.5,23-13.9,35.3-19.2c12.6-5.3,25.7-9.4,39-12.1
	c13.8-2.8,27.8-4.2,41.9-4.2c14.1,0,28.1,1.4,41.9,4.2c13.4,2.7,26.5,6.8,39,12.1c12.4,5.2,24.2,11.7,35.3,19.2
	c11,7.5,21.4,16,30.8,25.4c9.4,9.4,17.9,19.7,25.4,30.8c7.5,11.1,13.9,23,19.2,35.3c5.3,12.6,9.4,25.7,12.1,39
	c2.8,13.8,4.2,27.8,4.2,41.9c0,14.1-1.4,28.1-4.2,41.9c-2.7,13.4-6.8,26.5-12.1,39c-5.2,12.4-11.7,24.2-19.2,35.3
	c-7.5,11-16,21.4-25.4,30.8c-9.4,9.4-19.7,17.9-30.8,25.4c-11.1,7.5-23,13.9-35.3,19.2c-12.6,5.3-25.7,9.4-39,12.1
	C284.1,462.6,270.1,464,256,464z M224.9,377.4c2.4,0,4.6,0.9,6.3,2.5c1.8,1.7,2.8,4.1,2.9,6.6v41.1c0,2.5,2.1,4.6,4.6,4.6h30.9
	c22.6-1.9,44.6-8.1,64.8-18.3h-26.7v-26.2c0.5,2.1,1.6,3.9,3.2,5.2c1.7,1.3,3.8,2.1,5.9,2.1c5.1,0,9.3-4.1,9.4-9.3
	c0-5.1-4.2-9.3-9.4-9.3c-2.2,0-4.2,0.7-5.9,2.1c-1.6,1.3-2.8,3.2-3.2,5.2v-41c0.5,2.1,1.6,3.9,3.2,5.2c1.7,1.3,3.8,2.1,5.9,2.1
	c5.1,0,9.3-4.1,9.4-9.3c0-5.1-4.2-9.3-9.4-9.3c-2.2,0-4.2,0.7-5.9,2.1c-1.6,1.3-2.8,3.2-3.2,5.2v-41.6c0.5,2.1,1.6,3.9,3.2,5.2
	c1.7,1.3,3.8,2.1,5.9,2.1c5.1,0,9.3-4.1,9.4-9.3c0-5.1-4.2-9.3-9.4-9.3c-2.2,0-4.2,0.7-5.9,2.1c-1.6,1.3-2.8,3.2-3.2,5.2v-25.4h64.5
	c5.1,0,9.2,4.1,9.2,9.1v102.9c6.7-6.8,12.9-14.1,18.4-21.8V277c0-7.3-2.9-14.3-8.1-19.4c-5.2-5.2-12.2-8-19.5-8h-64.5v-63.9
	c0-7.3-2.9-14.3-8.1-19.4c-5.2-5.2-12.2-8-19.5-8H169.6c-7.3,0-14.3,2.9-19.5,8c-5.2,5.1-8.1,12.1-8.1,19.4v208.2
	c10.6,8.5,22.2,15.7,34.4,21.6c12.5,6,25.6,10.5,39.1,13.4c0.1-0.4,0.1-0.7,0.1-1.1v-40.8c0-2.4,0.9-4.7,2.5-6.4
	c1.6-1.8,3.9-2.8,6.2-2.9C224.6,377.4,224.7,377.4,224.9,377.4L224.9,377.4z M353,376.5c-5.1,0-9.3,4.1-9.4,9.3
	c0,5.1,4.2,9.3,9.4,9.3c5.1,0,9.3-4.1,9.4-9.3C362.3,380.6,358.1,376.5,353,376.5L353,376.5z M353,331.5c-5.1,0-9.3,4.1-9.4,9.3
	c0,5.1,4.2,9.3,9.4,9.3c5.1,0,9.3-4.1,9.4-9.3C362.3,335.7,358.1,331.5,353,331.5L353,331.5z M353,285.9c-5.1,0-9.3,4.1-9.4,9.3
	c0,5.1,4.2,9.3,9.4,9.3c5.1,0,9.3-4.1,9.4-9.3C362.3,290.1,358.1,285.9,353,285.9L353,285.9z M270.9,395.7c-3.5,0-6.7-2-8.2-5.1
	c-1.7-3.5-1-7.7,1.7-10.5c1.7-1.7,4.1-2.7,6.5-2.7c1.4,0,2.8,0.3,4.1,0.9c3.5,1.7,5.6,5.5,5.1,9.4c-0.6,4.1-3.8,7.3-7.9,7.9
	C271.7,395.7,271.3,395.7,270.9,395.7L270.9,395.7z M178.8,395.7c-3.5,0-6.7-2-8.2-5.1c-1.7-3.5-1-7.7,1.7-10.5
	c1.7-1.7,4.1-2.7,6.5-2.7c1.4,0,2.8,0.3,4.1,0.9c3.5,1.7,5.6,5.5,5.1,9.4c-0.6,4.1-3.8,7.3-7.9,7.9
	C179.6,395.7,179.2,395.7,178.8,395.7L178.8,395.7z M270.9,350c-3.5,0-6.7-2-8.3-5.1c-1.7-3.5-1-7.7,1.7-10.5
	c1.7-1.7,4.1-2.7,6.5-2.7c1.4,0,2.8,0.3,4.1,0.9c3.5,1.7,5.6,5.5,5.1,9.4c-0.6,4.1-3.8,7.3-7.9,7.9C271.7,350,271.3,350,270.9,350
	L270.9,350z M224.9,350c-3.5,0-6.7-2-8.3-5.1c-1.7-3.5-1-7.7,1.8-10.5c1.7-1.7,4.1-2.7,6.5-2.7c1.4,0,2.8,0.3,4.1,0.9
	c3.5,1.7,5.6,5.5,5.1,9.4c-0.6,4.1-3.8,7.3-7.9,7.9C225.7,350,225.3,350,224.9,350L224.9,350z M178.9,350c-3.5,0-6.7-2-8.3-5.1
	c-1.7-3.5-1-7.7,1.7-10.5c1.7-1.7,4.1-2.7,6.5-2.7c1.4,0,2.8,0.3,4.1,0.9c3.5,1.7,5.6,5.5,5.1,9.4c-0.6,4.1-3.8,7.3-7.9,7.9
	C179.7,350,179.3,350,178.9,350L178.9,350z M270.9,304.4c-3.5,0-6.7-2-8.3-5.1c-1.7-3.5-1-7.7,1.7-10.5c1.7-1.7,4.1-2.7,6.5-2.7
	c1.4,0,2.8,0.3,4.1,0.9c3.5,1.7,5.6,5.5,5.1,9.4c-0.6,4.1-3.8,7.3-7.9,7.9C271.7,304.3,271.3,304.4,270.9,304.4L270.9,304.4z
	 M224.9,304.4c-3.5,0-6.7-2-8.3-5.1c-1.7-3.5-1-7.7,1.8-10.5c1.7-1.7,4.1-2.7,6.5-2.7c1.4,0,2.8,0.3,4.1,0.9
	c3.5,1.7,5.6,5.5,5.1,9.4c-0.6,4.1-3.8,7.3-7.9,7.9C225.7,304.3,225.3,304.4,224.9,304.4L224.9,304.4z M178.9,304.4
	c-3.5,0-6.7-2-8.3-5.1c-1.7-3.5-1-7.7,1.7-10.5c1.7-1.7,4.1-2.7,6.5-2.7c1.4,0,2.8,0.3,4.1,0.9c3.5,1.7,5.6,5.5,5.1,9.4
	c-0.6,4.1-3.8,7.3-7.9,7.9C179.7,304.3,179.3,304.4,178.9,304.4L178.9,304.4z M270.9,258.7c-3.5,0-6.7-2-8.3-5.1
	c-1.7-3.5-1-7.7,1.7-10.5c1.7-1.7,4.1-2.7,6.5-2.7c1.4,0,2.8,0.3,4.1,0.9c3.5,1.7,5.6,5.5,5.1,9.4c-0.6,4.1-3.8,7.3-7.9,7.9
	C271.7,258.7,271.3,258.7,270.9,258.7L270.9,258.7z M224.9,258.7c-3.5,0-6.7-2-8.3-5.1c-1.7-3.5-1-7.7,1.8-10.5
	c1.7-1.7,4.1-2.7,6.5-2.7c1.4,0,2.8,0.3,4.1,0.9c3.5,1.7,5.6,5.5,5.1,9.4c-0.6,4.1-3.8,7.3-7.9,7.9
	C225.7,258.7,225.3,258.7,224.9,258.7L224.9,258.7z M178.8,258.7c-3.5,0-6.7-2-8.3-5.1c-1.7-3.5-1-7.7,1.7-10.5
	c1.7-1.7,4.1-2.7,6.5-2.7c1.4,0,2.8,0.3,4.1,0.9c3.5,1.7,5.6,5.5,5.1,9.4c-0.6,4.1-3.8,7.3-7.9,7.9
	C179.6,258.7,179.2,258.7,178.8,258.7L178.8,258.7z M270.9,213c-3.5,0-6.7-2-8.3-5.1c-1.7-3.5-1-7.7,1.7-10.5
	c1.7-1.7,4.1-2.7,6.5-2.7c1.4,0,2.8,0.3,4.1,0.9c3.5,1.7,5.6,5.5,5.1,9.4c-0.6,4.1-3.8,7.3-7.9,7.9C271.7,213,271.3,213,270.9,213
	L270.9,213z M224.9,213c-3.5,0-6.7-2-8.3-5.1c-1.7-3.5-1-7.7,1.8-10.5c1.7-1.7,4.1-2.7,6.5-2.7c1.4,0,2.8,0.3,4.1,0.9
	c3.5,1.7,5.6,5.5,5.1,9.4c-0.6,4.1-3.8,7.3-7.9,7.9C225.7,213,225.3,213,224.9,213L224.9,213z M178.8,213c-3.5,0-6.7-2-8.3-5.1
	c-1.7-3.5-1-7.7,1.7-10.5c1.7-1.7,4.1-2.7,6.5-2.7c1.4,0,2.8,0.3,4.1,0.9c3.5,1.7,5.6,5.5,5.1,9.4c-0.6,4.1-3.8,7.3-7.9,7.9
	C179.6,213,179.2,213,178.8,213L178.8,213z"/>
</svg>
