<?xml version="1.0" encoding="utf-8"?>
<!-- Generator: Adobe Illustrator 24.1.3, SVG Export Plug-In . SVG Version: 6.00 Build 0)  -->
<svg version="1.1" id="Layer_1" xmlns="http://www.w3.org/2000/svg" xmlns:xlink="http://www.w3.org/1999/xlink" x="0px" y="0px"
	 viewBox="0 0 512 512" style="enable-background:new 0 0 512 512;" xml:space="preserve">
<g id="Group_1415" transform="translate(-6 -21.772)">
	<g id="person-add_1_" transform="translate(6 21.772)">
		<path id="Path_1303_1_" d="M100.2,195.2V163h32.1c7.1,0,12.9-5.8,12.9-12.9s-5.8-12.9-12.9-12.9h-32.1v-32.1
			c0-7.1-5.8-12.8-12.9-12.8c-7.1,0-12.8,5.8-12.8,12.8v32.1H42.3c-7.1,0-12.9,5.8-12.9,12.9S35.2,163,42.3,163l0,0h32.1v32.1
			c0,7.1,5.7,12.9,12.8,12.9C94.4,208,100.2,202.3,100.2,195.2C100.2,195.2,100.2,195.2,100.2,195.2z"/>
	</g>
	<g id="Group_1380" transform="translate(13.282 26.523)">
		<path id="Subtraction_7" d="M230.3,399.4h-89.8c-9.7,0-17.6-7.9-17.6-17.6s7.9-17.6,17.6-17.6h101.4c-8.5,5.3-13.6,14.6-13.5,24.6
			C228.4,392.4,229,396,230.3,399.4L230.3,399.4z M247.8,346.6h-79.7c-15.3,0-27.7-12.4-27.7-27.7V216.1c0-15.3,12.4-27.7,27.7-27.7
			h77.8v148.1C245.9,340,246.6,343.4,247.8,346.6L247.8,346.6z"/>
		<g id="Group_1123" transform="translate(9.528 0)">
			<g id="Group_1122">
				<path id="Rectangle_1505_1_" d="M261.6,371.8h175.7c14.6,0,26.4,11.8,26.4,26.4l0,0c0,14.6-11.8,26.4-26.4,26.4H261.6
					c-14.6,0-26.4-11.8-26.4-26.4l0,0C235.2,383.6,247,371.8,261.6,371.8z"/>
				<path id="Rectangle_1506_1_" d="M280.4,143.3h138c15.3,0,27.7,12.4,27.7,27.7v155.6c0,15.3-12.4,27.7-27.7,27.7h-138
					c-15.3,0-27.7-12.4-27.7-27.7V171C252.8,155.7,265.2,143.3,280.4,143.3z"/>
			</g>
		</g>
	</g>
</g>
</svg>
