<?xml version="1.0" encoding="utf-8"?>
<!-- Generator: Adobe Illustrator 24.1.3, SVG Export Plug-In . SVG Version: 6.00 Build 0)  -->
<svg version="1.1" id="Layer_1" xmlns="http://www.w3.org/2000/svg" xmlns:xlink="http://www.w3.org/1999/xlink" x="0px" y="0px"
	 viewBox="0 0 512 512" style="enable-background:new 0 0 512 512;" xml:space="preserve">
<g id="Group_1307" transform="translate(-560.773 -177.536)">
	<path id="Rectangle_1505" d="M677.8,573.5h280c23.2,0,42,18.8,42,42l0,0c0,23.2-18.8,42-42,42h-280c-23.2,0-42-18.8-42-42l0,0
		C635.8,592.3,654.6,573.5,677.8,573.5z"/>
	<path id="Rectangle_1506" d="M719.8,209.5h196c30.9,0,56,25.1,56,56v224c0,30.9-25.1,56-56,56h-196c-30.9,0-56-25.1-56-56v-224
		C663.8,234.6,688.8,209.5,719.8,209.5z"/>
</g>
</svg>
