<?xml version="1.0" encoding="utf-8"?>
<!-- Generator: Adobe Illustrator 24.1.3, SVG Export Plug-In . SVG Version: 6.00 Build 0)  -->
<svg version="1.1" id="Layer_1" xmlns="http://www.w3.org/2000/svg" xmlns:xlink="http://www.w3.org/1999/xlink" x="0px" y="0px"
	 viewBox="0 0 512 512" style="enable-background:new 0 0 512 512;" xml:space="preserve">
<g id="Group_1308" transform="translate(-590.999 -179)">
	<path id="Subtraction_7" d="M759.4,577H647c-12.2,0-22-9.9-22-22c0-12.1,9.8-22,22-22h126.9c-10.7,6.6-17.1,18.3-16.9,30.8
		C757,568.3,757.8,572.8,759.4,577L759.4,577z M779,511h-88c-24.3,0-44-19.7-44-44V357c0-24.3,19.7-44,44-44h88v176
		c0,7.6,2,15,5.7,21.6C782.8,510.9,780.9,511,779,511z"/>
	<g id="Group_1123" transform="translate(0.5)">
		<g id="Group_1122" transform="translate(37.227 1.464)">
			<path id="Rectangle_1505" d="M775.3,543.5h220c18.2,0,33,14.8,33,33l0,0c0,18.2-14.8,33-33,33h-220c-18.2,0-33-14.8-33-33l0,0
				C742.3,558.3,757,543.5,775.3,543.5z"/>
			<path id="Rectangle_1506" d="M808.3,257.5h154c24.3,0,44,19.7,44,44v176c0,24.3-19.7,44-44,44h-154c-24.3,0-44-19.7-44-44v-176
				C764.3,277.2,784,257.5,808.3,257.5z"/>
		</g>
	</g>
</g>
</svg>
