<?xml version="1.0" encoding="utf-8"?>
<!-- Generator: Adobe Illustrator 24.1.3, SVG Export Plug-In . SVG Version: 6.00 Build 0)  -->
<svg version="1.1" id="Layer_1" xmlns="http://www.w3.org/2000/svg" xmlns:xlink="http://www.w3.org/1999/xlink" x="0px" y="0px"
	 viewBox="0 0 512 512" style="enable-background:new 0 0 512 512;" xml:space="preserve">
<g id="Group_1420" transform="translate(-775 -237.321)">
	<g id="Group_1344" transform="translate(781.486 243.509)">
		<path id="Rectangle_1505" d="M164.6,397.5h228.9c16.9,0,30.5,13.7,30.5,30.5v15.3c0,16.9-13.7,30.5-30.5,30.5H164.6
			c-16.9,0-30.5-13.7-30.5-30.5V428C134.1,411.1,147.7,397.5,164.6,397.5z"/>
		<path id="Rectangle_1506" d="M187.2,122.8h183.1c16.9,0,30.5,13.7,30.5,30.5v198.4c0,16.9-13.7,30.5-30.5,30.5H187.2
			c-16.9,0-30.5-13.7-30.5-30.5V153.3C156.7,136.4,170.4,122.8,187.2,122.8z"/>
	</g>
	<g id="person-add" transform="translate(775 237.321)">
		<path id="Path_1303" d="M121,137.1v-32.8h32.8c7.3,0,13.1-5.9,13.1-13.1c0-7.3-5.9-13.1-13.1-13.1H121V45.1
			c0-7.3-5.9-13.1-13.1-13.1c-7.3,0-13.1,5.9-13.1,13.1V78H61.9c-7.3,0-13.1,5.9-13.1,13.1c0,7.3,5.9,13.1,13.1,13.1h32.8v32.8
			c0,7.3,5.9,13.1,13.1,13.1S121,144.4,121,137.1L121,137.1z"/>
	</g>
</g>
</svg>
