<svg xmlns="http://www.w3.org/2000/svg" width="11" height="18.909" viewBox="0 0 11 18.909">
  <g id="Group_1876" data-name="Group 1876" transform="translate(-789.101 -174.39)">
    <rect id="Rectangle_1506" data-name="Rectangle 1506" width="11" height="8" rx="2" transform="translate(789.101 185.299)" />
    <path id="Path_4214" data-name="Path 4214" d="M45.485,21.851c.307,0,.557-.055.557-.122V14.2c0-.068-.25-.123-.557-.123h-.093c-.309,0-.56.055-.56.123v7.537c0,.067.25.122.56.122" transform="translate(751.541 164.444)" />
    <path id="Path_4215" data-name="Path 4215" d="M37.953,21.851c.307,0,.557-.055.557-.122V14.2c0-.068-.25-.123-.557-.123H37.86c-.309,0-.56.055-.56.123v7.537c0,.067.25.122.56.122" transform="translate(756.696 164.444)" />
    <path id="Path_4216" data-name="Path 4216" d="M30.42,21.851c.309,0,.557-.055.557-.122V14.2c0-.068-.248-.123-.557-.123h-.093c-.309,0-.56.055-.56.123v7.537c0,.067.25.122.56.122" transform="translate(761.851 164.444)" />
    <path id="Path_4217" data-name="Path 4217" d="M26.56,4.055c0,.391,8,.391,7.991,0V1.368a.363.363,0,0,0-.1-.258A.355.355,0,0,0,34.2,1H26.917a.358.358,0,0,0-.253.11.365.365,0,0,0-.1.258Z" transform="translate(764.045 173.39)" />
  </g>
</svg>
